<svg width="679" height="696" viewBox="0 0 679 696" fill="none" xmlns="http://www.w3.org/2000/svg">
<path d="M134.016 46.2C134.016 42.7867 134.603 39.4 135.776 36.04C137.003 32.6267 138.763 29.5867 141.056 26.92C143.35 24.2533 146.176 22.0933 149.536 20.44C152.896 18.7333 156.71 17.88 160.976 17.88C166.043 17.88 170.363 19.0267 173.936 21.32C177.563 23.6133 180.23 26.6 181.936 30.28L177.536 33C176.63 31.1333 175.51 29.56 174.176 28.28C172.896 27 171.51 25.96 170.016 25.16C168.523 24.36 166.976 23.8 165.376 23.48C163.776 23.1067 162.203 22.92 160.656 22.92C157.243 22.92 154.23 23.6133 151.616 25C149.003 26.3867 146.79 28.2 144.976 30.44C143.216 32.68 141.883 35.2133 140.976 38.04C140.07 40.8133 139.616 43.64 139.616 46.52C139.616 49.6667 140.15 52.68 141.216 55.56C142.336 58.44 143.83 61 145.696 63.24C147.616 65.4267 149.856 67.1867 152.416 68.52C155.03 69.8 157.856 70.44 160.896 70.44C162.496 70.44 164.123 70.2533 165.776 69.88C167.483 69.4533 169.11 68.8133 170.656 67.96C172.256 67.0533 173.723 65.96 175.056 64.68C176.39 63.3467 177.51 61.7467 178.416 59.88L183.056 62.28C182.15 64.4133 180.87 66.3067 179.216 67.96C177.563 69.56 175.723 70.92 173.696 72.04C171.67 73.16 169.51 74.0133 167.216 74.6C164.976 75.1867 162.763 75.48 160.576 75.48C156.683 75.48 153.11 74.6267 149.856 72.92C146.603 71.2133 143.803 69 141.456 66.28C139.11 63.5067 137.27 60.3867 135.936 56.92C134.656 53.4 134.016 49.8267 134.016 46.2ZM209.26 75.8C206.22 75.8 203.447 75.24 200.94 74.12C198.433 72.9467 196.247 71.3733 194.38 69.4C192.567 67.4267 191.153 65.1333 190.14 62.52C189.127 59.9067 188.62 57.16 188.62 54.28C188.62 51.3467 189.127 48.5733 190.14 45.96C191.207 43.3467 192.647 41.0533 194.46 39.08C196.327 37.1067 198.513 35.5333 201.02 34.36C203.527 33.1867 206.273 32.6 209.26 32.6C212.247 32.6 214.993 33.1867 217.5 34.36C220.06 35.5333 222.247 37.1067 224.06 39.08C225.927 41.0533 227.367 43.3467 228.38 45.96C229.447 48.5733 229.98 51.3467 229.98 54.28C229.98 57.16 229.473 59.9067 228.46 62.52C227.447 65.1333 226.007 67.4267 224.14 69.4C222.327 71.3733 220.14 72.9467 217.58 74.12C215.073 75.24 212.3 75.8 209.26 75.8ZM194.14 54.36C194.14 56.7067 194.54 58.8933 195.34 60.92C196.14 62.8933 197.207 64.6533 198.54 66.2C199.927 67.6933 201.527 68.8667 203.34 69.72C205.207 70.5733 207.18 71 209.26 71C211.34 71 213.287 70.5733 215.1 69.72C216.967 68.8133 218.593 67.6133 219.98 66.12C221.367 64.5733 222.46 62.7867 223.26 60.76C224.06 58.7333 224.46 56.5467 224.46 54.2C224.46 51.9067 224.06 49.7467 223.26 47.72C222.46 45.64 221.367 43.8533 219.98 42.36C218.593 40.8133 216.967 39.6133 215.1 38.76C213.287 37.8533 211.34 37.4 209.26 37.4C207.18 37.4 205.233 37.8533 203.42 38.76C201.607 39.6133 200.007 40.8133 198.62 42.36C197.233 43.9067 196.14 45.72 195.34 47.8C194.54 49.8267 194.14 52.0133 194.14 54.36ZM259.878 38.12C256.198 38.2267 252.998 39.24 250.278 41.16C247.558 43.08 245.638 45.72 244.518 49.08V75H239.078V33.32H244.198V43.32C245.745 40.12 247.825 37.6133 250.438 35.8C253.051 33.9867 255.851 33.08 258.838 33.08C259.265 33.08 259.611 33.1067 259.878 33.16V38.12ZM282.776 75.8C279.736 75.8 276.962 75.24 274.456 74.12C271.949 72.9467 269.762 71.3733 267.896 69.4C266.082 67.4267 264.669 65.1333 263.656 62.52C262.642 59.9067 262.136 57.16 262.136 54.28C262.136 51.3467 262.642 48.5733 263.656 45.96C264.722 43.3467 266.162 41.0533 267.976 39.08C269.842 37.1067 272.029 35.5333 274.536 34.36C277.042 33.1867 279.789 32.6 282.776 32.6C285.762 32.6 288.509 33.1867 291.016 34.36C293.576 35.5333 295.762 37.1067 297.576 39.08C299.442 41.0533 300.882 43.3467 301.896 45.96C302.962 48.5733 303.496 51.3467 303.496 54.28C303.496 57.16 302.989 59.9067 301.976 62.52C300.962 65.1333 299.522 67.4267 297.656 69.4C295.842 71.3733 293.656 72.9467 291.096 74.12C288.589 75.24 285.816 75.8 282.776 75.8ZM267.656 54.36C267.656 56.7067 268.056 58.8933 268.856 60.92C269.656 62.8933 270.722 64.6533 272.056 66.2C273.442 67.6933 275.042 68.8667 276.856 69.72C278.722 70.5733 280.696 71 282.776 71C284.856 71 286.802 70.5733 288.616 69.72C290.482 68.8133 292.109 67.6133 293.496 66.12C294.882 64.5733 295.976 62.7867 296.776 60.76C297.576 58.7333 297.976 56.5467 297.976 54.2C297.976 51.9067 297.576 49.7467 296.776 47.72C295.976 45.64 294.882 43.8533 293.496 42.36C292.109 40.8133 290.482 39.6133 288.616 38.76C286.802 37.8533 284.856 37.4 282.776 37.4C280.696 37.4 278.749 37.8533 276.936 38.76C275.122 39.6133 273.522 40.8133 272.136 42.36C270.749 43.9067 269.656 45.72 268.856 47.8C268.056 49.8267 267.656 52.0133 267.656 54.36ZM347.634 75H342.194V51.72C342.194 46.76 341.447 43.16 339.954 40.92C338.514 38.68 336.274 37.56 333.234 37.56C331.634 37.56 330.034 37.8533 328.434 38.44C326.834 39.0267 325.34 39.8533 323.954 40.92C322.62 41.9867 321.42 43.2667 320.354 44.76C319.287 46.2 318.514 47.7733 318.034 49.48V75H312.594V33.32H317.554V42.76C319.26 39.72 321.687 37.2667 324.834 35.4C328.034 33.5333 331.5 32.6 335.234 32.6C337.527 32.6 339.474 33.0267 341.074 33.88C342.674 34.7333 343.954 35.9333 344.914 37.48C345.874 39.0267 346.567 40.92 346.994 43.16C347.42 45.4 347.634 47.88 347.634 50.6V75ZM369.714 75.8C367.741 75.8 365.901 75.48 364.194 74.84C362.541 74.1467 361.074 73.2133 359.794 72.04C358.568 70.8667 357.608 69.5067 356.914 67.96C356.221 66.36 355.874 64.6533 355.874 62.84C355.874 61.0267 356.301 59.3467 357.154 57.8C358.008 56.2533 359.208 54.92 360.754 53.8C362.301 52.68 364.141 51.8267 366.274 51.24C368.408 50.6 370.754 50.28 373.314 50.28C375.448 50.28 377.608 50.4667 379.794 50.84C381.981 51.2133 383.928 51.7467 385.634 52.44V48.68C385.634 45 384.594 42.0933 382.514 39.96C380.434 37.7733 377.554 36.68 373.874 36.68C371.741 36.68 369.554 37.1067 367.314 37.96C365.074 38.8133 362.808 40.04 360.514 41.64L358.594 38.04C363.981 34.4133 369.208 32.6 374.274 32.6C379.501 32.6 383.608 34.0667 386.594 37C389.581 39.9333 391.074 43.9867 391.074 49.16V67.96C391.074 69.4533 391.741 70.2 393.074 70.2V75C392.168 75.16 391.474 75.24 390.994 75.24C389.608 75.24 388.514 74.8933 387.714 74.2C386.968 73.5067 386.568 72.5467 386.514 71.32L386.354 68.04C384.434 70.5467 382.008 72.4667 379.074 73.8C376.194 75.1333 373.074 75.8 369.714 75.8ZM370.994 71.64C373.821 71.64 376.408 71.1067 378.754 70.04C381.154 68.9733 382.968 67.56 384.194 65.8C384.674 65.32 385.021 64.8133 385.234 64.28C385.501 63.6933 385.634 63.16 385.634 62.68V55.88C383.821 55.1867 381.928 54.6533 379.954 54.28C378.034 53.9067 376.061 53.72 374.034 53.72C370.194 53.72 367.074 54.52 364.674 56.12C362.274 57.72 361.074 59.8267 361.074 62.44C361.074 63.72 361.314 64.92 361.794 66.04C362.328 67.16 363.021 68.1467 363.874 69C364.781 69.8 365.848 70.44 367.074 70.92C368.301 71.4 369.608 71.64 370.994 71.64ZM414.214 75L397.254 33.32H402.854L417.174 69.96L431.574 33.32H436.854L419.894 75H414.214ZM444.391 75V33.32H449.831V75H444.391ZM444.391 24.6V16.6H449.831V24.6H444.391ZM482.613 38.12C478.933 38.2267 475.733 39.24 473.013 41.16C470.293 43.08 468.373 45.72 467.253 49.08V75H461.813V33.32H466.933V43.32C468.479 40.12 470.559 37.6133 473.173 35.8C475.786 33.9867 478.586 33.08 481.573 33.08C481.999 33.08 482.346 33.1067 482.613 33.16V38.12ZM502.899 75.8C498.366 75.8 494.979 74.3067 492.739 71.32C490.553 68.28 489.459 63.7733 489.459 57.8V33.32H494.899V56.84C494.899 66.28 498.126 71 504.579 71C506.179 71 507.753 70.7333 509.299 70.2C510.846 69.6667 512.259 68.8933 513.539 67.88C514.873 66.8667 516.046 65.6667 517.059 64.28C518.126 62.8933 518.979 61.32 519.619 59.56V33.32H525.059V67.96C525.059 69.4533 525.699 70.2 526.979 70.2V75C526.339 75.1067 525.806 75.16 525.379 75.16C525.006 75.16 524.739 75.16 524.579 75.16C523.299 75.1067 522.259 74.6533 521.459 73.8C520.659 72.9467 520.259 71.8 520.259 70.36V65.56C518.446 68.8133 515.966 71.3467 512.819 73.16C509.726 74.92 506.419 75.8 502.899 75.8ZM551.199 75.8C547.946 75.8 544.773 75.2667 541.679 74.2C538.586 73.1333 535.919 71.5867 533.679 69.56L536.159 65.88C538.506 67.8 540.879 69.24 543.279 70.2C545.733 71.16 548.346 71.64 551.119 71.64C554.479 71.64 557.146 70.9733 559.119 69.64C561.146 68.2533 562.159 66.3067 562.159 63.8C562.159 62.6267 561.893 61.6667 561.359 60.92C560.826 60.12 560.026 59.4267 558.959 58.84C557.946 58.2533 556.639 57.7467 555.039 57.32C553.493 56.84 551.679 56.36 549.599 55.88C547.199 55.2933 545.119 54.7067 543.359 54.12C541.599 53.5333 540.133 52.8667 538.959 52.12C537.839 51.3733 536.986 50.4667 536.399 49.4C535.866 48.28 535.599 46.8933 535.599 45.24C535.599 43.16 535.999 41.32 536.799 39.72C537.653 38.12 538.773 36.8133 540.159 35.8C541.599 34.7333 543.253 33.9333 545.119 33.4C547.039 32.8667 549.066 32.6 551.199 32.6C554.399 32.6 557.306 33.1333 559.919 34.2C562.533 35.2133 564.639 36.5733 566.239 38.28L563.599 41.48C562.053 39.88 560.159 38.68 557.919 37.88C555.733 37.08 553.439 36.68 551.039 36.68C549.599 36.68 548.266 36.84 547.039 37.16C545.813 37.4267 544.719 37.88 543.759 38.52C542.853 39.16 542.133 39.9867 541.599 41C541.066 41.96 540.799 43.1067 540.799 44.44C540.799 45.56 540.986 46.4667 541.359 47.16C541.733 47.8533 542.346 48.4667 543.199 49C544.053 49.48 545.119 49.9333 546.399 50.36C547.733 50.7333 549.333 51.1333 551.199 51.56C553.866 52.2 556.213 52.84 558.239 53.48C560.266 54.12 561.946 54.8667 563.279 55.72C564.666 56.5733 565.706 57.6133 566.399 58.84C567.093 60.0667 567.439 61.56 567.439 63.32C567.439 67.16 565.973 70.2 563.039 72.44C560.106 74.68 556.159 75.8 551.199 75.8Z" fill="black"/>
<path d="M169.372 590.2L189.692 640.04L209.932 590.2H215.772L192.092 647H187.212L163.532 590.2H169.372ZM222.789 647V605.32H228.229V647H222.789ZM222.789 596.6V588.6H228.229V596.6H222.789ZM254.051 647.8C250.798 647.8 247.624 647.267 244.531 646.2C241.438 645.133 238.771 643.587 236.531 641.56L239.011 637.88C241.358 639.8 243.731 641.24 246.131 642.2C248.584 643.16 251.198 643.64 253.971 643.64C257.331 643.64 259.998 642.973 261.971 641.64C263.998 640.253 265.011 638.307 265.011 635.8C265.011 634.627 264.744 633.667 264.211 632.92C263.678 632.12 262.878 631.427 261.811 630.84C260.798 630.253 259.491 629.747 257.891 629.32C256.344 628.84 254.531 628.36 252.451 627.88C250.051 627.293 247.971 626.707 246.211 626.12C244.451 625.533 242.984 624.867 241.811 624.12C240.691 623.373 239.838 622.467 239.251 621.4C238.718 620.28 238.451 618.893 238.451 617.24C238.451 615.16 238.851 613.32 239.651 611.72C240.504 610.12 241.624 608.813 243.011 607.8C244.451 606.733 246.104 605.933 247.971 605.4C249.891 604.867 251.918 604.6 254.051 604.6C257.251 604.6 260.158 605.133 262.771 606.2C265.384 607.213 267.491 608.573 269.091 610.28L266.451 613.48C264.904 611.88 263.011 610.68 260.771 609.88C258.584 609.08 256.291 608.68 253.891 608.68C252.451 608.68 251.118 608.84 249.891 609.16C248.664 609.427 247.571 609.88 246.611 610.52C245.704 611.16 244.984 611.987 244.451 613C243.918 613.96 243.651 615.107 243.651 616.44C243.651 617.56 243.838 618.467 244.211 619.16C244.584 619.853 245.198 620.467 246.051 621C246.904 621.48 247.971 621.933 249.251 622.36C250.584 622.733 252.184 623.133 254.051 623.56C256.718 624.2 259.064 624.84 261.091 625.48C263.118 626.12 264.798 626.867 266.131 627.72C267.518 628.573 268.558 629.613 269.251 630.84C269.944 632.067 270.291 633.56 270.291 635.32C270.291 639.16 268.824 642.2 265.891 644.44C262.958 646.68 259.011 647.8 254.051 647.8ZM292.235 647.8C287.702 647.8 284.315 646.307 282.075 643.32C279.889 640.28 278.795 635.773 278.795 629.8V605.32H284.235V628.84C284.235 638.28 287.462 643 293.915 643C295.515 643 297.089 642.733 298.635 642.2C300.182 641.667 301.595 640.893 302.875 639.88C304.209 638.867 305.382 637.667 306.395 636.28C307.462 634.893 308.315 633.32 308.955 631.56V605.32H314.395V639.96C314.395 641.453 315.035 642.2 316.315 642.2V647C315.675 647.107 315.142 647.16 314.715 647.16C314.342 647.16 314.075 647.16 313.915 647.16C312.635 647.107 311.595 646.653 310.795 645.8C309.995 644.947 309.595 643.8 309.595 642.36V637.56C307.782 640.813 305.302 643.347 302.155 645.16C299.062 646.92 295.755 647.8 292.235 647.8ZM337.175 647.8C335.202 647.8 333.362 647.48 331.655 646.84C330.002 646.147 328.535 645.213 327.255 644.04C326.029 642.867 325.069 641.507 324.375 639.96C323.682 638.36 323.335 636.653 323.335 634.84C323.335 633.027 323.762 631.347 324.615 629.8C325.469 628.253 326.669 626.92 328.215 625.8C329.762 624.68 331.602 623.827 333.735 623.24C335.869 622.6 338.215 622.28 340.775 622.28C342.909 622.28 345.069 622.467 347.255 622.84C349.442 623.213 351.389 623.747 353.095 624.44V620.68C353.095 617 352.055 614.093 349.975 611.96C347.895 609.773 345.015 608.68 341.335 608.68C339.202 608.68 337.015 609.107 334.775 609.96C332.535 610.813 330.269 612.04 327.975 613.64L326.055 610.04C331.442 606.413 336.669 604.6 341.735 604.6C346.962 604.6 351.069 606.067 354.055 609C357.042 611.933 358.535 615.987 358.535 621.16V639.96C358.535 641.453 359.202 642.2 360.535 642.2V647C359.629 647.16 358.935 647.24 358.455 647.24C357.069 647.24 355.975 646.893 355.175 646.2C354.429 645.507 354.029 644.547 353.975 643.32L353.815 640.04C351.895 642.547 349.469 644.467 346.535 645.8C343.655 647.133 340.535 647.8 337.175 647.8ZM338.455 643.64C341.282 643.64 343.869 643.107 346.215 642.04C348.615 640.973 350.429 639.56 351.655 637.8C352.135 637.32 352.482 636.813 352.695 636.28C352.962 635.693 353.095 635.16 353.095 634.68V627.88C351.282 627.187 349.389 626.653 347.415 626.28C345.495 625.907 343.522 625.72 341.495 625.72C337.655 625.72 334.535 626.52 332.135 628.12C329.735 629.72 328.535 631.827 328.535 634.44C328.535 635.72 328.775 636.92 329.255 638.04C329.789 639.16 330.482 640.147 331.335 641C332.242 641.8 333.309 642.44 334.535 642.92C335.762 643.4 337.069 643.64 338.455 643.64ZM370.529 588.6H375.969V637.56C375.969 639.107 376.396 640.333 377.249 641.24C378.102 642.093 379.302 642.52 380.849 642.52C381.436 642.52 382.129 642.44 382.929 642.28C383.729 642.12 384.476 641.907 385.169 641.64L386.129 646.04C385.116 646.467 383.862 646.813 382.369 647.08C380.929 647.347 379.676 647.48 378.609 647.48C376.102 647.48 374.129 646.787 372.689 645.4C371.249 643.96 370.529 641.96 370.529 639.4V588.6ZM392.086 647V605.32H397.526V647H392.086ZM392.086 596.6V588.6H397.526V596.6H392.086ZM405.988 643.32L434.148 609.4H406.628V605.32H440.068V609L411.988 642.92H439.988V647H405.988V643.32ZM465.789 647.8C462.749 647.8 459.949 647.24 457.389 646.12C454.882 644.947 452.696 643.373 450.829 641.4C448.962 639.373 447.496 637.053 446.429 634.44C445.416 631.827 444.909 629.027 444.909 626.04C444.909 623.107 445.416 620.36 446.429 617.8C447.496 615.187 448.936 612.92 450.749 611C452.616 609.027 454.829 607.48 457.389 606.36C459.949 605.187 462.722 604.6 465.709 604.6C468.749 604.6 471.522 605.187 474.029 606.36C476.589 607.48 478.776 609.027 480.589 611C482.402 612.973 483.816 615.24 484.829 617.8C485.842 620.36 486.349 623.08 486.349 625.96C486.349 626.387 486.349 626.813 486.349 627.24C486.349 627.667 486.322 627.96 486.269 628.12H450.589C450.749 630.36 451.256 632.44 452.109 634.36C453.016 636.227 454.162 637.853 455.549 639.24C456.936 640.627 458.509 641.72 460.269 642.52C462.082 643.267 464.002 643.64 466.029 643.64C467.362 643.64 468.696 643.453 470.029 643.08C471.362 642.707 472.589 642.2 473.709 641.56C474.829 640.92 475.842 640.147 476.749 639.24C477.656 638.28 478.349 637.24 478.829 636.12L483.549 637.4C482.909 638.947 482.002 640.36 480.829 641.64C479.656 642.867 478.296 643.96 476.749 644.92C475.202 645.827 473.496 646.52 471.629 647C469.762 647.533 467.816 647.8 465.789 647.8ZM481.149 623.96C480.989 621.72 480.456 619.693 479.549 617.88C478.696 616.013 477.576 614.413 476.189 613.08C474.856 611.747 473.282 610.707 471.469 609.96C469.709 609.213 467.816 608.84 465.789 608.84C463.762 608.84 461.842 609.213 460.029 609.96C458.216 610.707 456.616 611.747 455.229 613.08C453.896 614.413 452.802 616.013 451.949 617.88C451.149 619.747 450.669 621.773 450.509 623.96H481.149ZM511.862 647.8C508.982 647.8 506.316 647.213 503.862 646.04C501.409 644.813 499.302 643.213 497.542 641.24C495.782 639.267 494.396 637 493.382 634.44C492.422 631.827 491.942 629.107 491.942 626.28C491.942 623.347 492.422 620.573 493.382 617.96C494.342 615.293 495.649 612.973 497.302 611C499.009 609.027 501.009 607.48 503.302 606.36C505.649 605.187 508.209 604.6 510.982 604.6C514.502 604.6 517.622 605.533 520.342 607.4C523.062 609.213 525.196 611.427 526.742 614.04V588.6H532.182V639.96C532.182 641.453 532.822 642.2 534.102 642.2V647C533.302 647.16 532.662 647.24 532.182 647.24C530.902 647.24 529.782 646.84 528.822 646.04C527.862 645.187 527.382 644.173 527.382 643V638.92C525.729 641.64 523.489 643.8 520.662 645.4C517.836 647 514.902 647.8 511.862 647.8ZM513.062 643C514.396 643 515.809 642.733 517.302 642.2C518.849 641.667 520.289 640.947 521.622 640.04C522.956 639.08 524.076 637.987 524.982 636.76C525.942 635.48 526.529 634.12 526.742 632.68V619.8C526.209 618.36 525.436 617.027 524.422 615.8C523.409 614.52 522.236 613.4 520.902 612.44C519.622 611.48 518.236 610.733 516.742 610.2C515.249 609.667 513.782 609.4 512.342 609.4C510.102 609.4 508.076 609.88 506.262 610.84C504.449 611.8 502.876 613.08 501.542 614.68C500.262 616.227 499.276 618.013 498.582 620.04C497.889 622.067 497.542 624.147 497.542 626.28C497.542 628.52 497.942 630.653 498.742 632.68C499.542 634.707 500.636 636.493 502.022 638.04C503.409 639.533 505.036 640.733 506.902 641.64C508.822 642.547 510.876 643 513.062 643Z" fill="black"/>
<path fill-rule="evenodd" clip-rule="evenodd" d="M546.57 173.247C551.754 167.13 555.263 159.633 554.677 151.233C552.987 127.029 519.468 132.354 512.948 144.57C506.428 156.786 507.203 187.773 515.63 189.956C518.99 190.827 526.149 188.694 533.435 184.279L528.862 216.802H555.866L546.57 173.247Z" fill="#B28B67"/>
<path fill-rule="evenodd" clip-rule="evenodd" d="M532.085 153.906C531.052 168.38 528.317 175.616 523.882 175.616C517.229 175.616 511.585 171.371 508.666 171.371C506.538 171.371 507.013 174.048 508.423 176.032C509.587 177.67 515.254 179.248 515.254 181.786C515.254 184.325 510.777 182.361 510.777 183.866C510.777 186.357 509.99 191.039 514.29 191.039C518.641 191.039 531.118 189.445 533.256 182.953C534.636 178.763 535.529 170.081 535.933 156.907C536.197 156.875 536.466 156.859 536.738 156.859C540.467 156.859 543.489 159.897 543.489 163.645C543.489 165.548 542.71 167.267 541.455 168.5C543.017 170.716 544.768 173.031 546.774 175.42C554.311 170.875 559.903 157.571 552.535 144.79C550.498 138.528 545.888 135.184 540.443 133.631C536.032 131.777 531.453 131.568 527.588 132.679C520.011 133.333 513.246 135.655 511.328 137.034C511.328 144.244 512.718 146.384 524.59 146.195C527.507 147.744 529.749 150.41 532.085 153.906Z" fill="#191847"/>
<path fill-rule="evenodd" clip-rule="evenodd" d="M564.867 310.674L524.074 454.566L494.311 560.622H472.603L504.231 310.674H564.867Z" fill="#492919"/>
<path fill-rule="evenodd" clip-rule="evenodd" d="M575.777 310.674C576.72 384.837 579.938 425.288 580.928 432.026C581.919 438.765 596.898 481.63 625.867 560.622H603.379C566.5 484.843 545.913 441.977 541.619 432.026C537.324 422.076 524.07 381.625 504.108 310.674H575.777Z" fill="#3D261B"/>
<path fill-rule="evenodd" clip-rule="evenodd" d="M469.949 292.137L435.984 321.081C426.457 324.397 418.572 328.244 412.329 332.622C410.888 334.14 409.227 337.125 415.575 336.183C421.924 335.241 428.643 334.538 429.676 336.664C430.709 338.79 427.029 341.679 429.014 344.506C430.338 346.391 435.602 341.061 444.805 328.517L479.232 311.247L469.949 292.137ZM623.751 279.612L603.822 282.521C625.214 329.174 636.682 353.847 638.227 356.539C641.703 362.598 637.615 373.15 636.017 378.736C644.094 381.08 641.514 368.537 651.727 371.665C661.049 374.521 668.741 380.995 677.973 373.297C679.108 372.35 680.065 369.256 676.457 367.453C667.469 362.96 654.272 354.74 652.221 351.71C649.423 347.579 639.933 323.546 623.751 279.612Z" fill="#B28B67"/>
<path fill-rule="evenodd" clip-rule="evenodd" d="M540.457 197.95L528.108 193.846C511.357 235.907 486.375 276.604 444.635 310.979L454.957 328.879C491.64 307.158 526.366 290.285 540.457 257.692C545.186 246.753 540.843 211.03 540.457 197.95Z" fill="#C5CFD6"/>
<path fill-rule="evenodd" clip-rule="evenodd" d="M582.87 316.329C547.497 320.099 519.654 320.099 499.342 316.329C496.825 315.862 496.428 311.626 497.595 308.752C515.769 263.991 528.232 224.935 528.232 193.846C531.566 195.535 537.402 195.789 545.74 194.605C568.146 226.644 578.445 263.405 582.87 316.329Z" fill="#EA66FF"/>
<path fill-rule="evenodd" clip-rule="evenodd" d="M551.31 191.92H541.972C539.798 204.773 532.94 378.83 511.77 435.768H626.318C623.835 383.608 604.245 320.951 584.401 268.52C601.948 284.66 617.242 312.009 630.283 350.567L651.739 345.031C635.785 275.931 602.985 225.143 553.339 192.665C553.231 192.416 553.124 192.167 553.018 191.92H552.191C551.887 191.724 551.582 191.528 551.277 191.333L551.31 191.92V191.92Z" fill="#DDE3E9"/>
<path fill-rule="evenodd" clip-rule="evenodd" d="M491.322 557.07C492.441 560.056 493 562.291 493 563.774C493 565.577 492.7 568.208 492.099 571.668C490.007 571.668 471.206 571.668 435.697 571.668C434.231 566.823 435.077 564.207 438.235 563.82C441.393 563.434 444.016 563.085 446.105 562.774L472.32 551.087C472.824 550.862 473.416 551.089 473.641 551.593C473.644 551.602 473.648 551.61 473.652 551.619L475.337 555.707C478.26 557.071 480.636 557.753 482.463 557.753C483.948 557.753 485.999 557.153 488.616 555.953L488.616 555.953C489.62 555.493 490.807 555.934 491.267 556.938C491.287 556.981 491.305 557.025 491.322 557.07Z" fill="#E4E4E4"/>
<path fill-rule="evenodd" clip-rule="evenodd" d="M624.322 557.07C625.441 560.056 626 562.291 626 563.774C626 565.577 625.7 568.208 625.099 571.668C623.007 571.668 604.206 571.668 568.697 571.668C567.231 566.823 568.077 564.207 571.235 563.82C574.393 563.434 577.016 563.085 579.105 562.774L605.32 551.087C605.824 550.862 606.416 551.089 606.641 551.593C606.644 551.602 606.648 551.61 606.652 551.619L608.337 555.707C611.26 557.071 613.636 557.753 615.463 557.753C616.948 557.753 618.999 557.153 621.616 555.953L621.616 555.953C622.62 555.493 623.807 555.934 624.267 556.938C624.287 556.981 624.305 557.025 624.322 557.07Z" fill="#E4E4E4"/>
<path fill-rule="evenodd" clip-rule="evenodd" d="M116.804 191.227C110.48 186.91 105.375 180.91 103.856 173.061C99.4803 150.447 131.958 146.977 141.023 156.554C150.088 166.131 156.98 194.737 149.681 198.838C146.77 200.474 139.588 200.302 131.728 198.07L143.972 226.752L118.86 233.48L116.804 191.227Z" fill="#784931"/>
<path fill-rule="evenodd" clip-rule="evenodd" d="M127.835 147.012C124.126 146.894 119.051 147.877 117.019 148.676C117.452 145.527 117.08 142.246 115.872 139.279C114.698 136.396 112.672 134.216 110.715 131.887C109.812 130.814 108.836 129.767 107.615 129.088C106.372 128.397 104.954 128.1 103.563 128.15C102.14 128.201 100.744 128.602 99.4767 129.242C98.9158 129.525 98.455 129.937 97.9125 130.243C97.357 130.556 96.9684 130.263 96.4358 130.007C95.1521 129.391 93.5037 129.358 92.1411 129.554C90.6124 129.773 89.1347 130.406 87.8514 131.267C86.6023 132.106 85.4859 133.222 84.7896 134.6C84.4795 135.214 84.2286 135.884 84.1341 136.576C84.0953 136.86 84.1181 137.016 83.8863 137.178C83.6719 137.328 83.3947 137.405 83.1716 137.553C81.0141 138.984 79.4736 141.343 78.9945 143.97C78.715 145.503 79.0516 147.979 79.8542 150.64C80.6569 153.301 84.9782 159.649 87.9494 161.591C90.6014 163.324 94.0048 164.024 97.0768 163.907C95.7383 166.599 95.188 169.663 94.9834 172.683C94.7612 175.965 94.9621 179.258 95.5799 182.503C96.1669 185.586 97.003 188.789 98.5109 191.556C99.9213 194.144 101.96 196.031 104.734 196.831C106.005 197.198 107.315 197.378 108.62 197.513C109.907 197.647 111.193 197.768 112.482 197.691C114.922 197.545 117.566 196.749 118.858 194.447C119.324 193.617 119.809 192.601 120.062 191.672C120.153 191.338 120.204 191.122 119.924 190.894C119.588 190.621 119.122 190.468 118.736 190.288C116.536 189.26 114.884 187.544 113.962 185.225C113.027 182.872 112.845 179.56 114.944 177.861C117.535 175.765 121.176 176.399 124.166 177.098C124.235 172.914 125.579 168.803 128.678 166.062C132.107 163.03 136.585 161.582 140.198 158.8C141.14 158.075 142.085 157.286 142.624 156.178C142.85 155.715 143.102 155.125 143.099 154.594C143.095 153.896 142.524 153.462 142.06 153.042C139.598 150.811 131.544 147.129 127.835 147.012Z" fill="#191847"/>
<path fill-rule="evenodd" clip-rule="evenodd" d="M124.587 320.922L163.859 458.205L192.512 559.39H213.411L182.963 320.922H124.587Z" fill="#191847"/>
<path fill-rule="evenodd" clip-rule="evenodd" d="M114.084 320.922C113.176 391.679 110.078 430.272 109.125 436.701C108.171 443.13 93.7497 484.026 65.8612 559.39H87.5108C123.015 487.091 142.834 446.195 146.969 436.701C151.103 427.207 163.863 388.614 183.081 320.922H114.084Z" fill="#2F3676"/>
<path fill-rule="evenodd" clip-rule="evenodd" d="M221.493 209.628L255.383 183.521C260.416 175.227 265.609 168.586 270.96 163.598C272.668 162.549 275.788 161.589 273.615 167.371C271.442 173.153 269.415 179.333 271.185 180.734C272.954 182.136 276.396 179.257 278.624 181.696C280.109 183.323 274.071 187.198 260.509 193.323L237.397 222.223L221.493 209.628ZM56.4999 345.5L72 348.5C71.5002 367.854 67.9999 345.78 64.5 375.5C63.5323 380.402 77.5 395.5 67 391C63.0001 387 63.4451 384.401 60.5 392.5C58.5 398 53.5001 399.5 50.5 397.5C47.9695 395.813 48 387.5 49.5 383.5C51.7207 377.578 51.5325 379.402 52.5 377C55 365.5 56.4999 356.5 56.4999 345.5Z" fill="#B28B67"/>
<path fill-rule="evenodd" clip-rule="evenodd" d="M119.446 233.679L116.857 223.019C162.667 219.742 208.172 209.682 249.384 184.98L266.531 197.286C239.103 220.989 224.23 243.597 181.312 247.705C169.348 248.85 139.787 241.152 119.446 233.679Z" fill="#C5CFD6"/>
<path fill-rule="evenodd" clip-rule="evenodd" d="M109.826 333.907C143.987 331.532 170.385 326.877 189.019 319.943C191.328 319.084 191.003 315.043 189.421 312.54C164.783 273.567 146.504 238.994 141.358 209.814C138.476 211.957 132.985 213.171 124.885 213.454C108.944 247.27 105.263 283.495 109.826 333.907Z" fill="#323337"/>
<path fill-rule="evenodd" clip-rule="evenodd" d="M119.159 211.865L128.012 210.304C132.201 222.004 167.508 384.222 197.002 434.123L88.3999 453.273C82.1221 403.902 90.3257 341.819 100.463 289.291C86.4975 307.374 76.5235 335.599 70.5408 373.968L49.2821 372.359C52.9717 304.837 75.6641 251.685 117.359 212.903C117.42 212.651 117.48 212.4 117.54 212.15L118.324 212.012C118.579 211.777 118.836 211.543 119.093 211.309L119.159 211.865V211.865Z" fill="#DDE3E9"/>
<path fill-rule="evenodd" clip-rule="evenodd" d="M190 569.286L190.86 554.81C195.896 556.347 202.203 555.744 209.782 553C217.931 559.026 228.19 563.141 240.558 565.345C241.502 565.513 242.136 566.448 241.975 567.433C241.965 567.497 241.951 567.56 241.934 567.622L240.745 572H209.782H191.72L190 569.286Z" fill="#E4E4E4"/>
<path fill-rule="evenodd" clip-rule="evenodd" d="M64 571.286L64.8601 556.81C69.8958 558.347 76.203 557.744 83.7819 555C91.9311 561.026 102.19 565.141 114.558 567.345C115.502 567.513 116.136 568.448 115.975 569.433C115.965 569.497 115.951 569.56 115.934 569.622L114.745 574H83.7819H65.7202L64 571.286Z" fill="#E4E4E4"/>
<path d="M300.663 160.907C302.738 160.907 304.42 159.225 304.42 157.15C304.42 155.074 302.738 153.392 300.663 153.392C298.588 153.392 296.905 155.074 296.905 157.15C296.905 159.225 298.588 160.907 300.663 160.907Z" fill="#FFE07D"/>
<path d="M401.337 202.608C403.412 202.608 405.095 200.926 405.095 198.851C405.095 196.775 403.412 195.093 401.337 195.093C399.262 195.093 397.58 196.775 397.58 198.851C397.58 200.926 399.262 202.608 401.337 202.608Z" fill="#FFE07D"/>
<path d="M330.15 232.095C332.225 232.095 333.907 230.412 333.907 228.337C333.907 226.262 332.225 224.58 330.15 224.58C328.074 224.58 326.392 226.262 326.392 228.337C326.392 230.412 328.074 232.095 330.15 232.095Z" fill="#FFE07D"/>
<path d="M371.85 131.42C373.926 131.42 375.608 129.738 375.608 127.663C375.608 125.588 373.926 123.905 371.85 123.905C369.775 123.905 368.093 125.588 368.093 127.663C368.093 129.738 369.775 131.42 371.85 131.42Z" fill="#FFE07D"/>
<path d="M300.663 202.608C302.738 202.608 304.42 200.926 304.42 198.851C304.42 196.775 302.738 195.093 300.663 195.093C298.588 195.093 296.905 196.775 296.905 198.851C296.905 200.926 298.588 202.608 300.663 202.608Z" fill="#FFE07D"/>
<path d="M401.337 160.907C403.412 160.907 405.095 159.225 405.095 157.15C405.095 155.074 403.412 153.392 401.337 153.392C399.262 153.392 397.58 155.074 397.58 157.15C397.58 159.225 399.262 160.907 401.337 160.907Z" fill="#FFE07D"/>
<path d="M371.85 232.095C373.926 232.095 375.608 230.412 375.608 228.337C375.608 226.262 373.926 224.58 371.85 224.58C369.775 224.58 368.093 226.262 368.093 228.337C368.093 230.412 369.775 232.095 371.85 232.095Z" fill="#FFE07D"/>
<path d="M330.15 131.42C332.225 131.42 333.907 129.738 333.907 127.663C333.907 125.588 332.225 123.905 330.15 123.905C328.074 123.905 326.392 125.588 326.392 127.663C326.392 129.738 328.074 131.42 330.15 131.42Z" fill="#FFE07D"/>
<path d="M312.473 143.231C314.549 143.231 316.231 141.549 316.231 139.473C316.231 137.398 314.549 135.716 312.473 135.716C310.398 135.716 308.716 137.398 308.716 139.473C308.716 141.549 310.398 143.231 312.473 143.231Z" fill="#FFE07D"/>
<path d="M389.527 220.284C391.602 220.284 393.284 218.602 393.284 216.527C393.284 214.451 391.602 212.769 389.527 212.769C387.451 212.769 385.769 214.451 385.769 216.527C385.769 218.602 387.451 220.284 389.527 220.284Z" fill="#FFE07D"/>
<path d="M312.473 220.284C314.549 220.284 316.231 218.602 316.231 216.527C316.231 214.451 314.549 212.769 312.473 212.769C310.398 212.769 308.716 214.451 308.716 216.527C308.716 218.602 310.398 220.284 312.473 220.284Z" fill="#FFE07D"/>
<path d="M389.527 143.231C391.602 143.231 393.284 141.549 393.284 139.473C393.284 137.398 391.602 135.716 389.527 135.716C387.451 135.716 385.769 137.398 385.769 139.473C385.769 141.549 387.451 143.231 389.527 143.231Z" fill="#FFE07D"/>
<path d="M296.515 181.757C298.591 181.757 300.273 180.075 300.273 178C300.273 175.925 298.591 174.242 296.515 174.242C294.44 174.242 292.758 175.925 292.758 178C292.758 180.075 294.44 181.757 296.515 181.757Z" fill="#FFE07D"/>
<path d="M405.485 181.757C407.56 181.757 409.242 180.075 409.242 178C409.242 175.925 407.56 174.242 405.485 174.242C403.409 174.242 401.727 175.925 401.727 178C401.727 180.075 403.409 181.757 405.485 181.757Z" fill="#FFE07D"/>
<path d="M351 236.242C353.075 236.242 354.758 234.56 354.758 232.485C354.758 230.409 353.075 228.727 351 228.727C348.925 228.727 347.243 230.409 347.243 232.485C347.243 234.56 348.925 236.242 351 236.242Z" fill="#FFE07D"/>
<path d="M351 127.273C353.075 127.273 354.758 125.591 354.758 123.515C354.758 121.44 353.075 119.758 351 119.758C348.925 119.758 347.243 121.44 347.243 123.515C347.243 125.591 348.925 127.273 351 127.273Z" fill="#FFE07D"/>
<path d="M351 217.454C372.79 217.454 390.454 199.79 390.454 178C390.454 156.21 372.79 138.546 351 138.546C329.21 138.546 311.546 156.21 311.546 178C311.546 199.79 329.21 217.454 351 217.454Z" fill="#FF8086"/>
<path d="M351 170.485C353.075 170.485 354.758 168.802 354.758 166.727C354.758 164.652 353.075 162.97 351 162.97C348.925 162.97 347.243 164.652 347.243 166.727C347.243 168.802 348.925 170.485 351 170.485Z" fill="#FFE07D"/>
<path d="M351 193.03C353.075 193.03 354.758 191.348 354.758 189.273C354.758 187.198 353.075 185.515 351 185.515C348.925 185.515 347.243 187.198 347.243 189.273C347.243 191.348 348.925 193.03 351 193.03Z" fill="#FFE07D"/>
<path d="M362.273 181.757C364.348 181.757 366.03 180.075 366.03 178C366.03 175.925 364.348 174.242 362.273 174.242C360.198 174.242 358.515 175.925 358.515 178C358.515 180.075 360.198 181.757 362.273 181.757Z" fill="#FFE07D"/>
<path d="M339.727 181.757C341.802 181.757 343.485 180.075 343.485 178C343.485 175.925 341.802 174.242 339.727 174.242C337.652 174.242 335.97 175.925 335.97 178C335.97 180.075 337.652 181.757 339.727 181.757Z" fill="#FFE07D"/>
<path d="M351 153.576C353.075 153.576 354.758 151.893 354.758 149.818C354.758 147.743 353.075 146.061 351 146.061C348.925 146.061 347.243 147.743 347.243 149.818C347.243 151.893 348.925 153.576 351 153.576Z" fill="#FFE07D"/>
<path d="M351 209.939C353.075 209.939 354.758 208.257 354.758 206.182C354.758 204.107 353.075 202.424 351 202.424C348.925 202.424 347.243 204.107 347.243 206.182C347.243 208.257 348.925 209.939 351 209.939Z" fill="#FFE07D"/>
<path d="M379.182 181.757C381.257 181.757 382.939 180.075 382.939 178C382.939 175.925 381.257 174.242 379.182 174.242C377.107 174.242 375.424 175.925 375.424 178C375.424 180.075 377.107 181.757 379.182 181.757Z" fill="#FFE07D"/>
<path d="M322.818 181.757C324.893 181.757 326.576 180.075 326.576 178C326.576 175.925 324.893 174.242 322.818 174.242C320.743 174.242 319.061 175.925 319.061 178C319.061 180.075 320.743 181.757 322.818 181.757Z" fill="#FFE07D"/>
<path d="M370.927 201.685C373.003 201.685 374.685 200.003 374.685 197.928C374.685 195.852 373.003 194.17 370.927 194.17C368.852 194.17 367.17 195.852 367.17 197.928C367.17 200.003 368.852 201.685 370.927 201.685Z" fill="#FFE07D"/>
<path d="M331.072 161.83C333.148 161.83 334.83 160.148 334.83 158.073C334.83 155.997 333.148 154.315 331.072 154.315C328.997 154.315 327.315 155.997 327.315 158.073C327.315 160.148 328.997 161.83 331.072 161.83Z" fill="#FFE07D"/>
<path d="M331.072 201.685C333.148 201.685 334.83 200.003 334.83 197.928C334.83 195.852 333.148 194.17 331.072 194.17C328.997 194.17 327.315 195.852 327.315 197.928C327.315 200.003 328.997 201.685 331.072 201.685Z" fill="#FFE07D"/>
<path d="M370.927 161.83C373.003 161.83 374.685 160.148 374.685 158.073C374.685 155.997 373.003 154.315 370.927 154.315C368.852 154.315 367.17 155.997 367.17 158.073C367.17 160.148 368.852 161.83 370.927 161.83Z" fill="#FFE07D"/>
<path d="M351 144.303C347.959 144.303 345.485 146.777 345.485 149.818C345.485 152.859 347.959 155.334 351 155.334C354.041 155.334 356.515 152.859 356.515 149.818C356.515 146.777 354.041 144.303 351 144.303V144.303ZM351 151.818C349.897 151.818 349 150.921 349 149.818C349 148.716 349.897 147.819 351 147.819C352.102 147.819 353 148.716 353 149.818C353 150.921 352.103 151.818 351 151.818V151.818Z" fill="black"/>
<path d="M351 200.666C347.959 200.666 345.485 203.141 345.485 206.182C345.485 209.223 347.959 211.697 351 211.697C354.041 211.697 356.515 209.223 356.515 206.182C356.515 203.141 354.041 200.666 351 200.666V200.666ZM351 208.181C349.897 208.181 349 207.284 349 206.182C349 205.079 349.897 204.182 351 204.182C352.102 204.182 353 205.079 353 206.182C353 207.284 352.103 208.181 351 208.181V208.181Z" fill="black"/>
<mask id="path-54-inside-1" fill="white">
<path d="M400.258 179.758C400.994 181.939 403.058 183.515 405.485 183.515C408.526 183.515 411 181.041 411 178C411 174.959 408.526 172.485 405.485 172.485C403.058 172.485 400.994 174.061 400.258 176.242H392.17C392.105 174.709 391.959 173.189 391.728 171.691L395.567 170.927C396.519 170.738 397.138 169.812 396.949 168.86C396.759 167.908 395.833 167.29 394.882 167.479L391.042 168.243C390.681 166.756 390.237 165.295 389.716 163.866L397.183 160.773C397.735 161.407 398.427 161.914 399.227 162.245C399.907 162.527 400.622 162.668 401.337 162.668C402.052 162.668 402.767 162.527 403.448 162.245C404.809 161.681 405.869 160.621 406.433 159.26C406.997 157.899 406.996 156.4 406.433 155.039C405.869 153.677 404.809 152.618 403.448 152.054C402.087 151.49 400.588 151.49 399.227 152.054C397.866 152.618 396.806 153.677 396.242 155.039C395.911 155.838 395.779 156.686 395.838 157.525L388.372 160.617C387.729 159.233 387.009 157.887 386.216 156.583L389.468 154.41C390.276 153.871 390.493 152.779 389.953 151.972C389.414 151.165 388.323 150.948 387.515 151.487L384.261 153.662C383.362 152.434 382.394 151.254 381.358 150.127L387.072 144.414C387.825 144.789 388.66 144.989 389.527 144.989C391 144.989 392.385 144.415 393.427 143.373C394.468 142.331 395.042 140.946 395.042 139.473C395.042 138 394.468 136.615 393.427 135.573C392.385 134.532 391 133.958 389.527 133.958C388.054 133.958 386.668 134.531 385.627 135.573C383.911 137.289 383.569 139.861 384.59 141.924L378.874 147.64C377.756 146.615 376.575 145.649 375.336 144.742L377.513 141.485C378.052 140.677 377.835 139.586 377.028 139.046C376.221 138.507 375.129 138.724 374.59 139.531C374.59 139.531 371.489 144.15 371.451 144.206C370.911 145.013 371.127 146.105 371.934 146.645C382.43 153.667 388.697 165.389 388.697 177.999C388.697 198.785 371.786 215.696 351 215.696C330.214 215.696 313.303 198.786 313.303 178C313.303 157.214 330.214 140.303 351 140.303C355.999 140.303 360.854 141.265 365.429 143.163C366.323 143.534 367.347 143.112 367.722 142.221H367.722L371.474 133.164C371.597 133.172 371.72 133.178 371.843 133.178C374.008 133.178 376.067 131.895 376.946 129.773C378.109 126.964 376.77 123.731 373.961 122.567C372.6 122.004 371.101 122.003 369.739 122.567C368.378 123.131 367.318 124.191 366.755 125.552C366.191 126.913 366.191 128.412 366.755 129.773C367.086 130.573 367.592 131.265 368.227 131.817L365.136 139.279C363.699 138.753 362.239 138.31 360.758 137.951L361.521 134.118C361.71 133.166 361.092 132.241 360.139 132.051C359.187 131.862 358.262 132.481 358.072 133.433L357.31 137.268C355.808 137.038 354.29 136.89 352.758 136.827V128.742C354.939 128.006 356.515 125.942 356.515 123.515C356.515 120.474 354.041 118 351 118C347.959 118 345.485 120.474 345.485 123.515C345.485 125.942 347.061 128.006 349.242 128.742V136.828C347.702 136.893 346.183 137.04 344.691 137.271L343.927 133.433C343.738 132.481 342.813 131.863 341.86 132.052C340.908 132.241 340.29 133.166 340.479 134.119L341.243 137.958C339.751 138.321 338.29 138.764 336.866 139.285L333.773 131.817C334.407 131.265 334.914 130.573 335.245 129.774C335.809 128.412 335.809 126.913 335.245 125.552C334.681 124.191 333.621 123.131 332.26 122.567C330.899 122.004 329.4 122.004 328.039 122.567C325.229 123.731 323.89 126.964 325.054 129.774C325.933 131.895 327.991 133.178 330.157 133.178C330.279 133.178 330.402 133.173 330.526 133.164L333.621 140.637C332.235 141.284 330.889 142.005 329.592 142.797L327.41 139.532C326.871 138.725 325.78 138.508 324.972 139.047C324.165 139.586 323.948 140.678 324.487 141.485L326.673 144.756C325.443 145.659 324.264 146.627 323.143 147.657L317.41 141.924C318.431 139.861 318.089 137.289 316.373 135.574C315.332 134.532 313.947 133.958 312.473 133.958C311 133.958 309.615 134.532 308.573 135.574C307.532 136.615 306.958 138 306.958 139.474C306.958 140.947 307.532 142.332 308.573 143.374C309.615 144.415 311 144.989 312.473 144.989C313.34 144.989 314.175 144.789 314.928 144.414L320.657 150.143C319.627 151.264 318.658 152.443 317.756 153.673L314.485 151.488C313.678 150.948 312.586 151.165 312.047 151.973C311.508 152.78 311.725 153.871 312.532 154.411L315.796 156.592C315.004 157.89 314.284 159.235 313.637 160.622L306.162 157.526C306.221 156.687 306.089 155.839 305.758 155.04C305.194 153.678 304.134 152.619 302.773 152.055C301.412 151.491 299.913 151.491 298.552 152.055C297.191 152.619 296.131 153.678 295.567 155.039C295.004 156.4 295.003 157.9 295.567 159.261C296.131 160.622 297.191 161.682 298.552 162.246C299.233 162.528 299.948 162.668 300.663 162.668C301.378 162.668 302.093 162.528 302.773 162.246C303.573 161.914 304.265 161.408 304.817 160.774L312.285 163.867C311.763 165.29 311.321 166.752 310.958 168.243L307.119 167.48C306.166 167.29 305.241 167.909 305.052 168.861C304.862 169.813 305.481 170.738 306.433 170.928L310.271 171.691C310.04 173.183 309.893 174.703 309.828 176.243H301.742C301.006 174.061 298.942 172.485 296.515 172.485C293.474 172.485 291 174.959 291 178C291 181.041 293.474 183.515 296.515 183.515C298.942 183.515 301.006 181.939 301.742 179.758H309.828C309.893 181.298 310.04 182.817 310.271 184.309L306.433 185.073C305.481 185.262 304.862 186.188 305.052 187.14C305.218 187.976 305.952 188.555 306.774 188.555C306.888 188.555 307.003 188.544 307.119 188.521L310.958 187.757C311.321 189.249 311.764 190.71 312.285 192.134L304.817 195.227C304.265 194.592 303.573 194.086 302.773 193.755C301.412 193.191 299.913 193.191 298.552 193.755C297.191 194.318 296.131 195.378 295.567 196.739C295.003 198.101 295.003 199.6 295.567 200.961C296.131 202.322 297.191 203.382 298.552 203.946C299.232 204.228 299.948 204.369 300.663 204.369C301.377 204.369 302.093 204.227 302.773 203.946C304.134 203.382 305.194 202.322 305.758 200.961C306.089 200.161 306.22 199.314 306.162 198.475L313.637 195.379C314.284 196.765 315.004 198.111 315.796 199.408L312.532 201.589C311.724 202.129 311.507 203.22 312.047 204.028C312.386 204.535 312.942 204.809 313.51 204.809C313.845 204.809 314.185 204.713 314.485 204.512L317.756 202.327C318.658 203.557 319.627 204.736 320.657 205.857L314.928 211.586C314.175 211.211 313.34 211.011 312.473 211.011C311 211.011 309.615 211.585 308.573 212.626C307.532 213.668 306.958 215.053 306.958 216.526C306.958 218 307.532 219.385 308.573 220.426C309.615 221.468 311 222.042 312.473 222.042C313.946 222.042 315.332 221.468 316.373 220.426C318.089 218.711 318.431 216.139 317.41 214.076L323.143 208.343C324.264 209.373 325.443 210.341 326.673 211.244L324.487 214.515C323.948 215.322 324.165 216.414 324.972 216.953C325.272 217.154 325.612 217.25 325.947 217.25C326.515 217.25 327.071 216.975 327.41 216.468L329.592 213.203C330.889 213.995 332.235 214.716 333.621 215.363L330.526 222.836C328.229 222.681 325.983 223.985 325.054 226.226C323.891 229.036 325.23 232.269 328.039 233.432C328.72 233.714 329.435 233.855 330.15 233.855C330.865 233.855 331.58 233.714 332.26 233.432C333.621 232.869 334.681 231.809 335.245 230.448C335.809 229.087 335.809 227.587 335.245 226.226C334.914 225.427 334.407 224.735 333.773 224.183L336.866 216.715C338.29 217.236 339.751 217.679 341.243 218.042L340.479 221.881C340.29 222.833 340.908 223.759 341.86 223.948C341.976 223.971 342.091 223.982 342.205 223.982C343.027 223.982 343.761 223.404 343.927 222.567L344.691 218.729C346.183 218.96 347.702 219.107 349.242 219.172V227.258C347.061 227.994 345.485 230.058 345.485 232.485C345.485 235.526 347.959 238 351 238C354.041 238 356.515 235.526 356.515 232.485C356.515 230.058 354.939 227.994 352.758 227.258V219.172C354.298 219.107 355.817 218.96 357.309 218.729L358.073 222.567C358.239 223.404 358.973 223.982 359.795 223.982C359.909 223.982 360.024 223.971 360.14 223.948C361.092 223.759 361.71 222.834 361.521 221.881L360.757 218.042C362.249 217.679 363.71 217.236 365.134 216.715L368.227 224.183C367.593 224.735 367.086 225.427 366.755 226.226C366.191 227.588 366.191 229.087 366.755 230.448C367.319 231.809 368.379 232.869 369.74 233.433C370.42 233.715 371.135 233.856 371.85 233.856C372.565 233.856 373.28 233.714 373.961 233.433C376.77 232.269 378.109 229.036 376.946 226.226C376.017 223.985 373.771 222.681 371.474 222.836L368.379 215.363C369.765 214.716 371.111 213.995 372.408 213.203L374.589 216.468C374.928 216.975 375.485 217.25 376.053 217.25C376.388 217.25 376.728 217.154 377.028 216.953C377.835 216.414 378.052 215.322 377.512 214.515L375.327 211.244C376.557 210.341 377.736 209.373 378.857 208.343L384.59 214.076C383.568 216.139 383.911 218.711 385.626 220.426C386.668 221.468 388.053 222.042 389.526 222.042C390.999 222.042 392.384 221.468 393.426 220.426C394.468 219.385 395.042 218 395.042 216.526C395.042 215.053 394.468 213.668 393.426 212.626C392.385 211.585 390.999 211.011 389.526 211.011C388.66 211.011 387.825 211.211 387.071 211.586L381.343 205.857C382.373 204.736 383.341 203.557 384.244 202.327L387.514 204.512C387.814 204.713 388.154 204.809 388.489 204.809C389.057 204.809 389.614 204.535 389.953 204.027C390.492 203.22 390.275 202.129 389.468 201.589L386.203 199.408C386.995 198.11 387.715 196.765 388.363 195.379L395.837 198.475C395.779 199.314 395.91 200.161 396.241 200.961C396.805 202.322 397.865 203.382 399.226 203.946C399.907 204.227 400.622 204.368 401.337 204.368C402.052 204.368 402.767 204.227 403.448 203.946C404.809 203.382 405.869 202.322 406.432 200.961C406.996 199.6 406.996 198.1 406.432 196.739C405.869 195.378 404.808 194.318 403.447 193.755C402.086 193.191 400.587 193.191 399.226 193.755C398.426 194.086 397.734 194.592 397.182 195.227L389.715 192.134C390.236 190.71 390.678 189.249 391.042 187.757L394.881 188.521C394.996 188.544 395.112 188.555 395.225 188.555C396.047 188.555 396.781 187.976 396.948 187.14C397.137 186.188 396.519 185.262 395.566 185.073L391.729 184.309C391.959 182.817 392.107 181.298 392.171 179.758H400.258ZM399.49 156.384C399.694 155.891 400.078 155.506 400.572 155.302C400.819 155.2 401.078 155.149 401.337 155.149C401.596 155.149 401.856 155.2 402.103 155.302C402.596 155.506 402.98 155.891 403.185 156.384C403.389 156.878 403.389 157.421 403.185 157.915C402.98 158.408 402.596 158.792 402.102 158.997C401.609 159.201 401.066 159.201 400.572 158.997C400.079 158.792 399.694 158.408 399.49 157.915C399.285 157.421 399.285 156.878 399.49 156.384V156.384ZM328.302 128.428C327.88 127.409 328.366 126.237 329.385 125.815C329.631 125.713 329.891 125.662 330.15 125.662C330.409 125.662 330.668 125.713 330.915 125.815C331.408 126.02 331.793 126.404 331.997 126.898C332.202 127.391 332.202 127.935 331.997 128.428C331.793 128.921 331.409 129.306 330.915 129.51H330.915C330.915 129.51 330.915 129.51 330.915 129.51C329.896 129.932 328.724 129.447 328.302 128.428V128.428ZM370.003 126.897C370.207 126.404 370.592 126.02 371.085 125.815C371.332 125.713 371.591 125.662 371.85 125.662C372.109 125.662 372.369 125.713 372.615 125.815C373.634 126.237 374.12 127.409 373.698 128.428C373.276 129.446 372.104 129.932 371.085 129.51C371.085 129.51 371.085 129.51 371.085 129.51C371.085 129.51 371.085 129.51 371.085 129.51C370.591 129.305 370.207 128.921 370.003 128.428C369.799 127.935 369.799 127.391 370.003 126.897V126.897ZM351 121.516C352.103 121.516 353 122.413 353 123.515C353 124.618 352.102 125.515 351 125.515C349.898 125.515 349 124.618 349 123.515C349 122.413 349.897 121.516 351 121.516V121.516ZM301.428 158.997C300.934 159.202 300.391 159.202 299.898 158.997C299.404 158.793 299.02 158.408 298.815 157.915C298.611 157.422 298.611 156.878 298.815 156.385C299.02 155.891 299.404 155.507 299.897 155.302C300.144 155.2 300.403 155.149 300.663 155.149C300.922 155.149 301.181 155.2 301.428 155.302C301.921 155.507 302.306 155.891 302.51 156.385C302.715 156.878 302.715 157.422 302.51 157.915C302.306 158.408 301.922 158.793 301.428 158.997V158.997ZM302.51 199.616C302.306 200.109 301.922 200.494 301.428 200.698C300.934 200.903 300.391 200.903 299.897 200.698C299.404 200.494 299.02 200.109 298.815 199.616C298.611 199.122 298.611 198.579 298.815 198.085C299.02 197.592 299.404 197.207 299.898 197.003C300.144 196.901 300.404 196.85 300.663 196.85C300.922 196.85 301.181 196.901 301.428 197.003C301.921 197.207 302.306 197.592 302.51 198.085C302.715 198.579 302.715 199.122 302.51 199.616ZM311.059 140.887C310.682 140.51 310.474 140.008 310.474 139.473C310.474 138.939 310.682 138.437 311.059 138.059C311.437 137.682 311.939 137.474 312.473 137.474C313.008 137.474 313.51 137.682 313.887 138.059C314.667 138.839 314.667 140.108 313.887 140.887C313.51 141.265 313.008 141.473 312.473 141.473C311.939 141.473 311.437 141.265 311.059 140.887ZM296.515 180C295.413 180 294.516 179.102 294.516 178C294.516 176.898 295.413 176 296.515 176C297.618 176 298.515 176.898 298.515 178C298.515 179.102 297.618 180 296.515 180V180ZM313.888 217.941C313.51 218.318 313.008 218.526 312.474 218.526C311.94 218.526 311.437 218.318 311.06 217.941C310.682 217.563 310.474 217.061 310.474 216.527C310.474 215.992 310.682 215.49 311.06 215.113C311.437 214.735 311.94 214.527 312.474 214.527C313.008 214.527 313.51 214.735 313.888 215.113C314.667 215.892 314.667 217.161 313.888 217.941V217.941ZM331.997 229.103C331.793 229.596 331.408 229.98 330.915 230.185C330.422 230.389 329.878 230.389 329.385 230.185C328.366 229.763 327.88 228.591 328.302 227.572C328.724 226.554 329.896 226.068 330.914 226.489C330.914 226.489 330.915 226.49 330.915 226.49C330.915 226.49 330.916 226.49 330.916 226.49C331.409 226.695 331.793 227.079 331.997 227.572C332.201 228.065 332.201 228.609 331.997 229.103V229.103ZM373.698 227.572C374.12 228.591 373.634 229.763 372.615 230.185C372.122 230.389 371.579 230.389 371.085 230.185C370.592 229.98 370.207 229.596 370.003 229.102C369.798 228.609 369.798 228.065 370.003 227.572C370.207 227.079 370.591 226.694 371.085 226.49H371.085C371.085 226.49 371.085 226.49 371.085 226.49C371.335 226.386 371.593 226.338 371.847 226.338C372.633 226.337 373.379 226.803 373.698 227.572V227.572ZM351 234.484C349.897 234.484 349 233.587 349 232.485C349 231.382 349.898 230.485 351 230.485C352.102 230.485 353 231.382 353 232.485C353 233.587 352.103 234.484 351 234.484V234.484ZM400.572 197.003C401.066 196.798 401.609 196.798 402.102 197.003C402.596 197.207 402.98 197.592 403.185 198.085C403.389 198.578 403.389 199.122 403.185 199.615C402.98 200.109 402.596 200.493 402.103 200.698C401.609 200.902 401.066 200.902 400.572 200.698C400.079 200.493 399.694 200.109 399.49 199.615C399.285 199.122 399.285 198.578 399.49 198.085C399.694 197.592 400.078 197.207 400.572 197.003V197.003ZM405.485 176C406.587 176 407.484 176.898 407.484 178C407.484 179.102 406.587 180 405.485 180C404.382 180 403.485 179.102 403.485 178C403.485 176.898 404.382 176 405.485 176ZM388.112 138.059C388.49 137.682 388.992 137.474 389.526 137.474C390.06 137.474 390.562 137.682 390.94 138.059C391.318 138.437 391.526 138.939 391.526 139.473C391.526 140.008 391.318 140.51 390.94 140.887C390.562 141.265 390.06 141.473 389.526 141.473C388.992 141.473 388.49 141.265 388.112 140.887C387.333 140.108 387.333 138.839 388.112 138.059ZM390.941 215.113C391.318 215.49 391.526 215.992 391.526 216.527C391.526 217.061 391.318 217.563 390.941 217.941C390.563 218.318 390.061 218.526 389.527 218.526C388.992 218.526 388.49 218.318 388.113 217.941C387.333 217.161 387.333 215.892 388.113 215.113C388.49 214.735 388.992 214.527 389.527 214.527C390.061 214.527 390.563 214.735 390.941 215.113V215.113Z"/>
</mask>
<path d="M400.258 179.758C400.994 181.939 403.058 183.515 405.485 183.515C408.526 183.515 411 181.041 411 178C411 174.959 408.526 172.485 405.485 172.485C403.058 172.485 400.994 174.061 400.258 176.242H392.17C392.105 174.709 391.959 173.189 391.728 171.691L395.567 170.927C396.519 170.738 397.138 169.812 396.949 168.86C396.759 167.908 395.833 167.29 394.882 167.479L391.042 168.243C390.681 166.756 390.237 165.295 389.716 163.866L397.183 160.773C397.735 161.407 398.427 161.914 399.227 162.245C399.907 162.527 400.622 162.668 401.337 162.668C402.052 162.668 402.767 162.527 403.448 162.245C404.809 161.681 405.869 160.621 406.433 159.26C406.997 157.899 406.996 156.4 406.433 155.039C405.869 153.677 404.809 152.618 403.448 152.054C402.087 151.49 400.588 151.49 399.227 152.054C397.866 152.618 396.806 153.677 396.242 155.039C395.911 155.838 395.779 156.686 395.838 157.525L388.372 160.617C387.729 159.233 387.009 157.887 386.216 156.583L389.468 154.41C390.276 153.871 390.493 152.779 389.953 151.972C389.414 151.165 388.323 150.948 387.515 151.487L384.261 153.662C383.362 152.434 382.394 151.254 381.358 150.127L387.072 144.414C387.825 144.789 388.66 144.989 389.527 144.989C391 144.989 392.385 144.415 393.427 143.373C394.468 142.331 395.042 140.946 395.042 139.473C395.042 138 394.468 136.615 393.427 135.573C392.385 134.532 391 133.958 389.527 133.958C388.054 133.958 386.668 134.531 385.627 135.573C383.911 137.289 383.569 139.861 384.59 141.924L378.874 147.64C377.756 146.615 376.575 145.649 375.336 144.742L377.513 141.485C378.052 140.677 377.835 139.586 377.028 139.046C376.221 138.507 375.129 138.724 374.59 139.531C374.59 139.531 371.489 144.15 371.451 144.206C370.911 145.013 371.127 146.105 371.934 146.645C382.43 153.667 388.697 165.389 388.697 177.999C388.697 198.785 371.786 215.696 351 215.696C330.214 215.696 313.303 198.786 313.303 178C313.303 157.214 330.214 140.303 351 140.303C355.999 140.303 360.854 141.265 365.429 143.163C366.323 143.534 367.347 143.112 367.722 142.221H367.722L371.474 133.164C371.597 133.172 371.72 133.178 371.843 133.178C374.008 133.178 376.067 131.895 376.946 129.773C378.109 126.964 376.77 123.731 373.961 122.567C372.6 122.004 371.101 122.003 369.739 122.567C368.378 123.131 367.318 124.191 366.755 125.552C366.191 126.913 366.191 128.412 366.755 129.773C367.086 130.573 367.592 131.265 368.227 131.817L365.136 139.279C363.699 138.753 362.239 138.31 360.758 137.951L361.521 134.118C361.71 133.166 361.092 132.241 360.139 132.051C359.187 131.862 358.262 132.481 358.072 133.433L357.31 137.268C355.808 137.038 354.29 136.89 352.758 136.827V128.742C354.939 128.006 356.515 125.942 356.515 123.515C356.515 120.474 354.041 118 351 118C347.959 118 345.485 120.474 345.485 123.515C345.485 125.942 347.061 128.006 349.242 128.742V136.828C347.702 136.893 346.183 137.04 344.691 137.271L343.927 133.433C343.738 132.481 342.813 131.863 341.86 132.052C340.908 132.241 340.29 133.166 340.479 134.119L341.243 137.958C339.751 138.321 338.29 138.764 336.866 139.285L333.773 131.817C334.407 131.265 334.914 130.573 335.245 129.774C335.809 128.412 335.809 126.913 335.245 125.552C334.681 124.191 333.621 123.131 332.26 122.567C330.899 122.004 329.4 122.004 328.039 122.567C325.229 123.731 323.89 126.964 325.054 129.774C325.933 131.895 327.991 133.178 330.157 133.178C330.279 133.178 330.402 133.173 330.526 133.164L333.621 140.637C332.235 141.284 330.889 142.005 329.592 142.797L327.41 139.532C326.871 138.725 325.78 138.508 324.972 139.047C324.165 139.586 323.948 140.678 324.487 141.485L326.673 144.756C325.443 145.659 324.264 146.627 323.143 147.657L317.41 141.924C318.431 139.861 318.089 137.289 316.373 135.574C315.332 134.532 313.947 133.958 312.473 133.958C311 133.958 309.615 134.532 308.573 135.574C307.532 136.615 306.958 138 306.958 139.474C306.958 140.947 307.532 142.332 308.573 143.374C309.615 144.415 311 144.989 312.473 144.989C313.34 144.989 314.175 144.789 314.928 144.414L320.657 150.143C319.627 151.264 318.658 152.443 317.756 153.673L314.485 151.488C313.678 150.948 312.586 151.165 312.047 151.973C311.508 152.78 311.725 153.871 312.532 154.411L315.796 156.592C315.004 157.89 314.284 159.235 313.637 160.622L306.162 157.526C306.221 156.687 306.089 155.839 305.758 155.04C305.194 153.678 304.134 152.619 302.773 152.055C301.412 151.491 299.913 151.491 298.552 152.055C297.191 152.619 296.131 153.678 295.567 155.039C295.004 156.4 295.003 157.9 295.567 159.261C296.131 160.622 297.191 161.682 298.552 162.246C299.233 162.528 299.948 162.668 300.663 162.668C301.378 162.668 302.093 162.528 302.773 162.246C303.573 161.914 304.265 161.408 304.817 160.774L312.285 163.867C311.763 165.29 311.321 166.752 310.958 168.243L307.119 167.48C306.166 167.29 305.241 167.909 305.052 168.861C304.862 169.813 305.481 170.738 306.433 170.928L310.271 171.691C310.04 173.183 309.893 174.703 309.828 176.243H301.742C301.006 174.061 298.942 172.485 296.515 172.485C293.474 172.485 291 174.959 291 178C291 181.041 293.474 183.515 296.515 183.515C298.942 183.515 301.006 181.939 301.742 179.758H309.828C309.893 181.298 310.04 182.817 310.271 184.309L306.433 185.073C305.481 185.262 304.862 186.188 305.052 187.14C305.218 187.976 305.952 188.555 306.774 188.555C306.888 188.555 307.003 188.544 307.119 188.521L310.958 187.757C311.321 189.249 311.764 190.71 312.285 192.134L304.817 195.227C304.265 194.592 303.573 194.086 302.773 193.755C301.412 193.191 299.913 193.191 298.552 193.755C297.191 194.318 296.131 195.378 295.567 196.739C295.003 198.101 295.003 199.6 295.567 200.961C296.131 202.322 297.191 203.382 298.552 203.946C299.232 204.228 299.948 204.369 300.663 204.369C301.377 204.369 302.093 204.227 302.773 203.946C304.134 203.382 305.194 202.322 305.758 200.961C306.089 200.161 306.22 199.314 306.162 198.475L313.637 195.379C314.284 196.765 315.004 198.111 315.796 199.408L312.532 201.589C311.724 202.129 311.507 203.22 312.047 204.028C312.386 204.535 312.942 204.809 313.51 204.809C313.845 204.809 314.185 204.713 314.485 204.512L317.756 202.327C318.658 203.557 319.627 204.736 320.657 205.857L314.928 211.586C314.175 211.211 313.34 211.011 312.473 211.011C311 211.011 309.615 211.585 308.573 212.626C307.532 213.668 306.958 215.053 306.958 216.526C306.958 218 307.532 219.385 308.573 220.426C309.615 221.468 311 222.042 312.473 222.042C313.946 222.042 315.332 221.468 316.373 220.426C318.089 218.711 318.431 216.139 317.41 214.076L323.143 208.343C324.264 209.373 325.443 210.341 326.673 211.244L324.487 214.515C323.948 215.322 324.165 216.414 324.972 216.953C325.272 217.154 325.612 217.25 325.947 217.25C326.515 217.25 327.071 216.975 327.41 216.468L329.592 213.203C330.889 213.995 332.235 214.716 333.621 215.363L330.526 222.836C328.229 222.681 325.983 223.985 325.054 226.226C323.891 229.036 325.23 232.269 328.039 233.432C328.72 233.714 329.435 233.855 330.15 233.855C330.865 233.855 331.58 233.714 332.26 233.432C333.621 232.869 334.681 231.809 335.245 230.448C335.809 229.087 335.809 227.587 335.245 226.226C334.914 225.427 334.407 224.735 333.773 224.183L336.866 216.715C338.29 217.236 339.751 217.679 341.243 218.042L340.479 221.881C340.29 222.833 340.908 223.759 341.86 223.948C341.976 223.971 342.091 223.982 342.205 223.982C343.027 223.982 343.761 223.404 343.927 222.567L344.691 218.729C346.183 218.96 347.702 219.107 349.242 219.172V227.258C347.061 227.994 345.485 230.058 345.485 232.485C345.485 235.526 347.959 238 351 238C354.041 238 356.515 235.526 356.515 232.485C356.515 230.058 354.939 227.994 352.758 227.258V219.172C354.298 219.107 355.817 218.96 357.309 218.729L358.073 222.567C358.239 223.404 358.973 223.982 359.795 223.982C359.909 223.982 360.024 223.971 360.14 223.948C361.092 223.759 361.71 222.834 361.521 221.881L360.757 218.042C362.249 217.679 363.71 217.236 365.134 216.715L368.227 224.183C367.593 224.735 367.086 225.427 366.755 226.226C366.191 227.588 366.191 229.087 366.755 230.448C367.319 231.809 368.379 232.869 369.74 233.433C370.42 233.715 371.135 233.856 371.85 233.856C372.565 233.856 373.28 233.714 373.961 233.433C376.77 232.269 378.109 229.036 376.946 226.226C376.017 223.985 373.771 222.681 371.474 222.836L368.379 215.363C369.765 214.716 371.111 213.995 372.408 213.203L374.589 216.468C374.928 216.975 375.485 217.25 376.053 217.25C376.388 217.25 376.728 217.154 377.028 216.953C377.835 216.414 378.052 215.322 377.512 214.515L375.327 211.244C376.557 210.341 377.736 209.373 378.857 208.343L384.59 214.076C383.568 216.139 383.911 218.711 385.626 220.426C386.668 221.468 388.053 222.042 389.526 222.042C390.999 222.042 392.384 221.468 393.426 220.426C394.468 219.385 395.042 218 395.042 216.526C395.042 215.053 394.468 213.668 393.426 212.626C392.385 211.585 390.999 211.011 389.526 211.011C388.66 211.011 387.825 211.211 387.071 211.586L381.343 205.857C382.373 204.736 383.341 203.557 384.244 202.327L387.514 204.512C387.814 204.713 388.154 204.809 388.489 204.809C389.057 204.809 389.614 204.535 389.953 204.027C390.492 203.22 390.275 202.129 389.468 201.589L386.203 199.408C386.995 198.11 387.715 196.765 388.363 195.379L395.837 198.475C395.779 199.314 395.91 200.161 396.241 200.961C396.805 202.322 397.865 203.382 399.226 203.946C399.907 204.227 400.622 204.368 401.337 204.368C402.052 204.368 402.767 204.227 403.448 203.946C404.809 203.382 405.869 202.322 406.432 200.961C406.996 199.6 406.996 198.1 406.432 196.739C405.869 195.378 404.808 194.318 403.447 193.755C402.086 193.191 400.587 193.191 399.226 193.755C398.426 194.086 397.734 194.592 397.182 195.227L389.715 192.134C390.236 190.71 390.678 189.249 391.042 187.757L394.881 188.521C394.996 188.544 395.112 188.555 395.225 188.555C396.047 188.555 396.781 187.976 396.948 187.14C397.137 186.188 396.519 185.262 395.566 185.073L391.729 184.309C391.959 182.817 392.107 181.298 392.171 179.758H400.258ZM399.49 156.384C399.694 155.891 400.078 155.506 400.572 155.302C400.819 155.2 401.078 155.149 401.337 155.149C401.596 155.149 401.856 155.2 402.103 155.302C402.596 155.506 402.98 155.891 403.185 156.384C403.389 156.878 403.389 157.421 403.185 157.915C402.98 158.408 402.596 158.792 402.102 158.997C401.609 159.201 401.066 159.201 400.572 158.997C400.079 158.792 399.694 158.408 399.49 157.915C399.285 157.421 399.285 156.878 399.49 156.384V156.384ZM328.302 128.428C327.88 127.409 328.366 126.237 329.385 125.815C329.631 125.713 329.891 125.662 330.15 125.662C330.409 125.662 330.668 125.713 330.915 125.815C331.408 126.02 331.793 126.404 331.997 126.898C332.202 127.391 332.202 127.935 331.997 128.428C331.793 128.921 331.409 129.306 330.915 129.51H330.915C330.915 129.51 330.915 129.51 330.915 129.51C329.896 129.932 328.724 129.447 328.302 128.428V128.428ZM370.003 126.897C370.207 126.404 370.592 126.02 371.085 125.815C371.332 125.713 371.591 125.662 371.85 125.662C372.109 125.662 372.369 125.713 372.615 125.815C373.634 126.237 374.12 127.409 373.698 128.428C373.276 129.446 372.104 129.932 371.085 129.51C371.085 129.51 371.085 129.51 371.085 129.51C371.085 129.51 371.085 129.51 371.085 129.51C370.591 129.305 370.207 128.921 370.003 128.428C369.799 127.935 369.799 127.391 370.003 126.897V126.897ZM351 121.516C352.103 121.516 353 122.413 353 123.515C353 124.618 352.102 125.515 351 125.515C349.898 125.515 349 124.618 349 123.515C349 122.413 349.897 121.516 351 121.516V121.516ZM301.428 158.997C300.934 159.202 300.391 159.202 299.898 158.997C299.404 158.793 299.02 158.408 298.815 157.915C298.611 157.422 298.611 156.878 298.815 156.385C299.02 155.891 299.404 155.507 299.897 155.302C300.144 155.2 300.403 155.149 300.663 155.149C300.922 155.149 301.181 155.2 301.428 155.302C301.921 155.507 302.306 155.891 302.51 156.385C302.715 156.878 302.715 157.422 302.51 157.915C302.306 158.408 301.922 158.793 301.428 158.997V158.997ZM302.51 199.616C302.306 200.109 301.922 200.494 301.428 200.698C300.934 200.903 300.391 200.903 299.897 200.698C299.404 200.494 299.02 200.109 298.815 199.616C298.611 199.122 298.611 198.579 298.815 198.085C299.02 197.592 299.404 197.207 299.898 197.003C300.144 196.901 300.404 196.85 300.663 196.85C300.922 196.85 301.181 196.901 301.428 197.003C301.921 197.207 302.306 197.592 302.51 198.085C302.715 198.579 302.715 199.122 302.51 199.616ZM311.059 140.887C310.682 140.51 310.474 140.008 310.474 139.473C310.474 138.939 310.682 138.437 311.059 138.059C311.437 137.682 311.939 137.474 312.473 137.474C313.008 137.474 313.51 137.682 313.887 138.059C314.667 138.839 314.667 140.108 313.887 140.887C313.51 141.265 313.008 141.473 312.473 141.473C311.939 141.473 311.437 141.265 311.059 140.887ZM296.515 180C295.413 180 294.516 179.102 294.516 178C294.516 176.898 295.413 176 296.515 176C297.618 176 298.515 176.898 298.515 178C298.515 179.102 297.618 180 296.515 180V180ZM313.888 217.941C313.51 218.318 313.008 218.526 312.474 218.526C311.94 218.526 311.437 218.318 311.06 217.941C310.682 217.563 310.474 217.061 310.474 216.527C310.474 215.992 310.682 215.49 311.06 215.113C311.437 214.735 311.94 214.527 312.474 214.527C313.008 214.527 313.51 214.735 313.888 215.113C314.667 215.892 314.667 217.161 313.888 217.941V217.941ZM331.997 229.103C331.793 229.596 331.408 229.98 330.915 230.185C330.422 230.389 329.878 230.389 329.385 230.185C328.366 229.763 327.88 228.591 328.302 227.572C328.724 226.554 329.896 226.068 330.914 226.489C330.914 226.489 330.915 226.49 330.915 226.49C330.915 226.49 330.916 226.49 330.916 226.49C331.409 226.695 331.793 227.079 331.997 227.572C332.201 228.065 332.201 228.609 331.997 229.103V229.103ZM373.698 227.572C374.12 228.591 373.634 229.763 372.615 230.185C372.122 230.389 371.579 230.389 371.085 230.185C370.592 229.98 370.207 229.596 370.003 229.102C369.798 228.609 369.798 228.065 370.003 227.572C370.207 227.079 370.591 226.694 371.085 226.49H371.085C371.085 226.49 371.085 226.49 371.085 226.49C371.335 226.386 371.593 226.338 371.847 226.338C372.633 226.337 373.379 226.803 373.698 227.572V227.572ZM351 234.484C349.897 234.484 349 233.587 349 232.485C349 231.382 349.898 230.485 351 230.485C352.102 230.485 353 231.382 353 232.485C353 233.587 352.103 234.484 351 234.484V234.484ZM400.572 197.003C401.066 196.798 401.609 196.798 402.102 197.003C402.596 197.207 402.98 197.592 403.185 198.085C403.389 198.578 403.389 199.122 403.185 199.615C402.98 200.109 402.596 200.493 402.103 200.698C401.609 200.902 401.066 200.902 400.572 200.698C400.079 200.493 399.694 200.109 399.49 199.615C399.285 199.122 399.285 198.578 399.49 198.085C399.694 197.592 400.078 197.207 400.572 197.003V197.003ZM405.485 176C406.587 176 407.484 176.898 407.484 178C407.484 179.102 406.587 180 405.485 180C404.382 180 403.485 179.102 403.485 178C403.485 176.898 404.382 176 405.485 176ZM388.112 138.059C388.49 137.682 388.992 137.474 389.526 137.474C390.06 137.474 390.562 137.682 390.94 138.059C391.318 138.437 391.526 138.939 391.526 139.473C391.526 140.008 391.318 140.51 390.94 140.887C390.562 141.265 390.06 141.473 389.526 141.473C388.992 141.473 388.49 141.265 388.112 140.887C387.333 140.108 387.333 138.839 388.112 138.059ZM390.941 215.113C391.318 215.49 391.526 215.992 391.526 216.527C391.526 217.061 391.318 217.563 390.941 217.941C390.563 218.318 390.061 218.526 389.527 218.526C388.992 218.526 388.49 218.318 388.113 217.941C387.333 217.161 387.333 215.892 388.113 215.113C388.49 214.735 388.992 214.527 389.527 214.527C390.061 214.527 390.563 214.735 390.941 215.113V215.113Z" fill="black" stroke="black" stroke-width="2" mask="url(#path-54-inside-1)"/>
<path d="M384.697 178C384.697 174.959 382.223 172.485 379.181 172.485C376.14 172.485 373.666 174.959 373.666 178C373.666 181.041 376.14 183.515 379.181 183.515C382.223 183.515 384.697 181.041 384.697 178V178ZM377.182 178C377.182 176.897 378.079 176 379.181 176C380.284 176 381.181 176.897 381.181 178C381.181 179.102 380.284 180 379.181 180C378.079 180 377.182 179.103 377.182 178V178Z" fill="black"/>
<path d="M317.303 178C317.303 181.041 319.777 183.515 322.819 183.515C325.86 183.515 328.334 181.041 328.334 178C328.334 174.959 325.86 172.485 322.819 172.485C319.777 172.485 317.303 174.959 317.303 178V178ZM324.818 178C324.818 179.103 323.921 180 322.819 180C321.716 180 320.819 179.102 320.819 178C320.819 176.897 321.716 176 322.819 176C323.921 176 324.818 176.897 324.818 178V178Z" fill="black"/>
<path d="M327.173 154.172C326.131 155.214 325.557 156.599 325.557 158.072C325.557 159.546 326.131 160.931 327.173 161.972C328.214 163.014 329.599 163.588 331.073 163.588C332.546 163.588 333.931 163.014 334.972 161.972C336.014 160.931 336.588 159.546 336.588 158.072C336.588 156.599 336.014 155.214 334.972 154.172C333.931 153.131 332.546 152.557 331.073 152.557C329.599 152.557 328.214 153.131 327.173 154.172ZM333.072 158.072C333.072 158.607 332.864 159.109 332.486 159.487C332.109 159.864 331.607 160.072 331.073 160.072C330.538 160.072 330.036 159.864 329.659 159.486C329.281 159.109 329.073 158.607 329.073 158.072C329.073 157.538 329.281 157.036 329.659 156.659C330.036 156.281 330.538 156.073 331.073 156.073C331.607 156.073 332.109 156.281 332.486 156.659C332.864 157.036 333.072 157.538 333.072 158.072Z" fill="black"/>
<path d="M370.927 203.443C372.401 203.443 373.786 202.869 374.827 201.828C375.869 200.786 376.443 199.401 376.443 197.928C376.443 196.454 375.869 195.069 374.827 194.028C373.786 192.986 372.401 192.412 370.927 192.412C369.454 192.412 368.069 192.986 367.027 194.028C365.986 195.069 365.412 196.454 365.412 197.928C365.412 199.401 365.986 200.786 367.027 201.828C368.069 202.869 369.454 203.443 370.927 203.443ZM369.514 196.513C369.891 196.136 370.393 195.928 370.927 195.928C371.462 195.928 371.964 196.136 372.341 196.513C372.719 196.891 372.927 197.393 372.927 197.927C372.927 198.461 372.719 198.963 372.341 199.341C371.964 199.719 371.462 199.927 370.927 199.927C370.393 199.927 369.891 199.719 369.514 199.341C369.136 198.963 368.928 198.461 368.928 197.927C368.928 197.393 369.136 196.891 369.514 196.513V196.513Z" fill="black"/>
<path d="M372.341 159.487C371.964 159.864 371.462 160.072 370.927 160.072C370.393 160.072 369.891 159.864 369.514 159.486C369.136 159.109 368.928 158.607 368.928 158.072C368.928 157.538 369.136 157.036 369.514 156.659C370.2 155.972 370.2 154.859 369.514 154.172C368.827 153.486 367.714 153.486 367.028 154.172C365.986 155.214 365.412 156.599 365.412 158.072C365.412 159.546 365.986 160.931 367.028 161.972C368.069 163.014 369.454 163.588 370.928 163.588C372.401 163.588 373.786 163.014 374.828 161.972C375.514 161.286 375.514 160.173 374.828 159.486C374.141 158.8 373.028 158.8 372.341 159.487V159.487Z" fill="black"/>
<path d="M331.073 203.443C332.546 203.443 333.931 202.869 334.973 201.827C335.659 201.141 335.659 200.028 334.973 199.341C334.286 198.655 333.173 198.655 332.487 199.341C332.109 199.719 331.607 199.927 331.073 199.927C330.539 199.927 330.037 199.719 329.659 199.341C329.281 198.963 329.073 198.461 329.073 197.927C329.073 197.393 329.281 196.891 329.659 196.513C330.345 195.827 330.345 194.713 329.659 194.027C328.973 193.34 327.859 193.34 327.173 194.027C326.131 195.069 325.557 196.454 325.557 197.927C325.557 199.4 326.131 200.785 327.173 201.827C328.214 202.869 329.599 203.443 331.073 203.443Z" fill="black"/>
<path d="M351 161.212C347.959 161.212 345.485 163.686 345.485 166.727C345.485 169.768 347.959 172.243 351 172.243C354.041 172.243 356.515 169.768 356.515 166.727C356.515 163.686 354.041 161.212 351 161.212V161.212ZM351 168.727C349.897 168.727 349 167.83 349 166.728C349 165.625 349.897 164.728 351 164.728C352.102 164.728 353 165.625 353 166.728C353 167.83 352.103 168.727 351 168.727V168.727Z" fill="black"/>
<g filter="url(#filter0_d)">
<path d="M351 183.757C347.959 183.757 345.485 186.232 345.485 189.273C345.485 192.314 347.959 194.788 351 194.788C354.041 194.788 356.515 192.314 356.515 189.273C356.515 186.232 354.041 183.757 351 183.757V183.757ZM351 191.272C349.897 191.272 349 190.375 349 189.273C349 188.17 349.897 187.273 351 187.273C352.102 187.273 353 188.17 353 189.273C353 190.375 352.103 191.272 351 191.272V191.272Z" fill="black"/>
<path d="M345.985 189.273C345.985 186.508 348.235 184.257 351 184.257C353.765 184.257 356.015 186.508 356.015 189.273C356.015 192.037 353.765 194.288 351 194.288C348.235 194.288 345.985 192.037 345.985 189.273ZM348.5 189.273C348.5 190.652 349.621 191.772 351 191.772C352.379 191.772 353.5 190.652 353.5 189.273C353.5 187.894 352.379 186.773 351 186.773C349.621 186.773 348.5 187.894 348.5 189.273Z" stroke="black"/>
</g>
<path d="M367.788 178C367.788 174.959 365.314 172.485 362.273 172.485C359.232 172.485 356.757 174.959 356.757 178C356.757 181.041 359.231 183.515 362.273 183.515C365.314 183.515 367.788 181.041 367.788 178V178ZM362.273 180C361.17 180 360.273 179.102 360.273 178C360.273 176.897 361.17 176 362.273 176C363.375 176 364.272 176.897 364.272 178C364.272 179.102 363.375 180 362.273 180Z" fill="black"/>
<path d="M345.243 178C345.243 174.959 342.769 172.485 339.728 172.485C336.686 172.485 334.212 174.959 334.212 178C334.212 181.041 336.686 183.515 339.727 183.515C342.768 183.515 345.243 181.041 345.243 178V178ZM339.727 180C338.625 180 337.728 179.102 337.728 178C337.728 176.897 338.625 176 339.727 176C340.83 176 341.727 176.897 341.727 178C341.727 179.102 340.83 180 339.727 180Z" fill="black"/>
<path d="M339.727 168.485H339.746C340.717 168.485 341.494 167.698 341.494 166.727C341.494 165.756 340.698 164.969 339.727 164.969C338.756 164.969 337.969 165.756 337.969 166.727C337.969 167.698 338.756 168.485 339.727 168.485V168.485Z" fill="black"/>
<path d="M339.746 191.031C340.717 191.031 341.494 190.244 341.494 189.273C341.494 188.302 340.698 187.515 339.727 187.515C338.756 187.515 337.969 188.302 337.969 189.273C337.969 190.244 338.756 191.031 339.727 191.031H339.746Z" fill="black"/>
<path d="M360.496 166.727C360.496 167.698 361.283 168.485 362.254 168.485H362.273C363.244 168.485 364.021 167.698 364.021 166.727C364.021 165.756 363.225 164.969 362.254 164.969C361.283 164.969 360.496 165.756 360.496 166.727V166.727Z" fill="black"/>
<path d="M340.217 153.725C340.441 153.725 340.669 153.682 340.889 153.591L340.906 153.584C341.803 153.212 342.22 152.187 341.849 151.29C341.477 150.393 340.44 149.972 339.543 150.343C338.646 150.715 338.22 151.743 338.592 152.64C338.873 153.317 339.527 153.725 340.217 153.725V153.725Z" fill="black"/>
<path d="M376.361 165.597C375.465 165.97 375.041 167 375.415 167.896C375.697 168.571 376.35 168.977 377.038 168.977C377.264 168.977 377.493 168.933 377.714 168.841L377.732 168.834C378.628 168.46 379.042 167.434 378.668 166.538C378.294 165.642 377.256 165.223 376.361 165.597V165.597Z" fill="black"/>
<path d="M324.965 190.547C325.189 190.547 325.417 190.503 325.637 190.412L325.655 190.405C326.552 190.033 326.969 189.008 326.597 188.111C326.225 187.214 325.188 186.793 324.291 187.164C323.394 187.536 322.969 188.564 323.34 189.461C323.621 190.138 324.275 190.547 324.965 190.547V190.547Z" fill="black"/>
<path d="M361.112 202.416C360.215 202.788 359.79 203.816 360.161 204.713C360.442 205.39 361.096 205.798 361.786 205.798C362.01 205.798 362.238 205.755 362.458 205.664L362.476 205.657C363.373 205.285 363.79 204.26 363.418 203.364C363.046 202.467 362.009 202.045 361.112 202.416V202.416Z" fill="black"/>
<path d="M362.254 187.515C361.283 187.515 360.496 188.302 360.496 189.273C360.496 190.244 361.283 191.031 362.254 191.031H362.273C363.244 191.031 364.021 190.244 364.021 189.273C364.021 188.302 363.225 187.515 362.254 187.515V187.515Z" fill="black"/>
<path d="M323.346 166.549C322.973 167.446 323.398 168.475 324.294 168.847C324.515 168.939 324.743 168.982 324.968 168.982C325.657 168.982 326.311 168.575 326.592 167.899L326.599 167.882C326.972 166.986 326.544 165.965 325.648 165.592C324.752 165.22 323.719 165.653 323.346 166.549Z" fill="black"/>
<path d="M362.46 150.337C361.561 149.969 360.531 150.408 360.164 151.307C359.796 152.205 360.226 153.232 361.125 153.599C361.343 153.688 361.568 153.731 361.79 153.731C362.483 153.731 363.139 153.319 363.418 152.638L363.425 152.621C363.792 151.722 363.358 150.704 362.46 150.337Z" fill="black"/>
<path d="M339.546 205.668C339.767 205.76 339.995 205.803 340.22 205.803C340.909 205.803 341.563 205.396 341.844 204.72L341.851 204.703C342.224 203.807 341.796 202.786 340.9 202.413C340.004 202.041 338.971 202.474 338.598 203.37C338.225 204.267 338.65 205.296 339.546 205.668Z" fill="black"/>
<path d="M378.665 189.468L378.673 189.451C379.045 188.554 378.617 187.534 377.721 187.161C376.825 186.789 375.792 187.222 375.419 188.118C375.047 189.015 375.471 190.044 376.367 190.416C376.588 190.508 376.817 190.552 377.042 190.552C377.73 190.552 378.384 190.144 378.665 189.468V189.468Z" fill="black"/>
<defs>
<filter id="filter0_d" x="341.485" y="183.757" width="19.0306" height="19.0306" filterUnits="userSpaceOnUse" color-interpolation-filters="sRGB">
<feFlood flood-opacity="0" result="BackgroundImageFix"/>
<feColorMatrix in="SourceAlpha" type="matrix" values="0 0 0 0 0 0 0 0 0 0 0 0 0 0 0 0 0 0 127 0"/>
<feOffset dy="4"/>
<feGaussianBlur stdDeviation="2"/>
<feColorMatrix type="matrix" values="0 0 0 0 0 0 0 0 0 0 0 0 0 0 0 0 0 0 0.25 0"/>
<feBlend mode="normal" in2="BackgroundImageFix" result="effect1_dropShadow"/>
<feBlend mode="normal" in="SourceGraphic" in2="effect1_dropShadow" result="shape"/>
</filter>
</defs>
</svg>
