<svg xmlns="http://www.w3.org/2000/svg" viewBox="0 0 80 80"><g fill="#fff" stroke="#000"><path d="M15.24-1.268a8.823 8.823 0 00-3.412-2.123v2.67c.6.3 1.17.689 1.669 1.19a6.402 6.402 0 010 9.042C11.004 12 6.95 12 4.454 9.51a6.406 6.406 0 010-9.043c.006-.007.026-.02.035-.031h.003l1.477 1.475-.009-4.684-4.68-.006 1.47 1.471a.148.148 0 01-.033.039 8.85 8.85 0 000 12.515 8.854 8.854 0 0012.522 0c3.454-3.455 3.458-9.06 0-12.515z" stroke-width=".702" stroke-linecap="round" stroke-linejoin="round" paint-order="stroke fill markers" transform="matrix(4.34658 0 0 4.45957 .974 16.688)" stroke="#fff"/></g></svg>