<?xml version="1.0" encoding="UTF-8"?>
<svg width="1920" height="1080" fill="none" version="1.1" viewBox="0 0 1920 1080" xmlns="http://www.w3.org/2000/svg" xmlns:cc="http://creativecommons.org/ns#" xmlns:dc="http://purl.org/dc/elements/1.1/" xmlns:rdf="http://www.w3.org/1999/02/22-rdf-syntax-ns#">
 <metadata>
  <rdf:RDF>
   <cc:Work rdf:about="">
    <dc:format>image/svg+xml</dc:format>
    <dc:type rdf:resource="http://purl.org/dc/dcmitype/StillImage"/>
    <dc:title/>
   </cc:Work>
  </rdf:RDF>
 </metadata>
 <mask fill="#ffffff">
  <path d="m400.26 179.76c0.736 2.181 2.8 3.757 5.227 3.757 3.041 0 5.515-2.474 5.515-5.515s-2.474-5.515-5.515-5.515c-2.427 0-4.491 1.576-5.227 3.757h-8.088c-0.065-1.533-0.211-3.053-0.442-4.551l3.839-0.764c0.952-0.189 1.571-1.115 1.382-2.067-0.19-0.952-1.116-1.57-2.067-1.381l-3.84 0.764c-0.361-1.487-0.805-2.948-1.326-4.377l7.467-3.093c0.552 0.634 1.244 1.141 2.044 1.472 0.68 0.282 1.395 0.423 2.11 0.423s1.43-0.141 2.111-0.423c1.361-0.564 2.421-1.624 2.985-2.985s0.563-2.86 0-4.221c-0.564-1.362-1.624-2.421-2.985-2.985s-2.86-0.564-4.221 0-2.421 1.623-2.985 2.985c-0.331 0.799-0.463 1.647-0.404 2.486l-7.466 3.092c-0.643-1.384-1.363-2.73-2.156-4.034l3.252-2.173c0.808-0.539 1.025-1.631 0.485-2.438-0.539-0.807-1.63-1.024-2.438-0.485l-3.254 2.175c-0.899-1.228-1.867-2.408-2.903-3.535l5.714-5.713c0.753 0.375 1.588 0.575 2.455 0.575 1.473 0 2.858-0.574 3.9-1.616 1.041-1.042 1.615-2.427 1.615-3.9s-0.574-2.858-1.615-3.9c-1.042-1.041-2.427-1.615-3.9-1.615s-2.859 0.573-3.9 1.615c-1.716 1.716-2.058 4.288-1.037 6.351l-5.716 5.716c-1.118-1.025-2.299-1.991-3.538-2.898l2.177-3.257c0.539-0.808 0.322-1.899-0.485-2.439-0.807-0.539-1.899-0.322-2.438 0.485 0 0-3.101 4.619-3.139 4.675-0.54 0.807-0.324 1.899 0.483 2.439 10.496 7.022 16.763 18.744 16.763 31.354 0 20.786-16.911 37.697-37.697 37.697s-37.697-16.91-37.697-37.696 16.911-37.697 37.697-37.697c4.999 0 9.854 0.962 14.429 2.86 0.894 0.371 1.918-0.051 2.293-0.942l3.752-9.057c0.123 8e-3 0.246 0.014 0.369 0.014 2.165 0 4.224-1.283 5.103-3.405 1.163-2.809-0.176-6.042-2.985-7.206-1.361-0.563-2.86-0.564-4.222 0-1.361 0.564-2.421 1.624-2.984 2.985-0.564 1.361-0.564 2.86 0 4.221 0.331 0.8 0.837 1.492 1.472 2.044l-3.091 7.462c-1.437-0.526-2.897-0.969-4.378-1.328l0.763-3.833c0.189-0.952-0.429-1.877-1.382-2.067-0.952-0.189-1.877 0.43-2.067 1.382l-0.762 3.835c-1.502-0.23-3.02-0.378-4.552-0.441v-8.085c2.181-0.736 3.757-2.8 3.757-5.227 0-3.041-2.474-5.515-5.515-5.515s-5.515 2.474-5.515 5.515c0 2.427 1.576 4.491 3.757 5.227v8.086c-1.54 0.065-3.059 0.212-4.551 0.443l-0.764-3.838c-0.189-0.952-1.114-1.57-2.067-1.381-0.952 0.189-1.57 1.114-1.381 2.067l0.764 3.839c-1.492 0.363-2.953 0.806-4.377 1.327l-3.093-7.468c0.634-0.552 1.141-1.244 1.472-2.043 0.564-1.362 0.564-2.861 0-4.222s-1.624-2.421-2.985-2.985c-1.361-0.563-2.86-0.563-4.221 0-2.81 1.164-4.149 4.397-2.985 7.207 0.879 2.121 2.937 3.404 5.103 3.404 0.122 0 0.245-5e-3 0.369-0.014l3.095 7.473c-1.386 0.647-2.732 1.368-4.029 2.16l-2.182-3.265c-0.539-0.807-1.63-1.024-2.438-0.485-0.807 0.539-1.024 1.631-0.485 2.438l2.186 3.271c-1.23 0.903-2.409 1.871-3.53 2.901l-5.733-5.733c1.021-2.063 0.679-4.635-1.037-6.35-1.041-1.042-2.426-1.616-3.9-1.616-1.473 0-2.858 0.574-3.9 1.616-1.041 1.041-1.615 2.426-1.615 3.9 0 1.473 0.574 2.858 1.615 3.9 1.042 1.041 2.427 1.615 3.9 1.615 0.867 0 1.702-0.2 2.455-0.575l5.729 5.729c-1.03 1.121-1.999 2.3-2.901 3.53l-3.271-2.185c-0.807-0.54-1.899-0.323-2.438 0.485-0.539 0.807-0.322 1.898 0.485 2.438l3.264 2.181c-0.792 1.298-1.512 2.643-2.159 4.03l-7.475-3.096c0.059-0.839-0.073-1.687-0.404-2.486-0.564-1.362-1.624-2.421-2.985-2.985s-2.86-0.564-4.221 0-2.421 1.623-2.985 2.984c-0.563 1.361-0.564 2.861 0 4.222s1.624 2.421 2.985 2.985c0.681 0.282 1.396 0.422 2.111 0.422s1.43-0.14 2.11-0.422c0.8-0.332 1.492-0.838 2.044-1.472l7.468 3.093c-0.522 1.423-0.964 2.885-1.327 4.376l-3.839-0.763c-0.953-0.19-1.878 0.429-2.067 1.381-0.19 0.952 0.429 1.877 1.381 2.067l3.838 0.763c-0.231 1.492-0.378 3.012-0.443 4.552h-8.086c-0.736-2.182-2.8-3.758-5.227-3.758-3.041 0-5.515 2.474-5.515 5.515s2.474 5.515 5.515 5.515c2.427 0 4.491-1.576 5.227-3.757h8.086c0.065 1.54 0.212 3.059 0.443 4.551l-3.838 0.764c-0.952 0.189-1.571 1.115-1.381 2.067 0.166 0.836 0.9 1.415 1.722 1.415 0.114 0 0.229-0.011 0.345-0.034l3.839-0.764c0.363 1.492 0.806 2.953 1.327 4.377l-7.468 3.093c-0.552-0.635-1.244-1.141-2.044-1.472-1.361-0.564-2.86-0.564-4.221 0-1.361 0.563-2.421 1.623-2.985 2.984-0.564 1.362-0.564 2.861 0 4.222s1.624 2.421 2.985 2.985c0.68 0.282 1.396 0.423 2.111 0.423 0.714 0 1.43-0.142 2.11-0.423 1.361-0.564 2.421-1.624 2.985-2.985 0.331-0.8 0.462-1.647 0.404-2.486l7.475-3.096c0.647 1.386 1.367 2.732 2.159 4.029l-3.264 2.181c-0.808 0.54-1.025 1.631-0.485 2.439 0.339 0.507 0.895 0.781 1.463 0.781 0.335 0 0.675-0.096 0.975-0.297l3.271-2.185c0.902 1.23 1.871 2.409 2.901 3.53l-5.729 5.729c-0.753-0.375-1.588-0.575-2.455-0.575-1.473 0-2.858 0.574-3.9 1.615-1.041 1.042-1.615 2.427-1.615 3.9 0 1.474 0.574 2.859 1.615 3.9 1.042 1.042 2.427 1.616 3.9 1.616s2.859-0.574 3.9-1.616c1.716-1.715 2.058-4.287 1.037-6.35l5.733-5.733c1.121 1.03 2.3 1.998 3.53 2.901l-2.186 3.271c-0.539 0.807-0.322 1.899 0.485 2.438 0.3 0.201 0.64 0.297 0.975 0.297 0.568 0 1.124-0.275 1.463-0.782l2.182-3.265c1.297 0.792 2.643 1.513 4.029 2.16l-3.095 7.473c-2.297-0.155-4.543 1.149-5.472 3.39-1.163 2.81 0.176 6.043 2.985 7.206 0.681 0.282 1.396 0.423 2.111 0.423s1.43-0.141 2.11-0.423c1.361-0.563 2.421-1.623 2.985-2.984s0.564-2.861 0-4.222c-0.331-0.799-0.838-1.491-1.472-2.043l3.093-7.468c1.424 0.521 2.885 0.964 4.377 1.327l-0.764 3.839c-0.189 0.952 0.429 1.878 1.381 2.067 0.116 0.023 0.231 0.034 0.345 0.034 0.822 0 1.556-0.578 1.722-1.415l0.764-3.838c1.492 0.231 3.011 0.378 4.551 0.443v8.086c-2.181 0.736-3.757 2.8-3.757 5.227 0 3.041 2.474 5.515 5.515 5.515s5.515-2.474 5.515-5.515c0-2.427-1.576-4.491-3.757-5.227v-8.086c1.54-0.065 3.059-0.212 4.551-0.443l0.764 3.838c0.166 0.837 0.9 1.415 1.722 1.415 0.114 0 0.229-0.011 0.345-0.034 0.952-0.189 1.57-1.114 1.381-2.067l-0.764-3.839c1.492-0.363 2.953-0.806 4.377-1.327l3.093 7.468c-0.634 0.552-1.141 1.244-1.472 2.043-0.564 1.362-0.564 2.861 0 4.222s1.624 2.421 2.985 2.985c0.68 0.282 1.395 0.423 2.11 0.423s1.43-0.142 2.111-0.423c2.809-1.164 4.148-4.397 2.985-7.207-0.929-2.241-3.175-3.545-5.472-3.39l-3.095-7.473c1.386-0.647 2.732-1.368 4.029-2.16l2.181 3.265c0.339 0.507 0.896 0.782 1.464 0.782 0.335 0 0.675-0.096 0.975-0.297 0.807-0.539 1.024-1.631 0.484-2.438l-2.185-3.271c1.23-0.903 2.409-1.871 3.53-2.901l5.733 5.733c-1.022 2.063-0.679 4.635 1.036 6.35 1.042 1.042 2.427 1.616 3.9 1.616s2.858-0.574 3.9-1.616c1.042-1.041 1.616-2.426 1.616-3.9 0-1.473-0.574-2.858-1.616-3.9-1.041-1.041-2.427-1.615-3.9-1.615-0.866 0-1.701 0.2-2.455 0.575l-5.728-5.729c1.03-1.121 1.998-2.3 2.901-3.53l3.27 2.185c0.3 0.201 0.64 0.297 0.975 0.297 0.568 0 1.125-0.274 1.464-0.782 0.539-0.807 0.322-1.898-0.485-2.438l-3.265-2.181c0.792-1.298 1.512-2.643 2.16-4.029l7.474 3.096c-0.058 0.839 0.073 1.686 0.404 2.486 0.564 1.361 1.624 2.421 2.985 2.985 0.681 0.281 1.396 0.422 2.111 0.422s1.43-0.141 2.111-0.422c1.361-0.564 2.421-1.624 2.984-2.985 0.564-1.361 0.564-2.861 0-4.222-0.563-1.361-1.624-2.421-2.985-2.984-1.361-0.564-2.86-0.564-4.221 0-0.8 0.331-1.492 0.837-2.044 1.472l-7.467-3.093c0.521-1.424 0.963-2.885 1.327-4.377l3.839 0.764c0.115 0.023 0.231 0.034 0.344 0.034 0.822 0 1.556-0.579 1.723-1.415 0.189-0.952-0.429-1.878-1.382-2.067l-3.837-0.764c0.23-1.492 0.378-3.011 0.442-4.551zm-0.768-23.374c0.204-0.493 0.588-0.878 1.082-1.082 0.247-0.102 0.506-0.153 0.765-0.153s0.519 0.051 0.766 0.153c0.493 0.204 0.877 0.589 1.082 1.082 0.204 0.494 0.204 1.037 0 1.531-0.205 0.493-0.589 0.877-1.083 1.082-0.493 0.204-1.036 0.204-1.53 0-0.493-0.205-0.878-0.589-1.082-1.082-0.205-0.494-0.205-1.037 0-1.531zm-71.188-27.956c-0.422-1.019 0.064-2.191 1.083-2.613 0.246-0.102 0.506-0.153 0.765-0.153s0.518 0.051 0.765 0.153c0.493 0.205 0.878 0.589 1.082 1.083 0.205 0.493 0.205 1.037 0 1.53-0.204 0.493-0.588 0.878-1.082 1.082-1.019 0.422-2.191-0.063-2.613-1.082zm41.701-1.531c0.204-0.493 0.589-0.877 1.082-1.082 0.247-0.102 0.506-0.153 0.765-0.153s0.519 0.051 0.765 0.153c1.019 0.422 1.505 1.594 1.083 2.613-0.422 1.018-1.594 1.504-2.613 1.082-0.494-0.205-0.878-0.589-1.082-1.082s-0.204-1.037 0-1.531zm-19.003-5.381c1.103 0 2 0.897 2 1.999 0 1.103-0.898 2-2 2s-2-0.897-2-2c0-1.102 0.897-1.999 2-1.999zm-49.572 37.481c-0.494 0.205-1.037 0.205-1.53 0-0.494-0.204-0.878-0.589-1.083-1.082-0.204-0.493-0.204-1.037 0-1.53 0.205-0.494 0.589-0.878 1.082-1.083 0.247-0.102 0.506-0.153 0.766-0.153 0.259 0 0.518 0.051 0.765 0.153 0.493 0.205 0.878 0.589 1.082 1.083 0.205 0.493 0.205 1.037 0 1.53-0.204 0.493-0.588 0.878-1.082 1.082zm1.082 40.619c-0.204 0.493-0.588 0.878-1.082 1.082-0.494 0.205-1.037 0.205-1.531 0-0.493-0.204-0.877-0.589-1.082-1.082-0.204-0.494-0.204-1.037 0-1.531 0.205-0.493 0.589-0.878 1.083-1.082 0.246-0.102 0.506-0.153 0.765-0.153s0.518 0.051 0.765 0.153c0.493 0.204 0.878 0.589 1.082 1.082 0.205 0.494 0.205 1.037 0 1.531zm8.549-58.729c-0.377-0.377-0.585-0.879-0.585-1.414 0-0.534 0.208-1.036 0.585-1.414 0.378-0.377 0.88-0.585 1.414-0.585 0.535 0 1.037 0.208 1.414 0.585 0.78 0.78 0.78 2.049 0 2.828-0.377 0.378-0.879 0.586-1.414 0.586-0.534 0-1.036-0.208-1.414-0.586zm-14.544 39.113c-1.102 0-1.999-0.898-1.999-2s0.897-2 1.999-2c1.103 0 2 0.898 2 2s-0.897 2-2 2zm17.373 37.941c-0.378 0.377-0.88 0.585-1.414 0.585s-1.037-0.208-1.414-0.585c-0.378-0.378-0.586-0.88-0.586-1.414 0-0.535 0.208-1.037 0.586-1.414 0.377-0.378 0.88-0.586 1.414-0.586s1.036 0.208 1.414 0.586c0.779 0.779 0.779 2.048 0 2.828zm18.109 11.162c-0.204 0.493-0.589 0.877-1.082 1.082-0.493 0.204-1.037 0.204-1.53 0-1.019-0.422-1.505-1.594-1.083-2.613 0.422-1.018 1.594-1.504 2.612-1.083l1e-3 1e-3h1e-3c0.493 0.205 0.877 0.589 1.081 1.082s0.204 1.037 0 1.531zm41.701-1.531c0.422 1.019-0.064 2.191-1.083 2.613-0.493 0.204-1.036 0.204-1.53 0-0.493-0.205-0.878-0.589-1.082-1.083-0.205-0.493-0.205-1.037 0-1.53 0.204-0.493 0.588-0.878 1.082-1.082 0.25-0.104 0.508-0.152 0.762-0.152 0.786-1e-3 1.532 0.465 1.851 1.234zm-22.698 6.912c-1.103 0-2-0.897-2-1.999 0-1.103 0.898-2 2-2s2 0.897 2 2c0 1.102-0.897 1.999-2 1.999zm49.572-37.481c0.494-0.205 1.037-0.205 1.53 0 0.494 0.204 0.878 0.589 1.083 1.082 0.204 0.493 0.204 1.037 0 1.53-0.205 0.494-0.589 0.878-1.082 1.083-0.494 0.204-1.037 0.204-1.531 0-0.493-0.205-0.878-0.589-1.082-1.083-0.205-0.493-0.205-1.037 0-1.53 0.204-0.493 0.588-0.878 1.082-1.082zm4.913-21.003c1.102 0 1.999 0.898 1.999 2s-0.897 2-1.999 2c-1.103 0-2-0.898-2-2s0.897-2 2-2zm-17.373-37.941c0.378-0.377 0.88-0.585 1.414-0.585s1.036 0.208 1.414 0.585c0.378 0.378 0.586 0.88 0.586 1.414 0 0.535-0.208 1.037-0.586 1.414-0.378 0.378-0.88 0.586-1.414 0.586s-1.036-0.208-1.414-0.586c-0.779-0.779-0.779-2.048 0-2.828zm2.829 77.054c0.377 0.377 0.585 0.879 0.585 1.414 0 0.534-0.208 1.036-0.585 1.414-0.378 0.377-0.88 0.585-1.414 0.585-0.535 0-1.037-0.208-1.414-0.585-0.78-0.78-0.78-2.049 0-2.828 0.377-0.378 0.879-0.586 1.414-0.586 0.534 0 1.036 0.208 1.414 0.586z"/>
 </mask>
 <g transform="translate(56,14)">
  <rect x="-56" y="-14" width="1920" height="1080" fill="#000"/>
  <g transform="matrix(1.9627 0 0 2.0191 -268.66 110.34)" fill="#ffffff">
   <text transform="translate(112,-33)" font-family="'Baskerville Old Face'" font-size="80px" style="font-variant-caps:normal;font-variant-east-asian:normal;font-variant-ligatures:normal;font-variant-numeric:normal;line-height:1.25;shape-inside:url(#rect232);white-space:pre" xml:space="preserve"><tspan x="105" y="79.494927"><tspan fill="#ffffff" font-family="'Baskerville Old Face'" font-size="80px" style="font-variant-caps:normal;font-variant-east-asian:normal;font-variant-ligatures:normal;font-variant-numeric:normal">Coronavirus Visualized</tspan></tspan></text>
   <g font-family="sans-serif">
    <text x="507" y="132" font-size="40px" style="line-height:1.25" xml:space="preserve"><tspan x="507" y="132"/></text>
    <text transform="scale(1.0143 .98593)" x="344.99792" y="342.08032" font-size="29.31px" stroke-width=".73274" style="line-height:1.25" xml:space="preserve"><tspan x="344.99792" y="342.08032" fill="#ffffff" stroke-width=".73274"/></text>
    <text transform="scale(1.0143 .98593)" x="892.35242" y="155.23239" font-size="29.31px" stroke-width=".73274" style="line-height:1.25" xml:space="preserve"><tspan x="892.35242" y="155.23239" fill="#ffffff" stroke-width=".73274"/></text>
   </g>
  </g>
  <g transform="matrix(1.55 0 0 1.55 525.8 130.45)">
   <g clip-rule="evenodd" fill-rule="evenodd">
    <path d="m546.57 173.25c5.184-6.117 8.693-13.614 8.107-22.014-1.69-24.204-35.209-18.879-41.729-6.663s-5.745 43.203 2.682 45.386c3.36 0.871 10.519-1.262 17.805-5.677l-4.573 32.523h27.004z" fill="#b28b67"/>
    <path d="m532.08 153.91c-1.033 14.474-3.768 21.71-8.203 21.71-6.653 0-12.297-4.245-15.216-4.245-2.128 0-1.653 2.677-0.243 4.661 1.164 1.638 6.831 3.216 6.831 5.754 0 2.539-4.477 0.575-4.477 2.08 0 2.491-0.787 7.173 3.513 7.173 4.351 0 16.828-1.594 18.966-8.086 1.38-4.19 2.273-12.872 2.677-26.046 0.264-0.032 0.533-0.048 0.805-0.048 3.729 0 6.751 3.038 6.751 6.786 0 1.903-0.779 3.622-2.034 4.855 1.562 2.216 3.313 4.531 5.319 6.92 7.537-4.545 12.157-19.175 6.8217-30.895-3.0093-5.9084-7.7077-9.3408-13.153-10.894-4.411-1.854-8.99-2.063-12.855-0.952-7.577 0.654-14.342 2.976-16.26 4.355 0 7.21 1.39 9.35 13.262 9.161 2.917 1.549 5.159 4.215 7.495 7.711z" fill="#2f3676"/>
    <path d="m564.87 310.67-40.793 143.89-29.763 106.06h-21.708l31.628-249.95z" fill="#a18c70"/>
    <path d="m575.78 310.67c0.943 74.163 4.161 114.61 5.151 121.35 0.991 6.739 12.583 48.798 41.552 127.79l-19.101 0.80644c-36.879-75.779-57.466-118.64-61.76-128.6-4.295-9.95-17.549-50.401-37.511-121.35z" fill="#b09f7d"/>
   </g>
   <path d="m620.25 274.61-19.929 2.909c21.392 46.653 32.86 71.326 34.405 74.018 3.476 6.059-0.612 16.611-2.21 22.197 8.077 2.344 5.497-10.199 15.71-7.071 9.322 2.856 17.014 9.33 26.246 1.632 1.135-0.947 2.092-4.041-1.516-5.844-8.988-4.493-22.185-12.713-24.236-15.743-2.798-4.131-12.288-28.164-28.47-72.098z" fill="#b28b67"/>
   <path d="m473.45 289.64-33.965 28.944c-9.527 3.316-17.412 7.163-23.655 11.541-1.441 1.518-3.102 4.503 3.246 3.561 6.349-0.942 13.068-1.645 14.101 0.481s-2.647 5.015-0.662 7.842c1.324 1.885 6.588-3.445 15.791-15.989l34.427-17.27z" fill="#b28b67"/>
   <g clip-rule="evenodd" fill-rule="evenodd">
    <path d="m540.46 197.95-12.349-4.104c-16.751 42.061-41.733 82.758-83.473 117.13l10.322 17.9c36.683-21.721 71.409-38.594 85.5-71.187 4.729-10.939 0.386-46.662 0-59.742z" fill="#c5cfd6"/>
    <path d="m582.87 316.33c-35.373 3.77-63.216 3.77-83.528 0-2.517-0.467-2.914-4.703-1.747-7.577 18.174-44.761 30.637-83.817 30.637-114.91 3.334 1.689 9.17 1.943 17.508 0.759 22.406 32.039 32.705 68.8 37.13 121.72z" fill="#eaa5ff"/>
    <g fill="#dde3e9">
     <path d="m551.31 191.92h-9.338c-2.174 12.853-9.032 186.91-30.202 243.85h114.55c-2.483-52.16-22.073-114.82-41.917-167.25 17.547 16.14 32.841 43.489 45.882 82.047l21.456-5.536c-15.954-69.1-48.754-119.89-98.4-152.37-0.108-0.249-0.215-0.498-0.321-0.745h-0.827c-0.304-0.196-0.609-0.392-0.914-0.587z"/>
     <path d="m494.86 557.07c1.119 2.986 1.678 5.221 1.678 6.704 0 1.803-0.3 4.434-0.901 7.894h-56.402c-1.466-4.845-0.62-7.461 2.538-7.848 3.158-0.386 5.781-0.735 7.87-1.046l26.215-11.687c0.504-0.225 1.096 2e-3 1.321 0.506 3e-3 9e-3 7e-3 0.017 0.011 0.026l1.685 4.088c2.923 1.364 5.299 2.046 7.126 2.046 1.485 0 3.536-0.6 6.153-1.8 1.004-0.46 2.191-0.019 2.651 0.985 0.02 0.043 0.038 0.087 0.055 0.132z"/>
     <path d="m621.8 557.96c1.1921 2.986 1.7877 5.221 1.7877 6.704 0 1.803-0.31961 4.434-0.95988 7.894h-60.088c-1.5618-4.845-0.66052-7.461 2.7039-7.848 3.3644-0.386 6.1588-0.735 8.3843-1.046l27.928-11.687c0.53694-0.225 1.1676 2e-3 1.4073 0.506 3e-3 9e-3 7e-3 0.017 0.0117 0.026l1.7951 4.088c3.114 1.364 5.6453 2.046 7.5917 2.046 1.582 0 3.7671-0.6 6.5551-1.8 1.0696-0.46 2.3342-0.019 2.8242 0.985 0.0213 0.043 0.0405 0.087 0.0586 0.132z" stroke-width="1.0322"/>
    </g>
   </g>
  </g>
  <g transform="matrix(1.5451 0 0 1.5451 247.73 -11.599)">
   <path d="m13.334 443.77c1.3597 10.916 2.2578 9.0076 0.61464 22.955-1.539 6.2839-3.7772 8.4764-4.2323 14.898-0.37602 5.3053 0.32447 12.538 2.7286 14.988 5.9302 6.0442 6.9023-6.2707 8.256-12.862 0.58191-2.8331 1.77-1.6123 2.9453-0.55558 4.7334 3.538 8.2668 3.2717 4.975-1.8026-1.4252-2.1969-3.2032-5.7494-3.5119-9.8134-0.06957-23.897 5.873-7.4797 3.9767-26.747z" fill="#b28b67"/>
   <g clip-rule="evenodd" fill-rule="evenodd">
    <path d="m76.804 283.23c-6.324-4.317-11.429-10.317-12.948-18.166-4.3757-22.614 28.102-26.084 37.167-16.507s15.957 38.183 8.658 42.284c-2.911 1.636-10.093 1.464-17.953-0.768l12.244 28.682-25.112 6.728z" fill="#b28b67"/>
    <path d="m87.835 239.01c-3.709-0.118-8.784 0.865-10.816 1.664 0.433-3.149 0.061-6.43-1.147-9.397-1.174-2.883-3.2-5.063-5.157-7.392-0.903-1.073-1.879-2.12-3.1-2.799-1.243-0.691-2.661-0.988-4.052-0.938-1.423 0.051-2.819 0.452-4.0863 1.092-0.5609 0.283-1.0217 0.695-1.5642 1.001-0.5555 0.313-0.9441 0.02-1.4767-0.236-1.2837-0.616-2.9321-0.649-4.2947-0.453-1.5287 0.219-3.0064 0.852-4.2897 1.713-1.2491 0.839-2.3655 1.955-3.0618 3.333-0.3101 0.614-0.561 1.284-0.6555 1.976-0.0388 0.284-0.016 0.44-0.2478 0.602-0.2144 0.15-0.4916 0.227-0.7147 0.375-2.1575 1.431-3.698 3.79-4.1771 6.417-0.2795 1.533 0.0571 4.009 0.8597 6.67 0.8027 2.661 5.124 9.009 8.0952 10.951 2.652 1.733 6.0554 2.433 9.1274 2.316-1.3385 2.692-1.8888 5.756-2.0934 8.776-0.2222 3.282-0.0213 6.575 0.5965 9.82 0.587 3.083 1.4231 6.286 2.931 9.053 1.4104 2.588 3.4491 4.475 6.2231 5.275 1.271 0.367 2.581 0.547 3.886 0.682 1.287 0.134 2.573 0.255 3.862 0.178 2.44-0.146 5.084-0.942 6.376-3.244 0.466-0.83 0.951-1.846 1.204-2.775 0.091-0.334 0.142-0.55-0.138-0.778-0.336-0.273-0.802-0.426-1.188-0.606-2.2-1.028-3.852-2.744-4.774-5.063-0.935-2.353-1.117-5.665 0.982-7.364 2.591-2.096 6.232-1.462 9.222-0.763 0.069-4.184 1.413-8.295 4.512-11.036 3.429-3.032 7.907-4.48 11.52-7.262 0.942-0.725 1.887-1.514 2.426-2.622 0.226-0.463 0.478-1.053 0.475-1.584-4e-3 -0.698-0.575-1.132-1.039-1.552-2.462-2.231-10.516-5.913-14.225-6.03z" fill="#2f3676"/>
    <path d="m84.587 412.92 39.272 137.28 28.653 101.18h20.899l-30.448-238.47z" fill="#191847"/>
    <path d="m74.084 412.92c-0.908 70.757-4.006 109.35-4.959 115.78-0.89582 6.0369-14.514 42.566-39.262 109.4-1.3679 3.6939-2.0657 5.6882-3.2914 9.033-0.21468 0.5858 4.5388 1.3849 4.2853 2.07 14.876-0.38813 7.914 1.4883 15.349 1.1002 35.504-72.299 56.628-112.11 60.763-121.6 4.134-9.494 16.894-48.087 36.112-115.78z" fill="#2f3676"/>
   </g>
   <path d="m236.07 255.08c-0.68404 0.0175-1.5216 0.39764-2.1621 0.79101-5.351 4.988-10.545 11.628-15.578 19.922l-33.889 26.107 7.4199 5.418 31.596-21.723c13.562-6.125 19.6-10 18.115-11.627-2.228-2.439-5.6704 0.44106-7.4394-0.96094-1.77-1.401 0.25668-7.5813 2.4297-13.363 1.3581-3.6138 0.64789-4.5936-0.49218-4.5644z" fill="#b28b67"/>
   <g clip-rule="evenodd" fill-rule="evenodd">
    <path d="m79.446 325.68-2.589-10.66c45.81-3.277 91.315-13.337 132.53-38.039l17.147 12.306c-27.428 23.703-47.222 37.083-90.14 41.191-11.964 1.145-36.604 2.6747-56.945-4.7983z" fill="#c5cfd6"/>
    <path d="m69.826 425.91c34.161-2.375 60.559-7.03 79.193-13.964 2.309-0.859 1.984-4.9 0.402-7.403-24.638-38.973-42.917-73.546-48.063-102.73-2.882 2.143-8.373 3.357-16.473 3.64-15.941 33.816-19.622 70.041-15.059 120.45z" fill="#72d297"/>
    <path d="m79.159 303.86 8.853-1.561c4.189 11.7 39.496 173.92 68.99 223.82l-108.6 19.15c-6.2778-49.371 1.9258-111.45 12.063-163.98-13.966 18.083-23.94 46.308-29.922 84.677l-21.259-1.609c3.6896-67.522 26.382-120.67 68.077-159.46 0.061-0.252 0.121-0.503 0.181-0.753l0.784-0.138c0.255-0.235 0.512-0.469 0.769-0.703z" fill="#dde3e9"/>
   </g>
   <g transform="translate(85.44 93.57)">
    <g fill="#e4e4e4">
     <ellipse transform="translate(-125.44 -1.5695)" cx="215.98" cy="564.28" rx="3.7656" ry="1.5312"/>
     <path d="m91.736 558.11c-2.4564-1.3191-2.5827-1.3907-4.15-3.0492-7.5789 2.744-16.224 2.0842-21.26 0.54721l-0.82812 14.445 1.8457 2.7754 17.498-0.0625h30.965l1.1875-4.377c0.017-0.062 0.031-0.12545 0.041-0.18945 0.161-0.985-0.47202-1.9199-1.416-2.0879-8.0276-1.4305-15.072-3.7523-21.322-6.793l-2.6055 4.5352-2.4336-1.4297z"/>
    </g>
    <g fill="#ff8086">
     <path d="m91.742 558.11-2.4785 4.3144 2.4648 1.2734 2.5742-4.3789c-0.84462-0.41088-1.7484-0.76869-2.5605-1.209z"/>
     <path d="m95.369 559.83-2.3723 4.3737 2.4991 1.0885 2.4626-4.3162c-0.85441-0.39011-1.7666-0.72573-2.5893-1.146z"/>
     <path d="m98.969 561.39-2.1009 4.3245 2.6547 0.87684 2.0867-4.1788c-0.87186-0.34938-1.7989-0.64158-2.6405-1.0226z"/>
    </g>
   </g>
   <g transform="translate(-39.297 91.828)">
    <ellipse cx="91.476" cy="561.47" rx="2.7677" ry="2.8671" fill="#e4e4e4"/>
    <g transform="translate(0 -.75)">
     <path d="m91.736 558.11c-2.4375-1.3214-2.0977-1.3378-4.2429-2.924-7.5789 2.744-16.585 1.8966-21.62 0.35955l-0.10322 1.8431-0.70928 12.665 1.7207 2.7129h49.025l1.1875-4.377c0.017-0.062 0.031-0.12545 0.041-0.18945 0.161-0.985-0.47202-1.9199-1.416-2.0879-8.0276-1.4305-15.072-3.7523-21.322-6.793l-2.6055 4.5352-2.4336-1.4297z" fill="#e4e4e4"/>
     <g fill="#ff8086">
      <path d="m91.742 558.11-2.4785 4.3144 2.4648 1.2734 2.5742-4.3789c-0.84462-0.41088-1.7484-0.76869-2.5605-1.209z"/>
      <path d="m95.369 559.83-2.3723 4.3737 2.4991 1.0885 2.4626-4.3162c-0.85441-0.39011-1.7666-0.72573-2.5893-1.146z"/>
      <path d="m98.969 561.39-2.1009 4.3245 2.6547 0.87684 2.0867-4.1788c-0.87186-0.34938-1.7989-0.64158-2.6405-1.0226z"/>
     </g>
    </g>
   </g>
  </g>
  <path d="m833.04 419.54c-1.2566-4.0329-0.98174-8.4625-2.5468-12.386-1.6522-4.1421-5.2359-7.296-9.2512-9.2361s-8.4636-2.7886-12.881-3.4022c-4.417-0.61353-8.8814-1.015-13.197-2.1401-4.3151-1.1251-8.5397-3.0403-11.643-6.243-2.5477-2.6296-4.2314-6.0372-5.022-9.6122-0.79058-3.575-0.71157-7.3122-0.0234-10.908 1.3763-7.1922 5.0993-13.7 9.031-19.877 3.4382-5.4023 7.1082-10.705 11.61-15.259 4.5016-4.5542 9.8952-8.3574 16.003-10.282s12.971-1.8472 18.727 0.95879c2.878 1.403 5.4437 3.4694 7.3438 6.0464s3.1218 5.6663 3.3944 8.8564c0.45846 5.367-1.7132 10.566-3.761 15.548-1.0239 2.491-2.0308 5-2.6887 7.6116-0.65797 2.6117-0.96042 5.3442-0.55727 8.0071 0.50824 3.3571 2.1254 6.4799 4.2549 9.1245 2.1294 2.6446 4.7602 4.8436 7.5016 6.8469 5.4827 4.0066 11.593 7.4084 15.788 12.749 3.6544 4.6525 5.6022 10.666 5.1315 16.564-0.47066 5.8974-3.4135 11.602-8.0929 15.222s-11.052 5.0305-16.767 3.5009c-2.8575-0.76483-5.5278-2.2327-7.6837-4.2582-2.1558-2.0255-3.7905-4.6066-4.6704-7.4308z" fill="#ffd5d5"/>
  <path d="m851.2 422.46c-9.2549 4.6068-16.705 12.291-20.592 21.237-4.1425 9.535-4.2791 20.147-8.5938 29.621-3.4784 7.6381-9.6299 14.246-17.17 18.851-7.5397 4.6048-16.423 7.2226-25.36 7.7582-6.3747 0.38207-12.836-0.28751-18.734-2.3559-5.8982-2.0684-11.214-5.5746-14.844-10.283-3.6294-4.7082-5.4947-10.64-4.7483-16.462 0.74639-5.8223 4.2059-11.458 9.5301-14.817 2.8436-1.7942 6.1399-2.9232 9.5075-3.4851 3.3676-0.56188 6.8091-0.56884 10.186-0.24306 6.753 0.65154 13.219 2.6101 19.791 4.0831 3.6618 0.8208 7.4112 1.4961 11.208 1.3534 3.7963-0.14269 7.6792-1.1662 10.647-3.4141 3.1033-2.351 4.9438-5.8078 6.2956-9.2631 1.3518-3.4553 2.3244-7.048 4.1636-10.32 2.6146-4.6512 6.9753-8.4928 12.147-10.701 5.1717-2.2083 11.119-2.7682 16.567-1.5595z" fill="#ffd5d5"/>
  <path d="m933.95 378.06c-2.9415-3.2881-4.9075-7.4382-5.5885-11.797-0.68108-4.3589-0.0748-8.9109 1.7234-12.94 1.8297-4.0992 4.8033-7.559 7.6471-11.032s5.6491-7.1173 7.0403-11.385c1.7-5.2153 1.0962-11.061-1.2612-16.014-2.3574-4.953-6.3852-9.0234-11.107-11.815-8.5832-5.0744-19.274-5.9025-28.954-3.5137-9.6806 2.3888-18.421 7.7763-25.93 14.336-3.3695 2.9434-6.5869 6.223-8.475 10.279-0.94408 2.0281-1.5378 4.2345-1.5916 6.4709-0.0538 2.2364 0.44606 4.5026 1.5634 6.4406 1.2659 2.1958 3.2804 3.9013 5.5319 5.0652 2.2515 1.1639 4.7377 1.8135 7.2408 2.212 5.0061 0.79689 10.176 0.62816 15.056 1.9991 7.3969 2.0779 13.662 7.8325 16.36 15.026s1.7612 15.649-2.4455 22.079" fill="#faa"/>
  <path d="m950.41 485.99c3.9797-1.6976 8.1302-2.9947 12.368-3.8651 6.0757-1.2478 12.416-1.6089 18.465-0.24047s11.801 4.5736 15.548 9.5167c2.8988 3.8248 4.5068 8.5932 4.6119 13.391 0.105 4.798-1.2792 9.6049-3.8389 13.665-2.2844 3.623-5.4559 6.6264-8.9457 9.1096-3.4898 2.4832-7.3046 4.4705-11.153 6.3509-6.4213 3.1376-13.056 6.0265-20.093 7.2737-7.0372 1.2471-14.577 0.73867-20.877-2.6356-4.4922-2.4059-8.213-6.227-10.499-10.782-2.2856-4.5546-3.1253-9.8215-2.3694-14.861 0.75592-5.0395 3.104-9.8282 6.6253-13.512 3.5213-3.6836 8.1994-6.2448 13.2-7.2269" fill="#ffd5d5"/>
  <path d="m963.36 479.86a19.131 33.89 72.501 0 0-0.2627-0.19628 19.131 33.89 72.501 0 0-0.35933-0.25364 19.131 33.89 72.501 0 0-0.3684-0.24762 19.131 33.89 72.501 0 0-0.38048-0.24157 19.131 33.89 72.501 0 0-0.39254-0.23552 19.131 33.89 72.501 0 0-0.40161-0.22647 19.131 33.89 72.501 0 0-0.41066-0.22043 19.131 33.89 72.501 0 0-0.42275-0.21138 19.131 33.89 72.501 0 0-0.43181-0.20533 19.131 33.89 72.501 0 0-0.44086-0.1993 19.131 33.89 72.501 0 0-0.44992-0.19325 19.131 33.89 72.501 0 0-0.46201-0.1842 19.131 33.89 72.501 0 0-0.46803-0.17513 19.131 33.89 72.501 0 0-0.48012-0.16911 19.131 33.89 72.501 0 0-0.48616-0.16003 19.131 33.89 72.501 0 0-0.49523-0.15398 19.131 33.89 72.501 0 0-0.50427-0.14487 19.131 33.89 72.501 0 0-0.51333-0.13883 19.131 33.89 72.501 0 0-0.51938-0.12987 19.131 33.89 72.501 0 0-0.52842-0.12384 19.131 33.89 72.501 0 0-0.5375-0.11472 19.131 33.89 72.501 0 0-0.54352-0.10574 19.131 33.89 72.501 0 0-0.54958-0.0966 19.131 33.89 72.501 0 0-0.55863-0.0906 19.131 33.89 72.501 0 0-0.56164-0.0815 19.131 33.89 72.501 0 0-0.57071-0.0754 19.131 33.89 72.501 0 0-0.57675-0.0665 19.131 33.89 72.501 0 0-0.58278-0.0574 19.131 33.89 72.501 0 0-0.58883-0.0482 19.131 33.89 72.501 0 0-0.59487-0.0422 19.131 33.89 72.501 0 0-0.6009-0.0301 19.131 33.89 72.501 0 0-0.60391-0.0241 19.131 33.89 72.501 0 0-0.60996-0.0181 19.131 33.89 72.501 0 0-0.61299-6e-3 19.131 33.89 72.501 0 0-0.61902 0 19.131 33.89 72.501 0 0-0.62204 9e-3 19.131 33.89 72.501 0 0-0.62808 0.0155 19.131 33.89 72.501 0 0-0.63111 0.0272 19.131 33.89 72.501 0 0-0.63109 0.0332 19.131 33.89 72.501 0 0-0.63714 0.0422 19.131 33.89 72.501 0 0-0.64016 0.0482 19.131 33.89 72.501 0 0-0.64318 0.0605 19.131 33.89 72.501 0 0-0.64317 0.0665 19.131 33.89 72.501 0 0-0.6462 0.0725 19.131 33.89 72.501 0 0-0.64921 0.0846 19.131 33.89 72.501 0 0-0.65225 0.0906 19.131 33.89 72.501 0 0-0.64921 0.0997 19.131 33.89 72.501 0 0-0.65223 0.10575 19.131 33.89 72.501 0 0-0.65526 0.11472 19.131 33.89 72.501 0 0-0.65224 0.12384 19.131 33.89 72.501 0 0-0.65526 0.1328 19.131 33.89 72.501 0 0-0.65525 0.13884 19.131 33.89 72.501 0 0-0.65224 0.14486 19.131 33.89 72.501 0 0-0.65526 0.15399 19.131 33.89 72.501 0 0-0.65223 0.16306 19.131 33.89 72.501 0 0-0.65224 0.1691 19.131 33.89 72.501 0 0-0.64922 0.17815 19.131 33.89 72.501 0 0-0.64921 0.1842 19.131 33.89 72.501 0 0-0.64922 0.19325 19.131 33.89 72.501 0 0-0.64318 0.1993 19.131 33.89 72.501 0 0-0.52239 0.16608 19.131 33.89 72.501 0 0-0.64016 0.21137 19.131 33.89 72.501 0 0-0.63714 0.22044 19.131 33.89 72.501 0 0-0.63714 0.22646 19.131 33.89 72.501 0 0-0.63109 0.23554 19.131 33.89 72.501 0 0-0.62808 0.23854 19.131 33.89 72.501 0 0-0.62506 0.24762 19.131 33.89 72.501 0 0-0.62204 0.25364 19.131 33.89 72.501 0 0-0.616 0.25969 19.131 33.89 72.501 0 0-0.61299 0.26875 19.131 33.89 72.501 0 0-0.60693 0.27176 19.131 33.89 72.501 0 0-0.60092 0.27781 19.131 33.89 72.501 0 0-0.59787 0.28685 19.131 33.89 72.501 0 0-0.59186 0.28988 19.131 33.89 72.501 0 0-0.58579 0.29895 19.131 33.89 72.501 0 0-0.57977 0.30197 19.131 33.89 72.501 0 0-0.57373 0.30799 19.131 33.89 72.501 0 0-0.56768 0.31404 19.131 33.89 72.501 0 0-0.56166 0.32008 19.131 33.89 72.501 0 0-0.55259 0.32612 19.131 33.89 72.501 0 0-0.54654 0.32914 19.131 33.89 72.501 0 0-0.54051 0.33518 19.131 33.89 72.501 0 0-0.53145 0.3382 19.131 33.89 72.501 0 0-0.52543 0.34726 19.131 33.89 72.501 0 0-0.51634 0.34724 19.131 33.89 72.501 0 0-0.50731 0.3533 19.131 33.89 72.501 0 0-0.50124 0.35933 19.131 33.89 72.501 0 0-0.4922 0.36236 19.131 33.89 72.501 0 0-0.48313 0.36536 19.131 33.89 72.501 0 0-0.47408 0.36841 19.131 33.89 72.501 0 0-0.46504 0.37442 19.131 33.89 72.501 0 0-0.45595 0.37745 19.131 33.89 72.501 0 0-0.4469 0.38048 19.131 33.89 72.501 0 0-0.43483 0.3835 19.131 33.89 72.501 0 0-0.42878 0.38952 19.131 33.89 72.501 0 0-0.41672 0.38953 19.131 33.89 72.501 0 0-0.40764 0.39255 19.131 33.89 72.501 0 0-0.39557 0.39557 19.131 33.89 72.501 0 0-0.38651 0.39859 19.131 33.89 72.501 0 0-0.37442 0.4016 19.131 33.89 72.501 0 0-0.36538 0.40161 19.131 33.89 72.501 0 0-0.3533 0.40463 19.131 33.89 72.501 0 0-0.34423 0.40765 19.131 33.89 72.501 0 0-0.32914 0.40764 19.131 33.89 72.501 0 0-0.32009 0.41068 19.131 33.89 72.501 0 0-0.31102 0.41066 19.131 33.89 72.501 0 0-0.29591 0.41369 19.131 33.89 72.501 0 0-0.28687 0.41067 19.131 33.89 72.501 0 0-0.27176 0.41671 19.131 33.89 72.501 0 0-0.2627 0.41369 19.131 33.89 72.501 0 0-0.25063 0.4167 19.131 33.89 72.501 0 0-0.23856 0.41671 19.131 33.89 72.501 0 0-0.22345 0.4167 19.131 33.89 72.501 0 0-0.21439 0.41671 19.131 33.89 72.501 0 0-0.20231 0.4167 19.131 33.89 72.501 0 0-0.18723 0.41369 19.131 33.89 72.501 0 0-0.17513 0.41671 19.131 33.89 72.501 0 0-0.16306 0.4167 19.131 33.89 72.501 0 0-0.1509 0.41369 19.131 33.89 72.501 0 0-0.13899 0.41369 19.131 33.89 72.501 0 0-0.12677 0.41066 19.131 33.89 72.501 0 0-0.11178 0.41369 19.131 33.89 72.501 0 0-0.0997 0.40765 19.131 33.89 72.501 0 0-0.0846 0.40766 19.131 33.89 72.501 0 0-0.0754 0.40764 19.131 33.89 72.501 0 0-0.0605 0.40463 19.131 33.89 72.501 0 0-0.0482 0.4016 19.131 33.89 72.501 0 0-0.0332 0.40162 19.131 33.89 72.501 0 0-0.0241 0.39858 19.131 33.89 72.501 0 0-6e-3 0.39557 19.131 33.89 72.501 0 0 3e-3 0.39256 19.131 33.89 72.501 0 0 0.0181 0.38952 19.131 33.89 72.501 0 0 0.0301 0.38652 19.131 33.89 72.501 0 0 0.0422 0.38349 19.131 33.89 72.501 0 0 0.0574 0.38047 19.131 33.89 72.501 0 0 0.0694 0.37745 19.131 33.89 72.501 0 0 0.0815 0.3714 19.131 33.89 72.501 0 0 0.0966 0.37142 19.131 33.89 72.501 0 0 0.10869 0.36538 19.131 33.89 72.501 0 0 0.0966 0.2929 19.131 33.89 72.501 0 0 0.12986 0.35933 19.131 33.89 72.501 0 0 0.14487 0.3533 19.131 33.89 72.501 0 0 0.15701 0.35027 19.131 33.89 72.501 0 0 0.16911 0.34424 19.131 33.89 72.501 0 0 0.18419 0.3382 19.131 33.89 72.501 0 0 0.19326 0.33517 19.131 33.89 72.501 0 0 0.20834 0.33216 19.131 33.89 72.501 0 0 0.21742 0.32611 19.131 33.89 72.501 0 0 0.0241 0.0332 77.302 77.302 0 0 0 58.68-29.484z" fill="#808080"/>
  <path d="m957.24 388.4c0.92885-0.37167 3.262-2.2858 5.0953-3.7096 4.2353-3.2905 9.3277-5.2724 14.476-5.6342 3.808-0.26757 7.5921 0.32979 11.398 0.38322 3.8054 0.0535 7.8046-0.50526 11.021-2.8061 2.0662-1.4779 3.7039-3.6243 4.723-6.0395 1.0191-2.4152 1.4274-5.0896 1.2678-7.693-0.3192-5.2068-2.8913-9.9872-6.4428-13.454-1.6868-1.6464-3.608-3.0386-5.7348-3.9623-2.1268-0.92358-4.4645-1.3691-6.7851-1.1365-2.7053 0.2712-5.3194 1.4572-7.576 3.1448-2.2565 1.6876-4.1723 3.8636-5.832 6.2146-3.3195 4.7019-5.6441 10.1-8.7905 14.933-4.2208 6.4834-4.7121 7.3735-9.8627 9.896-2.3462 0.80868-3.1075 1.9269-3.1444 4.4366-0.0198 2.357 0.94307 4.0524 3.1944 4.8804 0.80817 0.29722 2.1777 0.79844 2.9927 0.5458z" fill="#faa"/>
  <g fill="#808080">
   <path d="m949.76 370.83a13.562 9.8965 56.712 0 0-0.1359 0.0906 13.562 9.8965 56.712 0 0-0.24158 0.18118 13.562 9.8965 56.712 0 0-0.23251 0.18721 13.562 9.8965 56.712 0 0-0.22647 0.1993 13.562 9.8965 56.712 0 0-0.22043 0.20836 13.562 9.8965 56.712 0 0-0.21138 0.21741 13.562 9.8965 56.712 0 0-0.20231 0.22949 13.562 9.8965 56.712 0 0-0.19627 0.23553 13.562 9.8965 56.712 0 0-0.1842 0.24761 13.562 9.8965 56.712 0 0-0.17815 0.25364 13.562 9.8965 56.712 0 0-0.16911 0.26271 13.562 9.8965 56.712 0 0-0.16003 0.27176 13.562 9.8965 56.712 0 0-0.15104 0.28082 13.562 9.8965 56.712 0 0-0.14193 0.28687 13.562 9.8965 56.712 0 0-0.13281 0.2929 13.562 9.8965 56.712 0 0-0.12074 0.30197 13.562 9.8965 56.712 0 0-0.11472 0.30801 13.562 9.8965 56.712 0 0-0.10266 0.31704 13.562 9.8965 56.712 0 0-0.0935 0.32009 13.562 9.8965 56.712 0 0-0.0846 0.32914 13.562 9.8965 56.712 0 0-0.0755 0.33215 13.562 9.8965 56.712 0 0-0.0634 0.34121 13.562 9.8965 56.712 0 0-0.0513 0.34425 13.562 9.8965 56.712 0 0-0.0453 0.34725 13.562 9.8965 56.712 0 0-0.0332 0.35329 13.562 9.8965 56.712 0 0-0.0241 0.35935 13.562 9.8965 56.712 0 0-0.0124 0.36234 13.562 9.8965 56.712 0 0-3e-3 0.36236 13.562 9.8965 56.712 0 0 9e-3 0.36839 13.562 9.8965 56.712 0 0 0.0181 0.37141 13.562 9.8965 56.712 0 0 0.0272 0.37444 13.562 9.8965 56.712 0 0 0.0362 0.37443 13.562 9.8965 56.712 0 0 0.0482 0.38047 13.562 9.8965 56.712 0 0 0.0605 0.37745 13.562 9.8965 56.712 0 0 0.0694 0.38046 13.562 9.8965 56.712 0 0 0.0785 0.38048 13.562 9.8965 56.712 0 0 0.0875 0.38047 13.562 9.8965 56.712 0 0 0.0966 0.3835 13.562 9.8965 56.712 0 0 0.10869 0.38046 13.562 9.8965 56.712 0 0 0.1178 0.38048 13.562 9.8965 56.712 0 0 0.12678 0.38047 13.562 9.8965 56.712 0 0 0.13883 0.37745 13.562 9.8965 56.712 0 0 0.14487 0.37745 13.562 9.8965 56.712 0 0 0.15398 0.37444 13.562 9.8965 56.712 0 0 0.16608 0.3714 13.562 9.8965 56.712 0 0 0.17212 0.36839 13.562 9.8965 56.712 0 0 0.18118 0.36841 13.562 9.8965 56.712 0 0 0.19023 0.36234 13.562 9.8965 56.712 0 0 0.1993 0.35934 13.562 9.8965 56.712 0 0 0.20836 0.3533 13.562 9.8965 56.712 0 0 0.16306 0.26875 13.562 9.8965 56.712 0 0 0.22042 0.34725 13.562 9.8965 56.712 0 0 0.22949 0.34121 13.562 9.8965 56.712 0 0 0.23553 0.3382 13.562 9.8965 56.712 0 0 0.24157 0.33215 13.562 9.8965 56.712 0 0 0.25062 0.32612 13.562 9.8965 56.712 0 0 0.25668 0.31707 13.562 9.8965 56.712 0 0 0.2627 0.31403 13.562 9.8965 56.712 0 0 0.27176 0.30499 13.562 9.8965 56.712 0 0 0.2748 0.29894 13.562 9.8965 56.712 0 0 0.28082 0.2929 13.562 9.8965 56.712 0 0 0.28988 0.28384 13.562 9.8965 56.712 0 0 0.28989 0.27479 13.562 9.8965 56.712 0 0 0.29894 0.26875 13.562 9.8965 56.712 0 0 0.30196 0.25969 13.562 9.8965 56.712 0 0 0.30497 0.25063 13.562 9.8965 56.712 0 0 0.31103 0.24458 13.562 9.8965 56.712 0 0 0.31403 0.23251 13.562 9.8965 56.712 0 0 0.32008 0.22345 13.562 9.8965 56.712 0 0 0.32008 0.21439 13.562 9.8965 56.712 0 0 0.32612 0.20534 13.562 9.8965 56.712 0 0 0.32612 0.19627 13.562 9.8965 56.712 0 0 0.32914 0.1842 13.562 9.8965 56.712 0 0 0.33215 0.17513 13.562 9.8965 56.712 0 0 0.33217 0.16307 13.562 9.8965 56.712 0 0 0.33517 0.15398 13.562 9.8965 56.712 0 0 0.33819 0.14487 13.562 9.8965 56.712 0 0 0.33518 0.1328 13.562 9.8965 56.712 0 0 0.3382 0.12075 13.562 9.8965 56.712 0 0 0.3382 0.10868 13.562 9.8965 56.712 0 0 0.33819 0.0997 13.562 9.8965 56.712 0 0 0.33519 0.0906 13.562 9.8965 56.712 0 0 0.33819 0.0754 13.562 9.8965 56.712 0 0 0.33519 0.0665 13.562 9.8965 56.712 0 0 0.33215 0.0543 13.562 9.8965 56.712 0 0 0.33518 0.0424 13.562 9.8965 56.712 0 0 0.32914 0.0301 13.562 9.8965 56.712 0 0 0.32913 0.0212 13.562 9.8965 56.712 0 0 0.32611 6e-3 13.562 9.8965 56.712 0 0 0.32311-3e-3 13.562 9.8965 56.712 0 0 0.32007-0.0155 13.562 9.8965 56.712 0 0 0.31707-0.0272 13.562 9.8965 56.712 0 0 0.31101-0.0393 13.562 9.8965 56.712 0 0 0.30801-0.0482 13.562 9.8965 56.712 0 0 0.30497-0.0605 13.562 9.8965 56.712 0 0 0.30197-0.0725 13.562 9.8965 56.712 0 0 0.2929-0.0846 13.562 9.8965 56.712 0 0 0.28988-0.0966 13.562 9.8965 56.712 0 0 0.28687-0.10575 13.562 9.8965 56.712 0 0 0.27779-0.1178 13.562 9.8965 56.712 0 0 0.27178-0.12678 13.562 9.8965 56.712 0 0 0.26874-0.14193 13.562 9.8965 56.712 0 0 0.1993-0.11178 13.562 9.8965 56.712 0 0 0.25364-0.15701 13.562 9.8965 56.712 0 0 0.25063-0.16911 13.562 9.8965 56.712 0 0 0.24157-0.17815 13.562 9.8965 56.712 0 0 0.23251-0.19024 13.562 9.8965 56.712 0 0 0.22648-0.1993 13.562 9.8965 56.712 0 0 0.22043-0.20834 13.562 9.8965 56.712 0 0 0.21136-0.21742 13.562 9.8965 56.712 0 0 0.20232-0.22948 13.562 9.8965 56.712 0 0 0.19628-0.23554 13.562 9.8965 56.712 0 0 0.1842-0.2476 13.562 9.8965 56.712 0 0 0.17815-0.25366 13.562 9.8965 56.712 0 0 0.1691-0.2627 13.562 9.8965 56.712 0 0 0.16003-0.27177 13.562 9.8965 56.712 0 0 0.15105-0.27781 13.562 9.8965 56.712 0 0 0.14193-0.28685 13.562 9.8965 56.712 0 0 0.0605-0.1328 77.302 77.302 0 0 0-17.752-19.286z"/>
   <path d="m831.16 402.52a23.718 27.896 40.288 0 0 0.12075 0.11178 23.718 27.896 40.288 0 0 0.36538 0.32311 23.718 27.896 40.288 0 0 0.3714 0.31403 23.718 27.896 40.288 0 0 0.38048 0.308 23.718 27.896 40.288 0 0 0.38651 0.29593 23.718 27.896 40.288 0 0 0.39254 0.28988 23.718 27.896 40.288 0 0 0.40162 0.27781 23.718 27.896 40.288 0 0 0.40764 0.26873 23.718 27.896 40.288 0 0 0.41369 0.25668 23.718 27.896 40.288 0 0 0.42275 0.25063 23.718 27.896 40.288 0 0 0.42577 0.23855 23.718 27.896 40.288 0 0 0.43482 0.22948 23.718 27.896 40.288 0 0 0.43784 0.22043 23.718 27.896 40.288 0 0 0.4469 0.20836 23.718 27.896 40.288 0 0 0.44993 0.19929 23.718 27.896 40.288 0 0 0.45596 0.19024 23.718 27.896 40.288 0 0 0.462 0.17815 23.718 27.896 40.288 0 0 0.46804 0.16609 23.718 27.896 40.288 0 0 0.47106 0.15702 23.718 27.896 40.288 0 0 0.47408 0.14795 23.718 27.896 40.288 0 0 0.48012 0.1359 23.718 27.896 40.288 0 0 0.48615 0.12384 23.718 27.896 40.288 0 0 0.21742 0.0513 23.718 27.896 40.288 0 0 0.48917 0.11178 23.718 27.896 40.288 0 0 0.49522 0.0966 23.718 27.896 40.288 0 0 0.49824 0.0875 23.718 27.896 40.288 0 0 0.50126 0.0785 23.718 27.896 40.288 0 0 0.50427 0.0665 23.718 27.896 40.288 0 0 0.5073 0.0544 23.718 27.896 40.288 0 0 0.5103 0.0422 23.718 27.896 40.288 0 0 0.51032 0.0332 23.718 27.896 40.288 0 0 0.51636 0.0212 23.718 27.896 40.288 0 0 0.51635 0.0124 23.718 27.896 40.288 0 0 0.51635 0 23.718 27.896 40.288 0 0 0.52241-0.0124 23.718 27.896 40.288 0 0 0.51936-0.0241 23.718 27.896 40.288 0 0 0.52239-0.0332 23.718 27.896 40.288 0 0 0.52542-0.0453 23.718 27.896 40.288 0 0 0.5224-0.0544 23.718 27.896 40.288 0 0 0.5254-0.0665 23.718 27.896 40.288 0 0 0.52541-0.0785 23.718 27.896 40.288 0 0 0.52542-0.0875 23.718 27.896 40.288 0 0 0.52239-0.0997 23.718 27.896 40.288 0 0 0.52541-0.11178 23.718 27.896 40.288 0 0 0.52239-0.12075 23.718 27.896 40.288 0 0 0.52543-0.1328 23.718 27.896 40.288 0 0 0.51937-0.14193 23.718 27.896 40.288 0 0 0.5224-0.15399 23.718 27.896 40.288 0 0 0.51936-0.16306 23.718 27.896 40.288 0 0 0.51636-0.17513 23.718 27.896 40.288 0 0 0.51635-0.1842 23.718 27.896 40.288 0 0 0.51333-0.19628 23.718 27.896 40.288 0 0 0.51032-0.20533 23.718 27.896 40.288 0 0 0.5073-0.21439 23.718 27.896 40.288 0 0 0.50729-0.22648 23.718 27.896 40.288 0 0 0.50126-0.23553 23.718 27.896 40.288 0 0 0.50125-0.24761 23.718 27.896 40.288 0 0 0.49522-0.25365 23.718 27.896 40.288 0 0 0.49219-0.26571 23.718 27.896 40.288 0 0 0.48616-0.2748 23.718 27.896 40.288 0 0 0.48617-0.28384 23.718 27.896 40.288 0 0 0.4801-0.29592 23.718 27.896 40.288 0 0 0.47408-0.30196 23.718 27.896 40.288 0 0 0.47107-0.31102 23.718 27.896 40.288 0 0 0.46804-0.32008 23.718 27.896 40.288 0 0 0.45898-0.33216 23.718 27.896 40.288 0 0 0.45596-0.3382 23.718 27.896 40.288 0 0 0.44993-0.34726 23.718 27.896 40.288 0 0 0.44388-0.35328 23.718 27.896 40.288 0 0 0.44085-0.36538 23.718 27.896 40.288 0 0 0.43181-0.3714 23.718 27.896 40.288 0 0 0.42577-0.38049 23.718 27.896 40.288 0 0 0.42275-0.38651 23.718 27.896 40.288 0 0 0.41066-0.39557 23.718 27.896 40.288 0 0 0.40766-0.4016 23.718 27.896 40.288 0 0 0.4016-0.41067 23.718 27.896 40.288 0 0 0.39255-0.41671 23.718 27.896 40.288 0 0 0.38651-0.42275 23.718 27.896 40.288 0 0 0.37746-0.43179 23.718 27.896 40.288 0 0 0.3714-0.43785 23.718 27.896 40.288 0 0 0.36236-0.44389 23.718 27.896 40.288 0 0 0.35329-0.44991 23.718 27.896 40.288 0 0 0.34725-0.45295 23.718 27.896 40.288 0 0 0.34123-0.462 23.718 27.896 40.288 0 0 0.32914-0.46803 23.718 27.896 40.288 0 0 0.32309-0.47408 23.718 27.896 40.288 0 0 0.31405-0.47711 23.718 27.896 40.288 0 0 0.30497-0.48314 23.718 27.896 40.288 0 0 0.29593-0.48615 23.718 27.896 40.288 0 0 0.28685-0.4922 23.718 27.896 40.288 0 0 0.27781-0.49824 23.718 27.896 40.288 0 0 0.26875-0.50125 23.718 27.896 40.288 0 0 0.25969-0.50428 23.718 27.896 40.288 0 0 0.25063-0.50729 23.718 27.896 40.288 0 0 0.23855-0.51333 23.718 27.896 40.288 0 0 0.23251-0.51637 23.718 27.896 40.288 0 0 0.22042-0.51634 23.718 27.896 40.288 0 0 0.21137-0.5224 23.718 27.896 40.288 0 0 0.20232-0.52542 23.718 27.896 40.288 0 0 0.0846-0.23251 23.718 27.896 40.288 0 0 0.18721-0.52842 23.718 27.896 40.288 0 0 0.17816-0.52844 23.718 27.896 40.288 0 0 0.16608-0.53446 23.718 27.896 40.288 0 0 0.15702-0.53146 23.718 27.896 40.288 0 0 0.14486-0.53448 23.718 27.896 40.288 0 0 0.1359-0.53748 23.718 27.896 40.288 0 0 0.12383-0.5375 23.718 27.896 40.288 0 0 0.11472-0.53749 23.718 27.896 40.288 0 0 0.10575-0.53749 23.718 27.896 40.288 0 0 0.0937-0.54051 23.718 27.896 40.288 0 0 0.0815-0.53749 23.718 27.896 40.288 0 0 0.0725-0.54052 23.718 27.896 40.288 0 0 0.0604-0.53748 23.718 27.896 40.288 0 0 0.0513-0.53749 23.718 27.896 40.288 0 0 0.0422-0.5375 23.718 27.896 40.288 0 0 0.0272-0.53748 23.718 27.896 40.288 0 0 0.0181-0.53447 23.718 27.896 40.288 0 0 9e-3 -0.53147 23.718 27.896 40.288 0 0-3e-3 -0.53143 23.718 27.896 40.288 0 0-0.0155-0.53147 23.718 27.896 40.288 0 0-0.0241-0.52842 23.718 27.896 40.288 0 0-0.0362-0.52543 23.718 27.896 40.288 0 0-0.0453-0.52239 23.718 27.896 40.288 0 0-0.0574-0.51936 23.718 27.896 40.288 0 0-0.0665-0.51636 23.718 27.896 40.288 0 0-0.0785-0.51334 23.718 27.896 40.288 0 0-0.0875-0.51031 23.718 27.896 40.288 0 0-0.0997-0.50428 23.718 27.896 40.288 0 0-0.11178-0.50427 23.718 27.896 40.288 0 0-0.12075-0.49824 23.718 27.896 40.288 0 0-0.12986-0.4922 23.718 27.896 40.288 0 0-0.14193-0.48917 23.718 27.896 40.288 0 0-0.15105-0.48617 23.718 27.896 40.288 0 0-0.16306-0.4801 23.718 27.896 40.288 0 0-0.17212-0.47408 23.718 27.896 40.288 0 0-0.1842-0.46805 23.718 27.896 40.288 0 0-0.19022-0.46502 23.718 27.896 40.288 0 0-0.20535-0.45596 23.718 27.896 40.288 0 0-0.21136-0.45294 23.718 27.896 40.288 0 0-0.22345-0.4469 23.718 27.896 40.288 0 0-0.22949-0.43784 23.718 27.896 40.288 0 0-0.24157-0.43484 23.718 27.896 40.288 0 0-0.25366-0.42576 23.718 27.896 40.288 0 0-0.25967-0.41972 23.718 27.896 40.288 0 0-0.26875-0.41068 23.718 27.896 40.288 0 0-0.28082-0.40764 23.718 27.896 40.288 0 0-0.28687-0.39557 23.718 27.896 40.288 0 0-0.29895-0.38953 23.718 27.896 40.288 0 0-0.30497-0.3835 23.718 27.896 40.288 0 0-0.31405-0.37442 23.718 27.896 40.288 0 0-0.32309-0.3684 23.718 27.896 40.288 0 0-0.2446-0.26271 77.302 77.302 0 0 0-38.437 40.357z"/>
   <path d="m853.46 491.75a8.452 6.5424 47.995 0 0 0.13883-0.0544 8.452 6.5424 47.995 0 0 0.23251-0.0996 8.452 6.5424 47.995 0 0 0.22648-0.11177 8.452 6.5424 47.995 0 0 0.22043-0.12075 8.452 6.5424 47.995 0 0 0.21439-0.13281 8.452 6.5424 47.995 0 0 0.20533-0.14192 8.452 6.5424 47.995 0 0 0.1993-0.15105 8.452 6.5424 47.995 0 0 0.19023-0.16005 8.452 6.5424 47.995 0 0 0.18118-0.16909 8.452 6.5424 47.995 0 0 0.17513-0.17816 8.452 6.5424 47.995 0 0 0.1661-0.18721 8.452 6.5424 47.995 0 0 0.15398-0.19326 8.452 6.5424 47.995 0 0 0.14796-0.20533 8.452 6.5424 47.995 0 0 0.13883-0.20836 8.452 6.5424 47.995 0 0 0.12678-0.22043 8.452 6.5424 47.995 0 0 0.12074-0.22647 8.452 6.5424 47.995 0 0 0.10869-0.23251 8.452 6.5424 47.995 0 0 0.0301-0.0694 8.452 6.5424 47.995 0 0 0.0966-0.24157 8.452 6.5424 47.995 0 0 0.0846-0.24762 8.452 6.5424 47.995 0 0 0.0755-0.25063 8.452 6.5424 47.995 0 0 0.0634-0.25969 8.452 6.5424 47.995 0 0 0.0544-0.2627 8.452 6.5424 47.995 0 0 0.0453-0.26572 8.452 6.5424 47.995 0 0 0.0332-0.27178 8.452 6.5424 47.995 0 0 0.0212-0.27779 8.452 6.5424 47.995 0 0 0.0124-0.27781 8.452 6.5424 47.995 0 0 0-0.28082 8.452 6.5424 47.995 0 0-9e-3 -0.28384 8.452 6.5424 47.995 0 0-0.0212-0.28687 8.452 6.5424 47.995 0 0-0.0332-0.28988 8.452 6.5424 47.995 0 0-0.0424-0.28988 8.452 6.5424 47.995 0 0-0.0513-0.28989 8.452 6.5424 47.995 0 0-0.0634-0.28988 8.452 6.5424 47.995 0 0-0.0754-0.2929 8.452 6.5424 47.995 0 0-0.0846-0.28988 8.452 6.5424 47.995 0 0-0.0937-0.28988 8.452 6.5424 47.995 0 0-0.10575-0.28988 8.452 6.5424 47.995 0 0-0.11472-0.28687 8.452 6.5424 47.995 0 0-0.12384-0.28386 8.452 6.5424 47.995 0 0-0.1328-0.28383 8.452 6.5424 47.995 0 0-0.14487-0.28083 8.452 6.5424 47.995 0 0-0.15104-0.27478 8.452 6.5424 47.995 0 0-0.16305-0.27479 8.452 6.5424 47.995 0 0-0.16911-0.26875 8.452 6.5424 47.995 0 0-0.18118-0.2627 8.452 6.5424 47.995 0 0-0.18721-0.2627 8.452 6.5424 47.995 0 0-0.19325-0.25365 8.452 6.5424 47.995 0 0-0.20232-0.24761 8.452 6.5424 47.995 0 0-0.21137-0.24459 8.452 6.5424 47.995 0 0-0.21741-0.23554 8.452 6.5424 47.995 0 0-0.22346-0.23251 8.452 6.5424 47.995 0 0-0.22948-0.22344 8.452 6.5424 47.995 0 0-0.23855-0.21439 8.452 6.5424 47.995 0 0-0.24157-0.20836 8.452 6.5424 47.995 0 0-0.24762-0.2023 8.452 6.5424 47.995 0 0-0.25364-0.19024 8.452 6.5424 47.995 0 0-0.25666-0.1842 8.452 6.5424 47.995 0 0-0.26272-0.17514 8.452 6.5424 47.995 0 0-0.0785-0.0513 8.452 6.5424 47.995 0 0-0.26875-0.16307 8.452 6.5424 47.995 0 0-0.26873-0.15398 8.452 6.5424 47.995 0 0-0.27479-0.14487 8.452 6.5424 47.995 0 0-0.27478-0.13589 8.452 6.5424 47.995 0 0-0.28082-0.12678 8.452 6.5424 47.995 0 0-0.27781-0.11471 8.452 6.5424 47.995 0 0-0.28384-0.10266 8.452 6.5424 47.995 0 0-0.28082-0.0966 8.452 6.5424 47.995 0 0-0.28386-0.0815 8.452 6.5424 47.995 0 0-0.28383-0.0754 8.452 6.5424 47.995 0 0-0.28386-0.0605 8.452 6.5424 47.995 0 0-0.28384-0.0513 8.452 6.5424 47.995 0 0-0.28082-0.0422 8.452 6.5424 47.995 0 0-0.28082-0.0301 8.452 6.5424 47.995 0 0-0.27781-0.0181 8.452 6.5424 47.995 0 0-0.27781-6e-3 8.452 6.5424 47.995 0 0-0.27176 3e-3 8.452 6.5424 47.995 0 0-0.27177 0.0155 8.452 6.5424 47.995 0 0-0.26874 0.0241 8.452 6.5424 47.995 0 0-0.26271 0.0362 8.452 6.5424 47.995 0 0-0.25969 0.0482 8.452 6.5424 47.995 0 0-0.25364 0.0573 8.452 6.5424 47.995 0 0-0.25063 0.0694 8.452 6.5424 47.995 0 0-0.24458 0.0815 8.452 6.5424 47.995 0 0-0.23856 0.0906 8.452 6.5424 47.995 0 0-0.23251 0.0997 8.452 6.5424 47.995 0 0-0.22646 0.11177 8.452 6.5424 47.995 0 0-0.22044 0.12075 8.452 6.5424 47.995 0 0-0.21438 0.13281 8.452 6.5424 47.995 0 0-0.20535 0.14192 8.452 6.5424 47.995 0 0-0.19929 0.15105 8.452 6.5424 47.995 0 0-0.19024 0.16005 8.452 6.5424 47.995 0 0-0.18118 0.1691 8.452 6.5424 47.995 0 0-0.17513 0.17815 8.452 6.5424 47.995 0 0-0.16608 0.18721 8.452 6.5424 47.995 0 0-0.15398 0.19326 8.452 6.5424 47.995 0 0-0.14796 0.20231 8.452 6.5424 47.995 0 0-0.13883 0.21138 8.452 6.5424 47.995 0 0-0.12678 0.22043 8.452 6.5424 47.995 0 0-0.12075 0.22345 8.452 6.5424 47.995 0 0-0.10868 0.23251 8.452 6.5424 47.995 0 0-0.0301 0.0725 8.452 6.5424 47.995 0 0-0.0966 0.24157 8.452 6.5424 47.995 0 0-0.0665 0.19627 77.302 77.302 0 0 0 11.127 11.266z"/>
  </g>
  <path d="m902.51 354.77a77.302 77.302 0 0 0-32.914 7.395 23.718 27.896 40.288 0 1 0.2446 0.26271 23.718 27.896 40.288 0 1 0.32309 0.3684 23.718 27.896 40.288 0 1 0.31405 0.37442 23.718 27.896 40.288 0 1 0.30497 0.3835 23.718 27.896 40.288 0 1 0.29894 0.38953 23.718 27.896 40.288 0 1 0.28687 0.39557 23.718 27.896 40.288 0 1 0.28082 0.40764 23.718 27.896 40.288 0 1 0.26875 0.41068 23.718 27.896 40.288 0 1 0.25967 0.41972 23.718 27.896 40.288 0 1 0.25366 0.42576 23.718 27.896 40.288 0 1 0.24157 0.43484 23.718 27.896 40.288 0 1 0.2295 0.43784 23.718 27.896 40.288 0 1 0.22345 0.4469 23.718 27.896 40.288 0 1 0.21136 0.45294 23.718 27.896 40.288 0 1 0.20534 0.45596 23.718 27.896 40.288 0 1 0.19023 0.46502 23.718 27.896 40.288 0 1 0.18419 0.46805 23.718 27.896 40.288 0 1 0.17212 0.47408 23.718 27.896 40.288 0 1 0.16306 0.48011 23.718 27.896 40.288 0 1 0.15105 0.48616 23.718 27.896 40.288 0 1 0.14193 0.48917 23.718 27.896 40.288 0 1 0.12987 0.4922 23.718 27.896 40.288 0 1 0.12074 0.49824 23.718 27.896 40.288 0 1 0.11178 0.50428 23.718 27.896 40.288 0 1 0.0997 0.50427 23.718 27.896 40.288 0 1 0.0875 0.51032 23.718 27.896 40.288 0 1 0.0785 0.51333 23.718 27.896 40.288 0 1 0.0665 0.51636 23.718 27.896 40.288 0 1 0.0574 0.51936 23.718 27.896 40.288 0 1 0.0453 0.5224 23.718 27.896 40.288 0 1 0.0362 0.52542 23.718 27.896 40.288 0 1 0.0241 0.52842 23.718 27.896 40.288 0 1 0.0155 0.53147 23.718 27.896 40.288 0 1 3e-3 0.53143 23.718 27.896 40.288 0 1-9e-3 0.53147 23.718 27.896 40.288 0 1-0.0181 0.53447 23.718 27.896 40.288 0 1-0.0272 0.53748 23.718 27.896 40.288 0 1-0.0422 0.5375 23.718 27.896 40.288 0 1-0.0513 0.53749 23.718 27.896 40.288 0 1-0.0604 0.53749 23.718 27.896 40.288 0 1-0.0725 0.54051 23.718 27.896 40.288 0 1-0.0815 0.53749 23.718 27.896 40.288 0 1-0.0937 0.54052 23.718 27.896 40.288 0 1-0.10575 0.53748 23.718 27.896 40.288 0 1-0.11471 0.53749 23.718 27.896 40.288 0 1-0.12384 0.5375 23.718 27.896 40.288 0 1-0.1359 0.53748 23.718 27.896 40.288 0 1-0.14486 0.53449 23.718 27.896 40.288 0 1-0.15702 0.53145 23.718 27.896 40.288 0 1-0.16607 0.53446 23.718 27.896 40.288 0 1-0.17817 0.52844 23.718 27.896 40.288 0 1-0.18721 0.52842 23.718 27.896 40.288 0 1-0.0846 0.23251 23.718 27.896 40.288 0 1-0.20231 0.52543 23.718 27.896 40.288 0 1-0.21138 0.52239 23.718 27.896 40.288 0 1-0.22042 0.51634 23.718 27.896 40.288 0 1-0.23251 0.51637 23.718 27.896 40.288 0 1-0.23855 0.51333 23.718 27.896 40.288 0 1-0.25063 0.50729 23.718 27.896 40.288 0 1-0.25969 0.50429 23.718 27.896 40.288 0 1-0.26875 0.50124 23.718 27.896 40.288 0 1-0.27781 0.49824 23.718 27.896 40.288 0 1-0.28685 0.4922 23.718 27.896 40.288 0 1-0.29593 0.48615 23.718 27.896 40.288 0 1-0.30497 0.48314 23.718 27.896 40.288 0 1-0.31405 0.47711 23.718 27.896 40.288 0 1-0.32309 0.47408 23.718 27.896 40.288 0 1-0.32914 0.46803 23.718 27.896 40.288 0 1-0.34122 0.462 23.718 27.896 40.288 0 1-0.34726 0.45295 23.718 27.896 40.288 0 1-0.35329 0.44991 23.718 27.896 40.288 0 1-0.36236 0.44389 23.718 27.896 40.288 0 1-0.3714 0.43785 23.718 27.896 40.288 0 1-0.37745 0.43179 23.718 27.896 40.288 0 1-0.38651 0.42275 23.718 27.896 40.288 0 1-0.39256 0.41671 23.718 27.896 40.288 0 1-0.4016 0.41067 23.718 27.896 40.288 0 1-0.40766 0.4016 23.718 27.896 40.288 0 1-0.41066 0.39558 23.718 27.896 40.288 0 1-0.42275 0.38651 23.718 27.896 40.288 0 1-0.42576 0.38048 23.718 27.896 40.288 0 1-0.43181 0.3714 23.718 27.896 40.288 0 1-0.44086 0.36538 23.718 27.896 40.288 0 1-0.44388 0.35328 23.718 27.896 40.288 0 1-0.44993 0.34726 23.718 27.896 40.288 0 1-0.45596 0.3382 23.718 27.896 40.288 0 1-0.45897 0.33217 23.718 27.896 40.288 0 1-0.46805 0.32007 23.718 27.896 40.288 0 1-0.47107 0.31102 23.718 27.896 40.288 0 1-0.47407 0.30196 23.718 27.896 40.288 0 1-0.48011 0.29593 23.718 27.896 40.288 0 1-0.48617 0.28383 23.718 27.896 40.288 0 1-0.48615 0.2748 23.718 27.896 40.288 0 1-0.4922 0.26571 23.718 27.896 40.288 0 1-0.49521 0.25365 23.718 27.896 40.288 0 1-0.50126 0.24761 23.718 27.896 40.288 0 1-0.50126 0.23553 23.718 27.896 40.288 0 1-0.50729 0.22648 23.718 27.896 40.288 0 1-0.5073 0.21439 23.718 27.896 40.288 0 1-0.51032 0.20533 23.718 27.896 40.288 0 1-0.51333 0.19628 23.718 27.896 40.288 0 1-0.51635 0.1842 23.718 27.896 40.288 0 1-0.51636 0.17513 23.718 27.896 40.288 0 1-0.51936 0.16306 23.718 27.896 40.288 0 1-0.52239 0.15399 23.718 27.896 40.288 0 1-0.51938 0.14193 23.718 27.896 40.288 0 1-0.52542 0.1328 23.718 27.896 40.288 0 1-0.5224 0.12075 23.718 27.896 40.288 0 1-0.5254 0.11178 23.718 27.896 40.288 0 1-0.5224 0.0997 23.718 27.896 40.288 0 1-0.52542 0.0875 23.718 27.896 40.288 0 1-0.52541 0.0785 23.718 27.896 40.288 0 1-0.5254 0.0665 23.718 27.896 40.288 0 1-0.52239 0.0544 23.718 27.896 40.288 0 1-0.52543 0.0453 23.718 27.896 40.288 0 1-0.52239 0.0332 23.718 27.896 40.288 0 1-0.51936 0.0241 23.718 27.896 40.288 0 1-0.52241 0.0124 23.718 27.896 40.288 0 1-0.51635 0 23.718 27.896 40.288 0 1-0.51634-0.0124 23.718 27.896 40.288 0 1-0.51637-0.0212 23.718 27.896 40.288 0 1-0.51031-0.0332 23.718 27.896 40.288 0 1-0.51031-0.0422 23.718 27.896 40.288 0 1-0.5073-0.0544 23.718 27.896 40.288 0 1-0.50427-0.0665 23.718 27.896 40.288 0 1-0.50126-0.0785 23.718 27.896 40.288 0 1-0.49824-0.0875 23.718 27.896 40.288 0 1-0.49521-0.0966 23.718 27.896 40.288 0 1-0.48917-0.11178 23.718 27.896 40.288 0 1-0.21742-0.0513 23.718 27.896 40.288 0 1-0.48616-0.12384 23.718 27.896 40.288 0 1-0.48012-0.13589 23.718 27.896 40.288 0 1-0.47408-0.14796 23.718 27.896 40.288 0 1-0.47106-0.15702 23.718 27.896 40.288 0 1-0.46803-0.16609 23.718 27.896 40.288 0 1-0.46201-0.17815 23.718 27.896 40.288 0 1-0.45596-0.19024 23.718 27.896 40.288 0 1-0.44993-0.19928 23.718 27.896 40.288 0 1-0.4469-0.20836 23.718 27.896 40.288 0 1-0.43783-0.22044 23.718 27.896 40.288 0 1-0.43483-0.22948 23.718 27.896 40.288 0 1-0.42576-0.23855 23.718 27.896 40.288 0 1-0.42275-0.25063 23.718 27.896 40.288 0 1-0.41369-0.25668 23.718 27.896 40.288 0 1-0.40765-0.26873 23.718 27.896 40.288 0 1-0.40161-0.27781 23.718 27.896 40.288 0 1-0.39254-0.28988 23.718 27.896 40.288 0 1-0.38651-0.29593 23.718 27.896 40.288 0 1-0.38049-0.308 23.718 27.896 40.288 0 1-0.3714-0.31403 23.718 27.896 40.288 0 1-0.36538-0.32311 23.718 27.896 40.288 0 1-0.12074-0.11178 77.302 77.302 0 0 0-5.8704 29.55 77.302 77.302 0 0 0 17.04 48.41 8.452 6.5424 47.995 0 1 0.0665-0.19627 8.452 6.5424 47.995 0 1 0.0966-0.24157 8.452 6.5424 47.995 0 1 0.0301-0.0725 8.452 6.5424 47.995 0 1 0.10868-0.23251 8.452 6.5424 47.995 0 1 0.12075-0.22345 8.452 6.5424 47.995 0 1 0.12677-0.22043 8.452 6.5424 47.995 0 1 0.13884-0.21138 8.452 6.5424 47.995 0 1 0.14796-0.20231 8.452 6.5424 47.995 0 1 0.15398-0.19326 8.452 6.5424 47.995 0 1 0.16608-0.18721 8.452 6.5424 47.995 0 1 0.17513-0.17815 8.452 6.5424 47.995 0 1 0.18118-0.1691 8.452 6.5424 47.995 0 1 0.19024-0.16005 8.452 6.5424 47.995 0 1 0.19929-0.15105 8.452 6.5424 47.995 0 1 0.20534-0.14193 8.452 6.5424 47.995 0 1 0.21439-0.1328 8.452 6.5424 47.995 0 1 0.22044-0.12075 8.452 6.5424 47.995 0 1 0.22646-0.11178 8.452 6.5424 47.995 0 1 0.23251-0.0997 8.452 6.5424 47.995 0 1 0.23856-0.0906 8.452 6.5424 47.995 0 1 0.24458-0.0815 8.452 6.5424 47.995 0 1 0.25063-0.0694 8.452 6.5424 47.995 0 1 0.25364-0.0574 8.452 6.5424 47.995 0 1 0.25969-0.0482 8.452 6.5424 47.995 0 1 0.26271-0.0362 8.452 6.5424 47.995 0 1 0.26874-0.0241 8.452 6.5424 47.995 0 1 0.27177-0.0155 8.452 6.5424 47.995 0 1 0.27176-3e-3 8.452 6.5424 47.995 0 1 0.27781 6e-3 8.452 6.5424 47.995 0 1 0.27781 0.0181 8.452 6.5424 47.995 0 1 0.28082 0.0301 8.452 6.5424 47.995 0 1 0.28082 0.0422 8.452 6.5424 47.995 0 1 0.28384 0.0513 8.452 6.5424 47.995 0 1 0.28385 0.0605 8.452 6.5424 47.995 0 1 0.28384 0.0754 8.452 6.5424 47.995 0 1 0.28386 0.0815 8.452 6.5424 47.995 0 1 0.28082 0.0966 8.452 6.5424 47.995 0 1 0.28384 0.10265 8.452 6.5424 47.995 0 1 0.27781 0.11472 8.452 6.5424 47.995 0 1 0.28082 0.12678 8.452 6.5424 47.995 0 1 0.27478 0.13589 8.452 6.5424 47.995 0 1 0.27479 0.14487 8.452 6.5424 47.995 0 1 0.26873 0.15398 8.452 6.5424 47.995 0 1 0.26875 0.16306 8.452 6.5424 47.995 0 1 0.0785 0.0513 8.452 6.5424 47.995 0 1 0.26272 0.17514 8.452 6.5424 47.995 0 1 0.25666 0.18419 8.452 6.5424 47.995 0 1 0.25364 0.19024 8.452 6.5424 47.995 0 1 0.24762 0.2023 8.452 6.5424 47.995 0 1 0.24156 0.20836 8.452 6.5424 47.995 0 1 0.23856 0.21439 8.452 6.5424 47.995 0 1 0.22948 0.22345 8.452 6.5424 47.995 0 1 0.22346 0.23251 8.452 6.5424 47.995 0 1 0.21741 0.23554 8.452 6.5424 47.995 0 1 0.21137 0.24459 8.452 6.5424 47.995 0 1 0.20232 0.24761 8.452 6.5424 47.995 0 1 0.19325 0.25364 8.452 6.5424 47.995 0 1 0.18721 0.26271 8.452 6.5424 47.995 0 1 0.18118 0.2627 8.452 6.5424 47.995 0 1 0.16911 0.26875 8.452 6.5424 47.995 0 1 0.16305 0.27479 8.452 6.5424 47.995 0 1 0.15104 0.27478 8.452 6.5424 47.995 0 1 0.14487 0.28082 8.452 6.5424 47.995 0 1 0.1328 0.28384 8.452 6.5424 47.995 0 1 0.12384 0.28386 8.452 6.5424 47.995 0 1 0.11472 0.28686 8.452 6.5424 47.995 0 1 0.10575 0.28989 8.452 6.5424 47.995 0 1 0.0937 0.28988 8.452 6.5424 47.995 0 1 0.0846 0.28988 8.452 6.5424 47.995 0 1 0.0754 0.2929 8.452 6.5424 47.995 0 1 0.0634 0.28988 8.452 6.5424 47.995 0 1 0.0513 0.28989 8.452 6.5424 47.995 0 1 0.0424 0.28988 8.452 6.5424 47.995 0 1 0.0332 0.28988 8.452 6.5424 47.995 0 1 0.0212 0.28687 8.452 6.5424 47.995 0 1 9e-3 0.28384 8.452 6.5424 47.995 0 1 0 0.28082 8.452 6.5424 47.995 0 1-0.0124 0.27781 8.452 6.5424 47.995 0 1-0.0212 0.27779 8.452 6.5424 47.995 0 1-0.0332 0.27178 8.452 6.5424 47.995 0 1-0.0453 0.26572 8.452 6.5424 47.995 0 1-0.0544 0.2627 8.452 6.5424 47.995 0 1-0.0634 0.25969 8.452 6.5424 47.995 0 1-0.0755 0.25063 8.452 6.5424 47.995 0 1-0.0846 0.24761 8.452 6.5424 47.995 0 1-0.0966 0.24157 8.452 6.5424 47.995 0 1-0.0302 0.0694 8.452 6.5424 47.995 0 1-0.10869 0.23251 8.452 6.5424 47.995 0 1-0.12074 0.22646 8.452 6.5424 47.995 0 1-0.12678 0.22044 8.452 6.5424 47.995 0 1-0.13883 0.20836 8.452 6.5424 47.995 0 1-0.14796 0.20533 8.452 6.5424 47.995 0 1-0.15398 0.19325 8.452 6.5424 47.995 0 1-0.1661 0.18722 8.452 6.5424 47.995 0 1-0.17513 0.17816 8.452 6.5424 47.995 0 1-0.18118 0.16909 8.452 6.5424 47.995 0 1-0.19023 0.16005 8.452 6.5424 47.995 0 1-0.1993 0.15105 8.452 6.5424 47.995 0 1-0.20533 0.14192 8.452 6.5424 47.995 0 1-0.21439 0.13281 8.452 6.5424 47.995 0 1-0.22043 0.12074 8.452 6.5424 47.995 0 1-0.22648 0.11178 8.452 6.5424 47.995 0 1-0.23251 0.0996 8.452 6.5424 47.995 0 1-0.13884 0.0544 77.302 77.302 0 0 0 49.135 17.626 77.302 77.302 0 0 0 2.0805-0.0301 19.131 33.89 72.501 0 1-0.0241-0.0332 19.131 33.89 72.501 0 1-0.21742-0.32611 19.131 33.89 72.501 0 1-0.20834-0.33217 19.131 33.89 72.501 0 1-0.19326-0.33516 19.131 33.89 72.501 0 1-0.18419-0.3382 19.131 33.89 72.501 0 1-0.16911-0.34424 19.131 33.89 72.501 0 1-0.15701-0.35027 19.131 33.89 72.501 0 1-0.14487-0.3533 19.131 33.89 72.501 0 1-0.12987-0.35934 19.131 33.89 72.501 0 1-0.0966-0.29289 19.131 33.89 72.501 0 1-0.10869-0.36538 19.131 33.89 72.501 0 1-0.0966-0.37142 19.131 33.89 72.501 0 1-0.0815-0.37141 19.131 33.89 72.501 0 1-0.0694-0.37745 19.131 33.89 72.501 0 1-0.0574-0.38046 19.131 33.89 72.501 0 1-0.0422-0.3835 19.131 33.89 72.501 0 1-0.0302-0.38651 19.131 33.89 72.501 0 1-0.0181-0.38952 19.131 33.89 72.501 0 1-3e-3 -0.39256 19.131 33.89 72.501 0 1 6e-3 -0.39557 19.131 33.89 72.501 0 1 0.0241-0.39859 19.131 33.89 72.501 0 1 0.0332-0.40161 19.131 33.89 72.501 0 1 0.0482-0.4016 19.131 33.89 72.501 0 1 0.0605-0.40463 19.131 33.89 72.501 0 1 0.0754-0.40765 19.131 33.89 72.501 0 1 0.0846-0.40766 19.131 33.89 72.501 0 1 0.0997-0.40764 19.131 33.89 72.501 0 1 0.11178-0.41369 19.131 33.89 72.501 0 1 0.12677-0.41066 19.131 33.89 72.501 0 1 0.13899-0.41369 19.131 33.89 72.501 0 1 0.1509-0.41369 19.131 33.89 72.501 0 1 0.16306-0.41671 19.131 33.89 72.501 0 1 0.17513-0.4167 19.131 33.89 72.501 0 1 0.18723-0.41369 19.131 33.89 72.501 0 1 0.20231-0.41671 19.131 33.89 72.501 0 1 0.21439-0.4167 19.131 33.89 72.501 0 1 0.22345-0.41671 19.131 33.89 72.501 0 1 0.23856-0.4167 19.131 33.89 72.501 0 1 0.25063-0.4167 19.131 33.89 72.501 0 1 0.2627-0.41369 19.131 33.89 72.501 0 1 0.27176-0.41671 19.131 33.89 72.501 0 1 0.28687-0.41067 19.131 33.89 72.501 0 1 0.29591-0.41369 19.131 33.89 72.501 0 1 0.31102-0.41066 19.131 33.89 72.501 0 1 0.32009-0.41068 19.131 33.89 72.501 0 1 0.32914-0.40764 19.131 33.89 72.501 0 1 0.34423-0.40765 19.131 33.89 72.501 0 1 0.3533-0.40463 19.131 33.89 72.501 0 1 0.36537-0.40162 19.131 33.89 72.501 0 1 0.37442-0.4016 19.131 33.89 72.501 0 1 0.38652-0.39858 19.131 33.89 72.501 0 1 0.39557-0.39557 19.131 33.89 72.501 0 1 0.40764-0.39256 19.131 33.89 72.501 0 1 0.41672-0.38952 19.131 33.89 72.501 0 1 0.42878-0.38953 19.131 33.89 72.501 0 1 0.43482-0.38349 19.131 33.89 72.501 0 1 0.4469-0.38048 19.131 33.89 72.501 0 1 0.45596-0.37745 19.131 33.89 72.501 0 1 0.46504-0.37443 19.131 33.89 72.501 0 1 0.47407-0.3684 19.131 33.89 72.501 0 1 0.48314-0.36536 19.131 33.89 72.501 0 1 0.4922-0.36236 19.131 33.89 72.501 0 1 0.50124-0.35934 19.131 33.89 72.501 0 1 0.50731-0.3533 19.131 33.89 72.501 0 1 0.51634-0.34724 19.131 33.89 72.501 0 1 0.52543-0.34725 19.131 33.89 72.501 0 1 0.53145-0.3382 19.131 33.89 72.501 0 1 0.54051-0.33518 19.131 33.89 72.501 0 1 0.54654-0.32914 19.131 33.89 72.501 0 1 0.55259-0.32612 19.131 33.89 72.501 0 1 0.56166-0.32008 19.131 33.89 72.501 0 1 0.56768-0.31405 19.131 33.89 72.501 0 1 0.57373-0.30798 19.131 33.89 72.501 0 1 0.57977-0.30198 19.131 33.89 72.501 0 1 0.58579-0.29894 19.131 33.89 72.501 0 1 0.59186-0.28988 19.131 33.89 72.501 0 1 0.59787-0.28686 19.131 33.89 72.501 0 1 0.60091-0.2778 19.131 33.89 72.501 0 1 0.60693-0.27177 19.131 33.89 72.501 0 1 0.61299-0.26875 19.131 33.89 72.501 0 1 0.61601-0.25968 19.131 33.89 72.501 0 1 0.62203-0.25365 19.131 33.89 72.501 0 1 0.62507-0.24761 19.131 33.89 72.501 0 1 0.62808-0.23854 19.131 33.89 72.501 0 1 0.63109-0.23554 19.131 33.89 72.501 0 1 0.63714-0.22646 19.131 33.89 72.501 0 1 0.63714-0.22044 19.131 33.89 72.501 0 1 0.64016-0.21137 19.131 33.89 72.501 0 1 0.52239-0.16608 19.131 33.89 72.501 0 1 0.64318-0.1993 19.131 33.89 72.501 0 1 0.64922-0.19326 19.131 33.89 72.501 0 1 0.64921-0.18419 19.131 33.89 72.501 0 1 0.64922-0.17815 19.131 33.89 72.501 0 1 0.65224-0.16911 19.131 33.89 72.501 0 1 0.65223-0.16306 19.131 33.89 72.501 0 1 0.65526-0.15398 19.131 33.89 72.501 0 1 0.65224-0.14487 19.131 33.89 72.501 0 1 0.65525-0.13883 19.131 33.89 72.501 0 1 0.65525-0.13281 19.131 33.89 72.501 0 1 0.65225-0.12384 19.131 33.89 72.501 0 1 0.65526-0.11471 19.131 33.89 72.501 0 1 0.65223-0.10575 19.131 33.89 72.501 0 1 0.64921-0.0997 19.131 33.89 72.501 0 1 0.65225-0.0906 19.131 33.89 72.501 0 1 0.64921-0.0846 19.131 33.89 72.501 0 1 0.6462-0.0725 19.131 33.89 72.501 0 1 0.64317-0.0665 19.131 33.89 72.501 0 1 0.64318-0.0605 19.131 33.89 72.501 0 1 0.64016-0.0482 19.131 33.89 72.501 0 1 0.63714-0.0422 19.131 33.89 72.501 0 1 0.63109-0.0332 19.131 33.89 72.501 0 1 0.63111-0.0272 19.131 33.89 72.501 0 1 0.62808-0.0155 19.131 33.89 72.501 0 1 0.62204-9e-3 19.131 33.89 72.501 0 1 0.61901 0 19.131 33.89 72.501 0 1 0.613 6e-3 19.131 33.89 72.501 0 1 0.60996 0.0181 19.131 33.89 72.501 0 1 0.60391 0.0241 19.131 33.89 72.501 0 1 0.6009 0.0301 19.131 33.89 72.501 0 1 0.59487 0.0422 19.131 33.89 72.501 0 1 0.58883 0.0482 19.131 33.89 72.501 0 1 0.58278 0.0574 19.131 33.89 72.501 0 1 0.57675 0.0665 19.131 33.89 72.501 0 1 0.5707 0.0754 19.131 33.89 72.501 0 1 0.56165 0.0815 19.131 33.89 72.501 0 1 0.55863 0.0906 19.131 33.89 72.501 0 1 0.54957 0.0966 19.131 33.89 72.501 0 1 0.54353 0.10575 19.131 33.89 72.501 0 1 0.5375 0.11472 19.131 33.89 72.501 0 1 0.52842 0.12383 19.131 33.89 72.501 0 1 0.51938 0.12987 19.131 33.89 72.501 0 1 0.51333 0.13884 19.131 33.89 72.501 0 1 0.50427 0.14486 19.131 33.89 72.501 0 1 0.49523 0.15399 19.131 33.89 72.501 0 1 0.48615 0.16003 19.131 33.89 72.501 0 1 0.48013 0.1691 19.131 33.89 72.501 0 1 0.46803 0.17514 19.131 33.89 72.501 0 1 0.462 0.1842 19.131 33.89 72.501 0 1 0.44993 0.19325 19.131 33.89 72.501 0 1 0.44086 0.1993 19.131 33.89 72.501 0 1 0.43181 0.20533 19.131 33.89 72.501 0 1 0.42275 0.21138 19.131 33.89 72.501 0 1 0.41066 0.22043 19.131 33.89 72.501 0 1 0.40161 0.22646 19.131 33.89 72.501 0 1 0.39254 0.23553 19.131 33.89 72.501 0 1 0.38048 0.24157 19.131 33.89 72.501 0 1 0.36839 0.24761 19.131 33.89 72.501 0 1 0.35934 0.25365 19.131 33.89 72.501 0 1 0.2627 0.19628 77.302 77.302 0 0 0 16.541-47.788 77.302 77.302 0 0 0-12.38-41.958 13.562 9.8965 56.712 0 1-0.0605 0.1328 13.562 9.8965 56.712 0 1-0.14192 0.28686 13.562 9.8965 56.712 0 1-0.15105 0.2778 13.562 9.8965 56.712 0 1-0.16003 0.27177 13.562 9.8965 56.712 0 1-0.16911 0.2627 13.562 9.8965 56.712 0 1-0.17815 0.25366 13.562 9.8965 56.712 0 1-0.18419 0.2476 13.562 9.8965 56.712 0 1-0.19629 0.23554 13.562 9.8965 56.712 0 1-0.20231 0.22948 13.562 9.8965 56.712 0 1-0.21136 0.21742 13.562 9.8965 56.712 0 1-0.22044 0.20834 13.562 9.8965 56.712 0 1-0.22648 0.1993 13.562 9.8965 56.712 0 1-0.23251 0.19024 13.562 9.8965 56.712 0 1-0.24157 0.17815 13.562 9.8965 56.712 0 1-0.25063 0.16911 13.562 9.8965 56.712 0 1-0.25364 0.15702 13.562 9.8965 56.712 0 1-0.1993 0.11177 13.562 9.8965 56.712 0 1-0.26873 0.14193 13.562 9.8965 56.712 0 1-0.27178 0.12678 13.562 9.8965 56.712 0 1-0.27779 0.11781 13.562 9.8965 56.712 0 1-0.28687 0.10574 13.562 9.8965 56.712 0 1-0.28989 0.0966 13.562 9.8965 56.712 0 1-0.29289 0.0846 13.562 9.8965 56.712 0 1-0.30198 0.0725 13.562 9.8965 56.712 0 1-0.30497 0.0605 13.562 9.8965 56.712 0 1-0.308 0.0482 13.562 9.8965 56.712 0 1-0.31102 0.0393 13.562 9.8965 56.712 0 1-0.31706 0.0272 13.562 9.8965 56.712 0 1-0.32008 0.0155 13.562 9.8965 56.712 0 1-0.32311 3e-3 13.562 9.8965 56.712 0 1-0.3261-6e-3 13.562 9.8965 56.712 0 1-0.32914-0.0212 13.562 9.8965 56.712 0 1-0.32914-0.0301 13.562 9.8965 56.712 0 1-0.33518-0.0424 13.562 9.8965 56.712 0 1-0.33215-0.0543 13.562 9.8965 56.712 0 1-0.33518-0.0665 13.562 9.8965 56.712 0 1-0.3382-0.0754 13.562 9.8965 56.712 0 1-0.33518-0.0906 13.562 9.8965 56.712 0 1-0.3382-0.0997 13.562 9.8965 56.712 0 1-0.33819-0.10868 13.562 9.8965 56.712 0 1-0.3382-0.12075 13.562 9.8965 56.712 0 1-0.33518-0.1328 13.562 9.8965 56.712 0 1-0.3382-0.14487 13.562 9.8965 56.712 0 1-0.33517-0.15398 13.562 9.8965 56.712 0 1-0.33216-0.16306 13.562 9.8965 56.712 0 1-0.33216-0.17514 13.562 9.8965 56.712 0 1-0.32913-0.1842 13.562 9.8965 56.712 0 1-0.32612-0.19627 13.562 9.8965 56.712 0 1-0.32613-0.20534 13.562 9.8965 56.712 0 1-0.32007-0.21439 13.562 9.8965 56.712 0 1-0.32008-0.22345 13.562 9.8965 56.712 0 1-0.31403-0.23251 13.562 9.8965 56.712 0 1-0.31104-0.24458 13.562 9.8965 56.712 0 1-0.30497-0.25063 13.562 9.8965 56.712 0 1-0.30196-0.25969 13.562 9.8965 56.712 0 1-0.29894-0.26875 13.562 9.8965 56.712 0 1-0.28988-0.27479 13.562 9.8965 56.712 0 1-0.28988-0.28384 13.562 9.8965 56.712 0 1-0.28083-0.2929 13.562 9.8965 56.712 0 1-0.27479-0.29894 13.562 9.8965 56.712 0 1-0.27176-0.30499 13.562 9.8965 56.712 0 1-0.26271-0.31403 13.562 9.8965 56.712 0 1-0.25667-0.31706 13.562 9.8965 56.712 0 1-0.25063-0.32613 13.562 9.8965 56.712 0 1-0.24157-0.33215 13.562 9.8965 56.712 0 1-0.23552-0.33819 13.562 9.8965 56.712 0 1-0.2295-0.34122 13.562 9.8965 56.712 0 1-0.22042-0.34725 13.562 9.8965 56.712 0 1-0.16306-0.26875 13.562 9.8965 56.712 0 1-0.20836-0.3533 13.562 9.8965 56.712 0 1-0.1993-0.35933 13.562 9.8965 56.712 0 1-0.19022-0.36235 13.562 9.8965 56.712 0 1-0.18118-0.36841 13.562 9.8965 56.712 0 1-0.17213-0.36839 13.562 9.8965 56.712 0 1-0.16607-0.3714 13.562 9.8965 56.712 0 1-0.15399-0.37444 13.562 9.8965 56.712 0 1-0.14486-0.37745 13.562 9.8965 56.712 0 1-0.13884-0.37745 13.562 9.8965 56.712 0 1-0.12677-0.38047 13.562 9.8965 56.712 0 1-0.11781-0.38048 13.562 9.8965 56.712 0 1-0.10869-0.38046 13.562 9.8965 56.712 0 1-0.0966-0.3835 13.562 9.8965 56.712 0 1-0.0875-0.38046 13.562 9.8965 56.712 0 1-0.0785-0.38049 13.562 9.8965 56.712 0 1-0.0694-0.38046 13.562 9.8965 56.712 0 1-0.0604-0.37745 13.562 9.8965 56.712 0 1-0.0482-0.38047 13.562 9.8965 56.712 0 1-0.0362-0.37443 13.562 9.8965 56.712 0 1-0.0272-0.37444 13.562 9.8965 56.712 0 1-0.0181-0.3714 13.562 9.8965 56.712 0 1-9e-3 -0.3684 13.562 9.8965 56.712 0 1 3e-3 -0.36236 13.562 9.8965 56.712 0 1 0.0124-0.36234 13.562 9.8965 56.712 0 1 0.0241-0.35935 13.562 9.8965 56.712 0 1 0.0332-0.35329 13.562 9.8965 56.712 0 1 0.0453-0.34725 13.562 9.8965 56.712 0 1 0.0513-0.34424 13.562 9.8965 56.712 0 1 0.0634-0.34122 13.562 9.8965 56.712 0 1 0.0754-0.33215 13.562 9.8965 56.712 0 1 0.0846-0.32913 13.562 9.8965 56.712 0 1 0.0935-0.3201 13.562 9.8965 56.712 0 1 0.10266-0.31704 13.562 9.8965 56.712 0 1 0.11471-0.30801 13.562 9.8965 56.712 0 1 0.12075-0.30197 13.562 9.8965 56.712 0 1 0.1328-0.2929 13.562 9.8965 56.712 0 1 0.14193-0.28687 13.562 9.8965 56.712 0 1 0.15105-0.28082 13.562 9.8965 56.712 0 1 0.16003-0.27176 13.562 9.8965 56.712 0 1 0.16911-0.26271 13.562 9.8965 56.712 0 1 0.17815-0.25364 13.562 9.8965 56.712 0 1 0.18419-0.24761 13.562 9.8965 56.712 0 1 0.19627-0.23553 13.562 9.8965 56.712 0 1 0.20232-0.22949 13.562 9.8965 56.712 0 1 0.21137-0.21741 13.562 9.8965 56.712 0 1 0.22044-0.20836 13.562 9.8965 56.712 0 1 0.22646-0.1993 13.562 9.8965 56.712 0 1 0.23251-0.18721 13.562 9.8965 56.712 0 1 0.24158-0.18118 13.562 9.8965 56.712 0 1 0.1359-0.0906 77.302 77.302 0 0 0-47.17-16.059 77.302 77.302 0 0 0-0.0815 0z" fill="#ff8086"/>
  <path d="m921.92 364.12c-3.9103-6.1038-6.0132-13.443-5.8709-20.783 0.17396-8.9794 3.7055-17.875 9.7067-24.452 4.911-5.3816 11.247-9.1154 17.486-12.756 6.239-3.6401 12.585-7.3485 17.532-12.695 7.117-7.6902 10.808-18.61 9.8079-29.122-0.9998-10.512-6.6831-20.424-15.148-26.354-8.4648-5.9295-19.559-7.7556-29.459-4.8148-9.9004 2.9408-18.412 10.603-22.529 20.324-2.6331 6.2175-3.5036 13.102-3.2808 19.857 0.22276 6.7548 1.5045 13.417 3.0288 19.981 3.0488 13.127 7.1199 26.398 5.7635 39.858-0.98343 9.7591-4.9617 19.171-11.101 26.715-5.9871 7.6853-8.1289 9.5856-1.7488 11.751 10.065 3.1629 19.169 2.1642 24.61-0.42548 4.7765-2.3273 3.4232-3.6374 1.2029-7.0836z" fill="#ffd5d5"/>
  <g fill="#faa">
   <path d="m962.51 419.24c5.4494 1.901 11.829 6.2218 16.522 8.1996 5.7777 2.4346 12.588 2.289 18.256-0.39053 6.6661-3.1512 11.327-9.3338 15.412-15.472s8.0196-12.631 13.963-16.995c5.3727-3.9445 12.129-5.8522 18.792-5.7066 6.6636 0.14564 13.218 2.2861 18.911 5.7532 11.385 6.9344 19.018 18.799 23.752 31.261 4.8585 12.791 7.0315 26.957 3.7752 40.246-1.6282 6.6445-4.6132 12.988-8.9459 18.283-4.3328 5.2942-10.032 9.5126-16.474 11.816-6.102 2.1821-12.773 2.6182-19.171 1.5912-6.3985-1.027-12.528-3.4888-18.052-6.8769-11.048-6.7763-19.521-17.066-26.551-27.954-2.7039-4.1878-5.2413-8.5115-8.4707-12.309-3.2294-3.7974-7.2512-7.0924-12.014-8.5627-4.0555-1.2519-8.5307-1.0976-12.49 0.4307-23.538 12.855-15.186-26.376-7.2145-23.314z"/>
   <path d="m891.74 497.64c-0.34619 1.873-2.9791 6.8346-4.9035 10.712-4.448 8.9583-6.2461 19.212-5.1114 29.15 0.83919 7.3496 3.2254 14.427 4.6408 21.688 1.4154 7.2606 1.7976 15.052-1.2242 21.804-1.941 4.3369-5.2325 8.03-9.222 10.611-3.9894 2.5809-8.6565 4.0618-13.393 4.4386-9.473 0.75362-18.96-2.9112-26.425-8.7925-3.5453-2.7934-6.7147-6.1014-9.1128-9.9252-2.3981-3.8238-4.0097-8.1761-4.396-12.673-0.45038-5.2428 0.77578-10.551 3.0279-15.306 2.2521-4.7558 5.5004-8.9881 9.1522-12.777 7.3035-7.5774 16.204-13.435 23.804-20.716 10.194-9.7671 11.624-10.939 14.374-21.446 0.64061-4.697 2.3872-6.4452 6.8871-7.1733 4.2313-0.65524 7.6136 0.74139 9.8828 4.8282 0.81462 1.4671 2.1908 3.9539 2.019 5.5781z"/>
   <path d="m843.99 381.26c-12.719-3.1668-23.969-9.4955-31.914-17.994-7.4822-8.004-11.974-17.703-18.91-26.044-4.5152-5.429-10.321-10.4-17.986-12.617-3.8325-1.1084-8.0785-1.4854-12.231-0.84505-4.1528 0.64053-8.1977 2.3309-11.165 4.9124-3.8651 3.3623-5.6806 8.1318-4.9774 12.475 0.70328 4.3431 3.8361 8.1959 8.2492 10.503 3.4912 1.8253 7.6608 2.7022 11.845 3.2579 4.1846 0.55571 8.4562 0.81575 12.589 1.5318 8.5274 1.4775 16.28 4.8845 22.835 9.34 6.5548 4.4554 11.954 9.9412 16.571 15.817 9.2325 11.751 8.889 19.744 16.814 32.165 3.7984 6.3176 11.337 10.895 15.156 6.0043 4.4766-6.1068 12.361-19.285 7.3416-32.801-1.7414-2.3998-11.967-5.1791-14.217-5.7051z"/>
  </g>
  <g>
   <ellipse transform="matrix(.95346 .30153 -.27907 .96027 0 0)" cx="976.15" cy="148.18" rx="20.331" ry="28.021" fill="#808080"/>
   <ellipse transform="rotate(-9.9354)" cx="858.25" cy="580.25" rx="4.0584" ry="11.112" fill="#fea"/>
   <ellipse transform="rotate(-8.4383)" cx="860.71" cy="569.21" rx="4.0584" ry="11.112" fill="#fea"/>
  </g>
 </g>
</svg>
